<?xml version="1.0" standalone="no"?>
<!DOCTYPE svg PUBLIC "-//W3C//DTD SVG 1.1//EN" "http://www.w3.org/Graphics/SVG/1.1/DTD/svg11.dtd" >
<svg xmlns="http://www.w3.org/2000/svg" xmlns:xlink="http://www.w3.org/1999/xlink" version="1.1">
<metadata>
Created by FontForge 20201107 at Fri Aug 28 11:37:54 2020
 By Unknown
Copyright 2020 The HK Grotesk Project Authors (https://github.com/HankenDesignCo/HK-Grotesk)
</metadata>
<defs>
<font id="HKGrotesk-Regular" horiz-adv-x="0" >
  <font-face 
    font-family="HK Grotesk"
    font-weight="400"
    font-stretch="normal"
    units-per-em="2000"
    panose-1="0 0 5 0 0 0 0 0 0 0"
    ascent="1600"
    descent="-400"
    x-height="986"
    cap-height="1394"
    bbox="-1373 -510 2559 2225"
    underline-thickness="80"
    underline-position="-242"
    unicode-range="U+0020-FB02"
  />
<missing-glyph horiz-adv-x="1021" 
d="M921 0h-821v948h821v-948zM150 898v-847h720v847h-720z" />
    <glyph glyph-name="f_f" unicode="ff" horiz-adv-x="1199" 
d="M219 0v886h-174v100h174v92q0 99 49 174.5t133.5 116t188.5 40.5q130 0 233 -62q72 62 209 62q42 0 78.5 -9.5t77.5 -28.5l-42 -96q-59 27 -101 27q-92 0 -135 -43.5t-43 -131.5v-141h313v-100h-313v-886h-126v886h-397v-886h-125zM344 986h398v154q0 74 33 119
q-79 46 -179 46q-78 0 -135 -28.5t-87 -80t-30 -120.5v-90z" />
    <glyph glyph-name="f_f_i" unicode="ffi" horiz-adv-x="1538" 
d="M219 0v886h-174v100h174v92q0 99 49 174.5t133.5 116t188.5 40.5q148 0 258 -77q90 77 236 77q87 0 158.5 -23t136.5 -70l-61 -87q-98 76 -229 76q-111 0 -167 -57.5t-56 -182.5v-79h522v-986h-125v886h-397v-886h-125v886h-397v-886h-125zM344 986h397v82q0 60 12.5 110
t32.5 75q-82 52 -190 52q-78 0 -135 -28.5t-87 -80t-30 -120.5v-90z" />
    <glyph glyph-name="f_f_l" unicode="ffl" horiz-adv-x="1655" 
d="M1310.5 40q-47.5 55 -47.5 166v1050q-82 49 -174 49q-111 0 -167 -57.5t-56 -182.5v-79h226v-100h-226v-886h-125v886h-397v-886h-125v886h-174v100h174v92q0 99 49 174.5t133.5 116t188.5 40.5q71 0 137 -19t121 -56q44 37 105 56t131 19q89 0 160.5 -24t143.5 -72
v-1080q0 -69 23.5 -101t72.5 -32q37 0 92 20v-110q-71 -25 -133 -25q-85 0 -132.5 55zM344 986h397v82q0 110 46 185q-84 52 -191 52q-118 0 -185 -63.5t-67 -173.5v-82z" />
    <glyph glyph-name="fi" unicode="fi" horiz-adv-x="1013" 
d="M859 986v-986h-125v886h-390v-886h-125v886h-174v100h174v82q0 113 45.5 190t123 114t175.5 37q88 0 159 -23.5t138 -69.5l-61 -87q-101 76 -230 76q-111 0 -168 -59t-57 -188v-72h515z" />
    <glyph glyph-name="fl" unicode="fl" horiz-adv-x="1102" 
d="M755.5 40q-48.5 55 -48.5 166v1047q-74 52 -160 52q-104 0 -157.5 -58t-53.5 -182v-79h212v-100h-212v-886h-126v886h-165v100h165v82q0 113 43.5 190t118.5 114t169 37q87 0 155 -24t138 -73v-1085q0 -127 96 -127q36 0 94 20v-110q-75 -25 -136 -25q-84 0 -132.5 55z
" />
    <glyph glyph-name="hyphen_greater.liga" unicode="&#x2d;&#x3e;" horiz-adv-x="2111" 
d="M1023 1069l44 86l971 -540l-971 -540l-44 86l729 406h-1756v96h1756z" />
    <glyph glyph-name="less_hyphen.liga" unicode="&#x3c;&#x2d;" horiz-adv-x="2111" 
d="M359 663h1756v-96h-1756l729 -406l-44 -86l-971 540l971 540l44 -86z" />
    <glyph glyph-name=".notdef" horiz-adv-x="1021" 
d="M921 0h-821v948h821v-948zM150 898v-847h720v847h-720z" />
    <glyph glyph-name="space" unicode=" " horiz-adv-x="524" 
 />
    <glyph glyph-name="A" unicode="A" horiz-adv-x="1232" 
d="M1187 0h-143l-126 357h-605l-126 -357h-143l516 1394h110zM616 1211l-261 -736h521z" />
    <glyph glyph-name="Aacute" unicode="&#xc1;" horiz-adv-x="1232" 
d="M1187 0h-143l-126 357h-605l-126 -357h-143l516 1394h110zM616 1211l-261 -736h521zM664 1521h-97l215 281h136z" />
    <glyph glyph-name="Abreve" unicode="&#x102;" horiz-adv-x="1232" 
d="M1187 0h-143l-126 357h-605l-126 -357h-143l516 1394h110zM616 1211l-261 -736h521zM391.5 1548.5q-75.5 66.5 -75.5 193.5h92q0 -89 55 -136t153 -47q99 0 154 47.5t55 135.5h92q0 -129 -76.5 -194.5t-224.5 -65.5q-149 0 -224.5 66.5z" />
    <glyph glyph-name="uni1EAE" unicode="&#x1eae;" horiz-adv-x="1232" 
d="M1187 0h-143l-126 357h-605l-126 -357h-143l516 1394h110zM616 1211l-261 -736h521zM633 1720h-82l150 272h106zM391.5 1548.5q-75.5 66.5 -75.5 193.5h84q0 -90 56 -136.5t160 -46.5q105 0 160.5 47t55.5 136h85q0 -129 -76.5 -194.5t-224.5 -65.5q-149 0 -224.5 66.5z
" />
    <glyph glyph-name="uni1EB6" unicode="&#x1eb6;" horiz-adv-x="1232" 
d="M1187 0h-143l-126 357h-605l-126 -357h-143l516 1394h110zM616 1211l-261 -736h521zM683 -347h-135v201h135v-201zM391.5 1548.5q-75.5 66.5 -75.5 193.5h92q0 -89 55 -136t153 -47q99 0 154 47.5t55 135.5h92q0 -129 -76.5 -194.5t-224.5 -65.5q-149 0 -224.5 66.5z" />
    <glyph glyph-name="uni1EB0" unicode="&#x1eb0;" horiz-adv-x="1232" 
d="M1187 0h-143l-126 357h-605l-126 -357h-143l516 1394h110zM616 1211l-261 -736h521zM683 1720h-82l-175 272h107zM391.5 1548.5q-75.5 66.5 -75.5 193.5h84q0 -90 56 -136.5t160 -46.5q105 0 160.5 47t55.5 136h85q0 -129 -76.5 -194.5t-224.5 -65.5q-149 0 -224.5 66.5z
" />
    <glyph glyph-name="uni1EB2" unicode="&#x1eb2;" horiz-adv-x="1232" 
d="M1187 0h-143l-126 357h-605l-126 -357h-143l516 1394h110zM616 1211l-261 -736h521zM554 1739q152 17 152 104q0 53 -54 80.5t-130 27.5h-30v66h30q119 0 190 -45t71 -123q0 -76 -57 -110.5t-156 -47.5zM391.5 1548.5q-75.5 66.5 -75.5 193.5h84q0 -90 56 -136.5
t160 -46.5q105 0 160.5 47t55.5 136h85q0 -129 -76.5 -194.5t-224.5 -65.5q-149 0 -224.5 66.5z" />
    <glyph glyph-name="uni1EB4" unicode="&#x1eb4;" horiz-adv-x="1232" 
d="M1187 0h-143l-126 357h-605l-126 -357h-143l516 1394h110zM616 1211l-261 -736h521zM662 1827q-32 13 -70 38q-31 20 -52.5 29.5t-48.5 9.5q-71 0 -94 -78l-74 5q11 64 53.5 104.5t114.5 40.5q47 0 79.5 -12.5t68.5 -36.5q32 -19 53.5 -28t48.5 -9q37 0 60 17.5t34 55.5
l77 -5q-11 -66 -53 -105t-118 -39q-47 0 -79 13zM391.5 1548.5q-75.5 66.5 -75.5 193.5h84q0 -90 56 -136.5t160 -46.5q105 0 160.5 47t55.5 136h85q0 -129 -76.5 -194.5t-224.5 -65.5q-149 0 -224.5 66.5z" />
    <glyph glyph-name="uni01CD" unicode="&#x1cd;" horiz-adv-x="1232" 
d="M1187 0h-143l-126 357h-605l-126 -357h-143l516 1394h110zM616 1211l-261 -736h521zM912 1802l-296 -303l-296 303h104l192 -195l193 195h103z" />
    <glyph glyph-name="Acircumflex" unicode="&#xc2;" horiz-adv-x="1232" 
d="M1187 0h-143l-126 357h-605l-126 -357h-143l516 1394h110zM616 1211l-261 -736h521zM429 1507h-110l297 312l297 -312h-110l-187 200z" />
    <glyph glyph-name="uni1EA4" unicode="&#x1ea4;" horiz-adv-x="1232" 
d="M1187 0h-143l-126 357h-605l-126 -357h-143l516 1394h110zM616 1211l-261 -736h521zM857 1688h-82l150 272h107zM427 1491h-108l297 282l297 -282h-108l-189 184z" />
    <glyph glyph-name="uni1EAC" unicode="&#x1eac;" horiz-adv-x="1232" 
d="M1187 0h-143l-126 357h-605l-126 -357h-143l516 1394h110zM616 1211l-261 -736h521zM683 -347h-135v201h135v-201zM426 1507h-107l297 312l297 -312h-107l-190 200z" />
    <glyph glyph-name="uni1EA6" unicode="&#x1ea6;" horiz-adv-x="1232" 
d="M1187 0h-143l-126 357h-605l-126 -357h-143l516 1394h110zM616 1211l-261 -736h521zM962 1688h-81l-175 272h106zM429 1491h-110l297 282l297 -282h-110l-187 184z" />
    <glyph glyph-name="uni1EA8" unicode="&#x1ea8;" horiz-adv-x="1232" 
d="M1187 0h-143l-126 357h-605l-126 -357h-143l516 1394h110zM616 1211l-261 -736h521zM784 1712q73 12 112.5 35t39.5 71q0 54 -54 81.5t-130 27.5h-30v71h30q119 0 190 -46.5t71 -126.5q0 -55 -28 -87.5t-73 -48.5t-112 -28zM429 1491h-110l297 282l297 -282h-110
l-187 184z" />
    <glyph glyph-name="uni1EAA" unicode="&#x1eaa;" horiz-adv-x="1232" 
d="M1187 0h-143l-126 357h-605l-126 -357h-143l516 1394h110zM616 1211l-261 -736h521zM660 1833q-32 13 -70 38q-31 20 -52.5 29.5t-48.5 9.5q-71 0 -94 -78l-74 5q11 64 53.5 104.5t114.5 40.5q47 0 79 -12.5t69 -35.5q32 -19 53.5 -28t48.5 -9q37 0 60 17.5t34 55.5
l77 -5q-11 -66 -53 -105.5t-118 -39.5q-47 0 -79 13zM427 1491h-108l297 282l297 -282h-107l-190 184z" />
    <glyph glyph-name="Adieresis" unicode="&#xc4;" horiz-adv-x="1232" 
d="M1187 0h-143l-126 357h-605l-126 -357h-143l516 1394h110zM616 1211l-261 -736h521zM504 1586h-135v216h135v-216zM862 1586h-135v216h135v-216z" />
    <glyph glyph-name="uni1EA0" unicode="&#x1ea0;" horiz-adv-x="1232" 
d="M1187 0h-143l-126 357h-605l-126 -357h-143l516 1394h110zM616 1211l-261 -736h521zM683 -347h-135v201h135v-201z" />
    <glyph glyph-name="Agrave" unicode="&#xc0;" horiz-adv-x="1232" 
d="M1187 0h-143l-126 357h-605l-126 -357h-143l516 1394h110zM616 1211l-261 -736h521zM665 1521h-98l-245 281h135z" />
    <glyph glyph-name="uni1EA2" unicode="&#x1ea2;" horiz-adv-x="1232" 
d="M1187 0h-143l-126 357h-605l-126 -357h-143l516 1394h110zM616 1211l-261 -736h521zM576 1511q75 14 118 36t43 71q0 55 -55 82t-139 27h-31v76h31q83 0 148.5 -21.5t103 -61.5t37.5 -95t-36 -88.5t-88 -49.5t-122 -27z" />
    <glyph glyph-name="Amacron" unicode="&#x100;" horiz-adv-x="1232" 
d="M1187 0h-143l-126 357h-605l-126 -357h-143l516 1394h110zM616 1211l-261 -736h521zM886 1614h-540v78h540v-78z" />
    <glyph glyph-name="Aogonek" unicode="&#x104;" horiz-adv-x="1232" 
d="M1250 -339q-81 -86 -183 -86q-77 0 -127 43.5t-50 118.5q0 80 50 148t123 115h-19l-126 357h-605l-126 -357h-143l516 1394h110l517 -1394h-15q-84 -47 -143.5 -113.5t-59.5 -137.5q0 -47 26.5 -70t67.5 -23q66 0 124 55zM616 1211l-261 -736h521z" />
    <glyph glyph-name="Aring" unicode="&#xc5;" horiz-adv-x="1232" 
d="M1044 0l-126 357h-605l-126 -357h-143l509 1375q-57 20 -92 69t-35 110q0 52 25.5 95.5t69 69t95.5 25.5q50 0 94 -25.5t70 -69t26 -95.5q0 -62 -36 -111.5t-93 -68.5l510 -1374h-143zM532.5 1470.5q33.5 -33.5 83.5 -33.5t83.5 34t33.5 84t-33 83.5t-84 33.5t-84 -33.5
t-33 -83.5q0 -51 33.5 -84.5zM616 1211l-261 -736h521z" />
    <glyph glyph-name="Aringacute" unicode="&#x1fa;" horiz-adv-x="1232" 
d="M1044 0l-126 357h-605l-126 -357h-143l509 1375q-57 20 -92 69t-35 110q0 52 25.5 95.5t69 69t95.5 25.5q53 0 98 -28l169 221h136l-248 -274q35 -49 35 -109q0 -62 -36 -111.5t-93 -68.5l510 -1374h-143zM532.5 1470.5q33.5 -33.5 83.5 -33.5t83.5 34t33.5 84
q0 33 -15 59.5t-41 41.5h-9l3 3q-23 13 -55 13q-51 0 -84 -33.5t-33 -83.5q0 -51 33.5 -84.5zM616 1211l-261 -736h521z" />
    <glyph glyph-name="Atilde" unicode="&#xc3;" horiz-adv-x="1232" 
d="M1187 0h-143l-126 357h-605l-126 -357h-143l516 1394h110zM616 1211l-261 -736h521zM682 1502q-30 15 -49.5 36.5t-44.5 56.5q-29 42 -51.5 62t-57.5 20q-48 0 -75 -44.5t-27 -125.5h-77q0 114 49 178.5t135 64.5q37 0 65 -14.5t47 -35t43 -54.5q32 -44 56 -65t61 -21
q41 0 68 49.5t27 132.5h80q0 -78 -22 -135.5t-62 -88.5t-93 -31q-42 0 -72 15z" />
    <glyph glyph-name="AE" unicode="&#xc6;" horiz-adv-x="1748" 
d="M1662 1394v-117h-757v-517h659v-119h-659v-523h757v-118h-890v357h-458l-127 -357h-143l516 1394h1102zM641 1278l-284 -800h415v800h-131z" />
    <glyph glyph-name="AEacute" unicode="&#x1fc;" horiz-adv-x="1748" 
d="M1662 1394v-117h-757v-517h659v-119h-659v-523h757v-118h-890v357h-458l-127 -357h-143l516 1394h1102zM641 1278l-284 -800h415v800h-131zM925 1521h-97l215 281h136z" />
    <glyph glyph-name="B" unicode="B" horiz-adv-x="1188" 
d="M170 0v1394h421q129 0 222.5 -41t143 -119t49.5 -186q0 -109 -50 -189t-140 -118q126 -29 192.5 -120.5t66.5 -233.5q0 -187 -114.5 -287t-328.5 -100h-462zM629 781q74 0 130 30.5t86 86.5t30 131q0 116 -74 180.5t-210 64.5h-291v-493h329zM622 121q323 0 323 271
q0 129 -71 200t-201 71h-373v-542h322z" />
    <glyph glyph-name="C" unicode="C" horiz-adv-x="1405" 
d="M411.5 69q-143.5 89 -222.5 251.5t-79 377.5q0 214 79 376t222.5 251t332.5 89q203 0 352 -101t217 -280l-123 -45q-54 143 -170 222t-276 79q-153 0 -266.5 -72.5t-175 -206t-61.5 -312.5q0 -180 61.5 -314t175 -206.5t266.5 -72.5q160 0 276 79t170 222l123 -45
q-68 -179 -217 -280t-352 -101q-189 0 -332.5 89z" />
    <glyph glyph-name="Cacute" unicode="&#x106;" horiz-adv-x="1405" 
d="M411.5 69q-143.5 89 -222.5 251.5t-79 377.5q0 214 79 376t222.5 251t332.5 89q203 0 352 -101t217 -280l-123 -45q-54 143 -170 222t-276 79q-153 0 -266.5 -72.5t-175 -206t-61.5 -312.5q0 -180 61.5 -314t175 -206.5t266.5 -72.5q160 0 276 79t170 222l123 -45
q-68 -179 -217 -280t-352 -101q-189 0 -332.5 89zM774 1521h-97l215 281h136z" />
    <glyph glyph-name="Ccaron" unicode="&#x10c;" horiz-adv-x="1405" 
d="M411.5 69q-143.5 89 -222.5 251.5t-79 377.5q0 214 79 376t222.5 251t332.5 89q203 0 352 -101t217 -280l-123 -45q-54 143 -170 222t-276 79q-153 0 -266.5 -72.5t-175 -206t-61.5 -312.5q0 -180 61.5 -314t175 -206.5t266.5 -72.5q160 0 276 79t170 222l123 -45
q-68 -179 -217 -280t-352 -101q-189 0 -332.5 89zM1022 1802l-296 -303l-296 303h104l192 -195l193 195h103z" />
    <glyph glyph-name="Ccedilla" unicode="&#xc7;" horiz-adv-x="1405" 
d="M1020 184q116 79 170 222l123 -45q-67 -177 -213.5 -277.5t-345.5 -103.5l-71 -114q89 -15 145 -56.5t56 -125.5q0 -58 -25.5 -101.5t-72.5 -68t-109 -24.5q-51 0 -101 25.5t-76 71.5l47 60q19 -36 54.5 -58.5t76.5 -22.5q60 0 93 29.5t33 85.5q0 76 -64.5 101.5
t-162.5 29.5l98 171q-170 16 -298 108.5t-197.5 249t-69.5 357.5q0 214 79 376t222.5 251t332.5 89q203 0 352 -101t217 -280l-123 -45q-54 143 -170 222t-276 79q-153 0 -266.5 -72.5t-175 -206t-61.5 -312.5q0 -180 61.5 -314t175 -206.5t266.5 -72.5q160 0 276 79z" />
    <glyph glyph-name="Ccircumflex" unicode="&#x108;" horiz-adv-x="1405" 
d="M411.5 69q-143.5 89 -222.5 251.5t-79 377.5q0 214 79 376t222.5 251t332.5 89q203 0 352 -101t217 -280l-123 -45q-54 143 -170 222t-276 79q-153 0 -266.5 -72.5t-175 -206t-61.5 -312.5q0 -180 61.5 -314t175 -206.5t266.5 -72.5q160 0 276 79t170 222l123 -45
q-68 -179 -217 -280t-352 -101q-189 0 -332.5 89zM539 1507h-110l297 312l297 -312h-110l-187 200z" />
    <glyph glyph-name="Cdotaccent" unicode="&#x10a;" horiz-adv-x="1405" 
d="M411.5 69q-143.5 89 -222.5 251.5t-79 377.5q0 214 79 376t222.5 251t332.5 89q203 0 352 -101t217 -280l-123 -45q-54 143 -170 222t-276 79q-153 0 -266.5 -72.5t-175 -206t-61.5 -312.5q0 -180 61.5 -314t175 -206.5t266.5 -72.5q160 0 276 79t170 222l123 -45
q-68 -179 -217 -280t-352 -101q-189 0 -332.5 89zM793 1586h-135v216h135v-216z" />
    <glyph glyph-name="D" unicode="D" horiz-adv-x="1367" 
d="M170 0v1394h375q225 0 385 -83t243.5 -242t83.5 -383q0 -221 -82.5 -374.5t-242 -232.5t-389.5 -79h-373zM531 121q292 0 442.5 139t150.5 431t-150 437.5t-431 145.5h-243v-1153h231z" />
    <glyph glyph-name="Eth" unicode="&#xd0;" horiz-adv-x="1367" 
d="M545 1394q225 0 385 -83t243.5 -242t83.5 -383q0 -221 -82.5 -374.5t-242 -232.5t-389.5 -79h-373v654h-148v88h148v652h375zM531 121q292 0 442.5 139t150.5 431t-150 437.5t-431 145.5h-243v-532h249v-88h-249v-533h231z" />
    <glyph glyph-name="Dcaron" unicode="&#x10e;" horiz-adv-x="1367" 
d="M170 0v1394h375q225 0 385 -83t243.5 -242t83.5 -383q0 -221 -82.5 -374.5t-242 -232.5t-389.5 -79h-373zM531 121q292 0 442.5 139t150.5 431t-150 437.5t-431 145.5h-243v-1153h231zM963 1802l-296 -303l-296 303h104l192 -195l193 195h103z" />
    <glyph glyph-name="Dcroat" unicode="&#x110;" horiz-adv-x="1367" 
d="M545 1394q225 0 385 -83t243.5 -242t83.5 -383q0 -221 -82.5 -374.5t-242 -232.5t-389.5 -79h-373v654h-148v88h148v652h375zM531 121q292 0 442.5 139t150.5 431t-150 437.5t-431 145.5h-243v-532h249v-88h-249v-533h231z" />
    <glyph glyph-name="E" unicode="E" horiz-adv-x="1167" 
d="M1081 0h-911v1394h911v-117h-781v-510h701v-118h-701v-531h781v-118z" />
    <glyph glyph-name="Eacute" unicode="&#xc9;" horiz-adv-x="1167" 
d="M1081 0h-911v1394h911v-117h-781v-510h701v-118h-701v-531h781v-118zM674 1521h-97l215 281h136z" />
    <glyph glyph-name="Ebreve" unicode="&#x114;" horiz-adv-x="1167" 
d="M1081 0h-911v1394h911v-117h-781v-510h701v-118h-701v-531h781v-118zM401.5 1548.5q-75.5 66.5 -75.5 193.5h92q0 -89 55 -136t153 -47q99 0 154 47.5t55 135.5h92q0 -129 -76.5 -194.5t-224.5 -65.5q-149 0 -224.5 66.5z" />
    <glyph glyph-name="Ecaron" unicode="&#x11a;" horiz-adv-x="1167" 
d="M1081 0h-911v1394h911v-117h-781v-510h701v-118h-701v-531h781v-118zM922 1802l-296 -303l-296 303h104l192 -195l193 195h103z" />
    <glyph glyph-name="Ecircumflex" unicode="&#xca;" horiz-adv-x="1167" 
d="M1081 0h-911v1394h911v-117h-781v-510h701v-118h-701v-531h781v-118zM439 1507h-110l297 312l297 -312h-110l-187 200z" />
    <glyph glyph-name="uni1EBE" unicode="&#x1ebe;" horiz-adv-x="1167" 
d="M1081 0h-911v1394h911v-117h-781v-510h701v-118h-701v-531h781v-118zM867 1688h-82l150 272h107zM437 1491h-108l297 282l297 -282h-108l-189 184z" />
    <glyph glyph-name="uni1EC6" unicode="&#x1ec6;" horiz-adv-x="1167" 
d="M1081 0h-911v1394h911v-117h-781v-510h701v-118h-701v-531h781v-118zM693 -347h-135v201h135v-201zM436 1507h-107l297 312l297 -312h-107l-190 200z" />
    <glyph glyph-name="uni1EC0" unicode="&#x1ec0;" horiz-adv-x="1167" 
d="M1081 0h-911v1394h911v-117h-781v-510h701v-118h-701v-531h781v-118zM972 1688h-81l-175 272h106zM439 1491h-110l297 282l297 -282h-110l-187 184z" />
    <glyph glyph-name="uni1EC2" unicode="&#x1ec2;" horiz-adv-x="1167" 
d="M1081 0h-911v1394h911v-117h-781v-510h701v-118h-701v-531h781v-118zM794 1712q73 12 112.5 35t39.5 71q0 54 -54 81.5t-130 27.5h-30v71h30q119 0 190 -46.5t71 -126.5q0 -55 -28 -87.5t-73 -48.5t-112 -28zM439 1491h-110l297 282l297 -282h-110l-187 184z" />
    <glyph glyph-name="uni1EC4" unicode="&#x1ec4;" horiz-adv-x="1167" 
d="M1081 0h-911v1394h911v-117h-781v-510h701v-118h-701v-531h781v-118zM670 1833q-32 13 -70 38q-31 20 -52.5 29.5t-48.5 9.5q-71 0 -94 -78l-74 5q11 64 53.5 104.5t114.5 40.5q47 0 79 -12.5t69 -35.5q32 -19 53.5 -28t48.5 -9q37 0 60 17.5t34 55.5l77 -5
q-11 -66 -53 -105.5t-118 -39.5q-47 0 -79 13zM437 1491h-108l297 282l297 -282h-107l-190 184z" />
    <glyph glyph-name="Edieresis" unicode="&#xcb;" horiz-adv-x="1167" 
d="M1081 0h-911v1394h911v-117h-781v-510h701v-118h-701v-531h781v-118zM514 1586h-135v216h135v-216zM872 1586h-135v216h135v-216z" />
    <glyph glyph-name="Edotaccent" unicode="&#x116;" horiz-adv-x="1167" 
d="M1081 0h-911v1394h911v-117h-781v-510h701v-118h-701v-531h781v-118zM693 1586h-135v216h135v-216z" />
    <glyph glyph-name="uni1EB8" unicode="&#x1eb8;" horiz-adv-x="1167" 
d="M1081 0h-911v1394h911v-117h-781v-510h701v-118h-701v-531h781v-118zM693 -347h-135v201h135v-201z" />
    <glyph glyph-name="Egrave" unicode="&#xc8;" horiz-adv-x="1167" 
d="M1081 0h-911v1394h911v-117h-781v-510h701v-118h-701v-531h781v-118zM675 1521h-98l-245 281h135z" />
    <glyph glyph-name="uni1EBA" unicode="&#x1eba;" horiz-adv-x="1167" 
d="M1081 0h-911v1394h911v-117h-781v-510h701v-118h-701v-531h781v-118zM586 1511q75 14 118 36t43 71q0 55 -55 82t-139 27h-31v76h31q83 0 148.5 -21.5t103 -61.5t37.5 -95t-36 -88.5t-88 -49.5t-122 -27z" />
    <glyph glyph-name="Emacron" unicode="&#x112;" horiz-adv-x="1167" 
d="M1081 0h-911v1394h911v-117h-781v-510h701v-118h-701v-531h781v-118zM896 1614h-540v78h540v-78z" />
    <glyph glyph-name="Eogonek" unicode="&#x118;" horiz-adv-x="1167" 
d="M1159 -339q-81 -86 -183 -86q-77 0 -127 43.5t-50 118.5q0 80 50 148t123 115h-802v1394h911v-117h-781v-510h701v-118h-701v-531h781v-118q-84 -47 -143.5 -113.5t-59.5 -137.5q0 -47 26.5 -70t67.5 -23q66 0 124 55z" />
    <glyph glyph-name="uni1EBC" unicode="&#x1ebc;" horiz-adv-x="1167" 
d="M1081 0h-911v1394h911v-117h-781v-510h701v-118h-701v-531h781v-118zM692 1502q-30 15 -49.5 36.5t-44.5 56.5q-29 42 -51.5 62t-57.5 20q-48 0 -75 -44.5t-27 -125.5h-77q0 114 49 178.5t135 64.5q37 0 65 -14.5t47 -35t43 -54.5q32 -44 56 -65t61 -21q41 0 68 49.5
t27 132.5h80q0 -78 -22 -135.5t-62 -88.5t-93 -31q-42 0 -72 15z" />
    <glyph glyph-name="F" unicode="F" horiz-adv-x="1128" 
d="M300 0h-130v1394h902v-117h-772v-510h672v-118h-672v-649z" />
    <glyph glyph-name="G" unicode="G" horiz-adv-x="1455" 
d="M840 599v118h473v-717h-116l-13 234q-59 -129 -179 -191.5t-269 -62.5q-185 0 -327 89t-220.5 252t-78.5 377t79 376t222.5 251t332.5 89q203 0 352 -101t217 -280l-123 -45q-54 143 -170 222t-276 79q-153 0 -266.5 -72.5t-175 -206t-61.5 -312.5q0 -180 61.5 -314
t175 -206.5t266.5 -72.5q116 0 217.5 42.5t168 147t66.5 278.5v26h-356z" />
    <glyph glyph-name="Gbreve" unicode="&#x11e;" horiz-adv-x="1455" 
d="M840 599v118h473v-717h-116l-13 234q-59 -129 -179 -191.5t-269 -62.5q-185 0 -327 89t-220.5 252t-78.5 377t79 376t222.5 251t332.5 89q203 0 352 -101t217 -280l-123 -45q-54 143 -170 222t-276 79q-153 0 -266.5 -72.5t-175 -206t-61.5 -312.5q0 -180 61.5 -314
t175 -206.5t266.5 -72.5q116 0 217.5 42.5t168 147t66.5 278.5v26h-356zM519.5 1548.5q-75.5 66.5 -75.5 193.5h92q0 -89 55 -136t153 -47q99 0 154 47.5t55 135.5h92q0 -129 -76.5 -194.5t-224.5 -65.5q-149 0 -224.5 66.5z" />
    <glyph glyph-name="Gcaron" unicode="&#x1e6;" horiz-adv-x="1455" 
d="M840 599v118h473v-717h-116l-13 234q-59 -129 -179 -191.5t-269 -62.5q-185 0 -327 89t-220.5 252t-78.5 377t79 376t222.5 251t332.5 89q203 0 352 -101t217 -280l-123 -45q-54 143 -170 222t-276 79q-153 0 -266.5 -72.5t-175 -206t-61.5 -312.5q0 -180 61.5 -314
t175 -206.5t266.5 -72.5q116 0 217.5 42.5t168 147t66.5 278.5v26h-356zM1040 1802l-296 -303l-296 303h104l192 -195l193 195h103z" />
    <glyph glyph-name="Gcircumflex" unicode="&#x11c;" horiz-adv-x="1455" 
d="M840 599v118h473v-717h-116l-13 234q-59 -129 -179 -191.5t-269 -62.5q-185 0 -327 89t-220.5 252t-78.5 377t79 376t222.5 251t332.5 89q203 0 352 -101t217 -280l-123 -45q-54 143 -170 222t-276 79q-153 0 -266.5 -72.5t-175 -206t-61.5 -312.5q0 -180 61.5 -314
t175 -206.5t266.5 -72.5q116 0 217.5 42.5t168 147t66.5 278.5v26h-356zM554 1507h-107l297 312l297 -312h-107l-190 200z" />
    <glyph glyph-name="uni0122" unicode="&#x122;" horiz-adv-x="1455" 
d="M840 599v118h473v-717h-116l-13 234q-59 -129 -179 -191.5t-269 -62.5q-185 0 -327 89t-220.5 252t-78.5 377t79 376t222.5 251t332.5 89q203 0 352 -101t217 -280l-123 -45q-54 143 -170 222t-276 79q-153 0 -266.5 -72.5t-175 -206t-61.5 -312.5q0 -180 61.5 -314
t175 -206.5t266.5 -72.5q116 0 217.5 42.5t168 147t66.5 278.5v26h-356zM576 -441h-82l182 329h134z" />
    <glyph glyph-name="Gdotaccent" unicode="&#x120;" horiz-adv-x="1455" 
d="M840 599v118h473v-717h-116l-13 234q-59 -129 -179 -191.5t-269 -62.5q-185 0 -327 89t-220.5 252t-78.5 377t79 376t222.5 251t332.5 89q203 0 352 -101t217 -280l-123 -45q-54 143 -170 222t-276 79q-153 0 -266.5 -72.5t-175 -206t-61.5 -312.5q0 -180 61.5 -314
t175 -206.5t266.5 -72.5q116 0 217.5 42.5t168 147t66.5 278.5v26h-356zM811 1586h-135v216h135v-216z" />
    <glyph glyph-name="H" unicode="H" horiz-adv-x="1338" 
d="M300 0h-130v1394h130v-622h737v622h131v-1394h-131v650h-737v-650z" />
    <glyph glyph-name="Hbar" unicode="&#x126;" horiz-adv-x="1338" 
d="M1168 1129h136v-79h-136v-1050h-131v650h-737v-650h-130v1050h-133v79h133v265h130v-265h737v265h131v-265zM300 772h737v278h-737v-278z" />
    <glyph glyph-name="Hcircumflex" unicode="&#x124;" horiz-adv-x="1338" 
d="M300 0h-130v1394h130v-622h737v622h131v-1394h-131v650h-737v-650zM480 1507h-107l297 312l297 -312h-107l-190 200z" />
    <glyph glyph-name="I" unicode="I" horiz-adv-x="470" 
d="M300 0h-130v1394h130v-1394z" />
    <glyph glyph-name="IJ" unicode="&#x132;" horiz-adv-x="1567" 
d="M300 0h-130v1394h130v-1394zM751 31q-97 51 -154 147t-66 228l129 13q10 -154 92 -235.5t223 -81.5q306 0 306 405v770h-568v117h699v-894q0 -165 -51.5 -282t-149.5 -177.5t-236 -60.5q-127 0 -224 51z" />
    <glyph glyph-name="Iacute" unicode="&#xcd;" horiz-adv-x="470" 
d="M300 0h-130v1394h130v-1394zM284 1521h-97l215 281h136z" />
    <glyph glyph-name="Ibreve" unicode="&#x12c;" horiz-adv-x="470" 
d="M300 0h-130v1394h130v-1394zM11.5 1548.5q-75.5 66.5 -75.5 193.5h92q0 -89 55 -136t153 -47q99 0 154 47.5t55 135.5h92q0 -129 -76.5 -194.5t-224.5 -65.5q-149 0 -224.5 66.5z" />
    <glyph glyph-name="uni01CF" unicode="&#x1cf;" horiz-adv-x="470" 
d="M300 0h-130v1394h130v-1394zM532 1802l-296 -303l-296 303h104l192 -195l193 195h103z" />
    <glyph glyph-name="Icircumflex" unicode="&#xce;" horiz-adv-x="470" 
d="M300 0h-130v1394h130v-1394zM46 1507h-107l297 312l297 -312h-107l-190 200z" />
    <glyph glyph-name="Idieresis" unicode="&#xcf;" horiz-adv-x="470" 
d="M300 0h-130v1394h130v-1394zM124 1586h-135v216h135v-216zM482 1586h-135v216h135v-216z" />
    <glyph glyph-name="Idotaccent" unicode="&#x130;" horiz-adv-x="470" 
d="M300 0h-130v1394h130v-1394zM303 1586h-135v216h135v-216z" />
    <glyph glyph-name="uni1ECA" unicode="&#x1eca;" horiz-adv-x="470" 
d="M300 0h-130v1394h130v-1394zM303 -347h-135v201h135v-201z" />
    <glyph glyph-name="Igrave" unicode="&#xcc;" horiz-adv-x="470" 
d="M300 0h-130v1394h130v-1394zM285 1521h-98l-245 281h135z" />
    <glyph glyph-name="uni1EC8" unicode="&#x1ec8;" horiz-adv-x="470" 
d="M300 0h-130v1394h130v-1394zM196 1511q75 14 118 36t43 71q0 55 -55 82t-139 27h-31v76h31q83 0 148.5 -21.5t103 -61.5t37.5 -95t-36 -88.5t-88 -49.5t-122 -27z" />
    <glyph glyph-name="Imacron" unicode="&#x12a;" horiz-adv-x="470" 
d="M300 0h-130v1394h130v-1394zM506 1614h-540v78h540v-78z" />
    <glyph glyph-name="Iogonek" unicode="&#x12e;" horiz-adv-x="470" 
d="M378 -339q-81 -86 -183 -86q-77 0 -127 43.5t-50 118.5q0 80 50 148t123 115h-21v1394h130v-1394q-84 -47 -143.5 -113.5t-59.5 -137.5q0 -47 26.5 -70t67.5 -23q66 0 124 55z" />
    <glyph glyph-name="Itilde" unicode="&#x128;" horiz-adv-x="470" 
d="M300 0h-130v1394h130v-1394zM302 1502q-30 15 -49.5 36.5t-44.5 56.5q-29 42 -51.5 62t-57.5 20q-48 0 -75 -44.5t-27 -125.5h-77q0 114 49 178.5t135 64.5q37 0 65 -14.5t47 -35t43 -54.5q32 -44 56 -65t61 -21q41 0 68 49.5t27 132.5h80q0 -78 -22 -135.5t-62 -88.5
t-93 -31q-42 0 -72 15z" />
    <glyph glyph-name="J" unicode="J" horiz-adv-x="1097" 
d="M281 31q-97 51 -154 147t-66 228l129 13q10 -154 92 -235.5t223 -81.5q306 0 306 405v770h-568v117h699v-894q0 -165 -51.5 -282t-149.5 -177.5t-236 -60.5q-127 0 -224 51z" />
    <glyph glyph-name="uni004A0301" horiz-adv-x="1097" 
d="M281 31q-97 51 -154 147t-66 228l129 13q10 -154 92 -235.5t223 -81.5q306 0 306 405v770h-568v117h699v-894q0 -165 -51.5 -282t-149.5 -177.5t-236 -60.5q-127 0 -224 51zM641 1521h-97l215 281h136z" />
    <glyph glyph-name="Jcircumflex" unicode="&#x134;" horiz-adv-x="1097" 
d="M281 31q-97 51 -154 147t-66 228l129 13q10 -154 92 -235.5t223 -81.5q306 0 306 405v770h-568v117h699v-894q0 -165 -51.5 -282t-149.5 -177.5t-236 -60.5q-127 0 -224 51zM403 1507h-107l297 312l297 -312h-107l-190 200z" />
    <glyph glyph-name="K" unicode="K" horiz-adv-x="1236" 
d="M1190 0h-155l-475 753l-260 -266v-487h-130v1394h130v-740l709 740h176l-532 -545z" />
    <glyph glyph-name="uni0136" unicode="&#x136;" horiz-adv-x="1236" 
d="M1190 0h-155l-475 753l-260 -266v-487h-130v1394h130v-740l709 740h176l-532 -545zM451 -441h-82l182 329h134z" />
    <glyph glyph-name="L" unicode="L" horiz-adv-x="972" 
d="M940 0h-770v1394h130v-1276h640v-118z" />
    <glyph glyph-name="Lacute" unicode="&#x139;" horiz-adv-x="972" 
d="M940 0h-770v1394h130v-1276h640v-118zM284 1521h-97l215 281h136z" />
    <glyph glyph-name="Lcaron" unicode="&#x13d;" horiz-adv-x="972" 
d="M940 0h-770v1394h130v-1276h640v-118zM761 981h-79l116 413h132z" />
    <glyph glyph-name="uni013B" unicode="&#x13b;" horiz-adv-x="972" 
d="M940 0h-770v1394h130v-1276h640v-118zM387 -441h-82l182 329h134z" />
    <glyph glyph-name="Ldot" unicode="&#x13f;" horiz-adv-x="1043" 
d="M940 0h-770v1394h130v-1276h640v-118zM952 589h-180v215h180v-215z" />
    <glyph glyph-name="Lslash" unicode="&#x141;" horiz-adv-x="972" 
d="M300 627v-509h640v-118h-770v524l-133 -105l-1 131l134 106v738h130v-636l324 256v-131z" />
    <glyph glyph-name="M" unicode="M" horiz-adv-x="1656" 
d="M829 273l463 1121h194v-1394h-130v1220l-464 -1105h-128l-464 1107v-1222h-130v1394h194z" />
    <glyph glyph-name="N" unicode="N" horiz-adv-x="1334" 
d="M1034 211v1183h130v-1394h-145l-719 1184v-1184h-130v1394h143z" />
    <glyph glyph-name="Nacute" unicode="&#x143;" horiz-adv-x="1334" 
d="M1034 211v1183h130v-1394h-145l-719 1184v-1184h-130v1394h143zM705 1521h-97l215 281h136z" />
    <glyph glyph-name="Ncaron" unicode="&#x147;" horiz-adv-x="1334" 
d="M1034 211v1183h130v-1394h-145l-719 1184v-1184h-130v1394h143zM953 1802l-296 -303l-296 303h104l192 -195l193 195h103z" />
    <glyph glyph-name="uni0145" unicode="&#x145;" horiz-adv-x="1334" 
d="M1034 211v1183h130v-1394h-145l-719 1184v-1184h-130v1394h143zM489 -441h-82l182 329h134z" />
    <glyph glyph-name="uni1E44" unicode="&#x1e44;" horiz-adv-x="1334" 
d="M1034 211v1183h130v-1394h-145l-719 1184v-1184h-130v1394h143zM724 1586h-135v216h135v-216z" />
    <glyph glyph-name="Eng" unicode="&#x14a;" horiz-adv-x="1334" 
d="M1034 1394h130v-1423q0 -140 -70.5 -225t-216.5 -85q-30 0 -69 6t-75 16l5 87q25 -9 55 -14t52 -5q98 0 146 50t48 126q0 40 -20 73l-719 1176v-1176h-130v1394h143l721 -1176v1176z" />
    <glyph glyph-name="uni019D" unicode="&#x19d;" horiz-adv-x="1334" 
d="M1034 1394h130v-1394h-145l-719 1176v-1231q0 -129 -78 -206.5t-238 -77.5v90q97 0 141.5 52.5t44.5 129.5v67v1394h143l721 -1176v1176z" />
    <glyph glyph-name="Ntilde" unicode="&#xd1;" horiz-adv-x="1334" 
d="M1034 211v1183h130v-1394h-145l-719 1184v-1184h-130v1394h143zM723 1502q-30 15 -49.5 36.5t-44.5 56.5q-29 42 -51.5 62t-57.5 20q-48 0 -75 -44.5t-27 -125.5h-77q0 114 49 178.5t135 64.5q37 0 65 -14.5t47 -35t43 -54.5q32 -44 56 -65t61 -21q41 0 68 49.5t27 132.5
h80q0 -78 -22 -135.5t-62 -88.5t-93 -31q-42 0 -72 15z" />
    <glyph glyph-name="O" unicode="O" horiz-adv-x="1490" 
d="M411.5 69q-143.5 89 -222.5 251t-79 376q0 215 79 377.5t222.5 251.5t332.5 89q190 0 334 -89t223 -252t79 -377t-79 -376t-223.5 -251t-333.5 -89t-332.5 89zM1011 177q114 72 176 206t62 313q0 180 -61.5 314t-176 206.5t-267.5 72.5t-266.5 -72t-175 -206t-61.5 -315
q0 -180 61.5 -313.5t175 -205.5t266.5 -72t267 72z" />
    <glyph glyph-name="Oacute" unicode="&#xd3;" horiz-adv-x="1490" 
d="M411.5 69q-143.5 89 -222.5 251t-79 376q0 215 79 377.5t222.5 251.5t332.5 89q190 0 334 -89t223 -252t79 -377t-79 -376t-223.5 -251t-333.5 -89t-332.5 89zM1011 177q114 72 176 206t62 313q0 180 -61.5 314t-176 206.5t-267.5 72.5t-266.5 -72t-175 -206t-61.5 -315
q0 -180 61.5 -313.5t175 -205.5t266.5 -72t267 72zM793 1521h-97l215 281h136z" />
    <glyph glyph-name="Obreve" unicode="&#x14e;" horiz-adv-x="1490" 
d="M411.5 69q-143.5 89 -222.5 251t-79 376q0 215 79 377.5t222.5 251.5t332.5 89q190 0 334 -89t223 -252t79 -377t-79 -376t-223.5 -251t-333.5 -89t-332.5 89zM1011 177q114 72 176 206t62 313q0 180 -61.5 314t-176 206.5t-267.5 72.5t-266.5 -72t-175 -206t-61.5 -315
q0 -180 61.5 -313.5t175 -205.5t266.5 -72t267 72zM520.5 1548.5q-75.5 66.5 -75.5 193.5h92q0 -89 55 -136t153 -47q99 0 154 47.5t55 135.5h92q0 -129 -76.5 -194.5t-224.5 -65.5q-149 0 -224.5 66.5z" />
    <glyph glyph-name="uni01D1" unicode="&#x1d1;" horiz-adv-x="1490" 
d="M411.5 69q-143.5 89 -222.5 251t-79 376q0 215 79 377.5t222.5 251.5t332.5 89q190 0 334 -89t223 -252t79 -377t-79 -376t-223.5 -251t-333.5 -89t-332.5 89zM1011 177q114 72 176 206t62 313q0 180 -61.5 314t-176 206.5t-267.5 72.5t-266.5 -72t-175 -206t-61.5 -315
q0 -180 61.5 -313.5t175 -205.5t266.5 -72t267 72zM1041 1802l-296 -303l-296 303h104l192 -195l193 195h103z" />
    <glyph glyph-name="Ocircumflex" unicode="&#xd4;" horiz-adv-x="1490" 
d="M411.5 69q-143.5 89 -222.5 251t-79 376q0 215 79 377.5t222.5 251.5t332.5 89q190 0 334 -89t223 -252t79 -377t-79 -376t-223.5 -251t-333.5 -89t-332.5 89zM1011 177q114 72 176 206t62 313q0 180 -61.5 314t-176 206.5t-267.5 72.5t-266.5 -72t-175 -206t-61.5 -315
q0 -180 61.5 -313.5t175 -205.5t266.5 -72t267 72zM558 1507h-110l297 312l297 -312h-110l-187 200z" />
    <glyph glyph-name="uni1ED0" unicode="&#x1ed0;" horiz-adv-x="1490" 
d="M411.5 69q-143.5 89 -222.5 251t-79 376q0 215 79 377.5t222.5 251.5t332.5 89q190 0 334 -89t223 -252t79 -377t-79 -376t-223.5 -251t-333.5 -89t-332.5 89zM1011 177q114 72 176 206t62 313q0 180 -61.5 314t-176 206.5t-267.5 72.5t-266.5 -72t-175 -206t-61.5 -315
q0 -180 61.5 -313.5t175 -205.5t266.5 -72t267 72zM986 1688h-82l150 272h107zM556 1491h-108l297 282l297 -282h-108l-189 184z" />
    <glyph glyph-name="uni1ED8" unicode="&#x1ed8;" horiz-adv-x="1490" 
d="M411.5 69q-143.5 89 -222.5 251t-79 376q0 215 79 377.5t222.5 251.5t332.5 89q190 0 334 -89t223 -252t79 -377t-79 -376t-223.5 -251t-333.5 -89t-332.5 89zM1011 177q114 72 176 206t62 313q0 180 -61.5 314t-176 206.5t-267.5 72.5t-266.5 -72t-175 -206t-61.5 -315
q0 -180 61.5 -313.5t175 -205.5t266.5 -72t267 72zM813 -347h-135v201h135v-201zM558 1507h-110l297 312l297 -312h-110l-187 200z" />
    <glyph glyph-name="uni1ED2" unicode="&#x1ed2;" horiz-adv-x="1490" 
d="M411.5 69q-143.5 89 -222.5 251t-79 376q0 215 79 377.5t222.5 251.5t332.5 89q190 0 334 -89t223 -252t79 -377t-79 -376t-223.5 -251t-333.5 -89t-332.5 89zM1011 177q114 72 176 206t62 313q0 180 -61.5 314t-176 206.5t-267.5 72.5t-266.5 -72t-175 -206t-61.5 -315
q0 -180 61.5 -313.5t175 -205.5t266.5 -72t267 72zM1091 1688h-81l-175 272h106zM558 1491h-110l297 282l297 -282h-110l-187 184z" />
    <glyph glyph-name="uni1ED4" unicode="&#x1ed4;" horiz-adv-x="1490" 
d="M411.5 69q-143.5 89 -222.5 251t-79 376q0 215 79 377.5t222.5 251.5t332.5 89q190 0 334 -89t223 -252t79 -377t-79 -376t-223.5 -251t-333.5 -89t-332.5 89zM1011 177q114 72 176 206t62 313q0 180 -61.5 314t-176 206.5t-267.5 72.5t-266.5 -72t-175 -206t-61.5 -315
q0 -180 61.5 -313.5t175 -205.5t266.5 -72t267 72zM913 1712q73 12 112.5 35t39.5 71q0 54 -54 81.5t-130 27.5h-30v71h30q119 0 190 -46.5t71 -126.5q0 -55 -28 -87.5t-73 -48.5t-112 -28zM558 1491h-110l297 282l297 -282h-110l-187 184z" />
    <glyph glyph-name="uni1ED6" unicode="&#x1ed6;" horiz-adv-x="1490" 
d="M411.5 69q-143.5 89 -222.5 251t-79 376q0 215 79 377.5t222.5 251.5t332.5 89q190 0 334 -89t223 -252t79 -377t-79 -376t-223.5 -251t-333.5 -89t-332.5 89zM1011 177q114 72 176 206t62 313q0 180 -61.5 314t-176 206.5t-267.5 72.5t-266.5 -72t-175 -206t-61.5 -315
q0 -180 61.5 -313.5t175 -205.5t266.5 -72t267 72zM789 1833q-32 13 -70 38q-31 20 -52.5 29.5t-48.5 9.5q-71 0 -94 -78l-74 5q11 64 53.5 104.5t114.5 40.5q47 0 79 -12.5t69 -35.5q32 -19 53.5 -28t48.5 -9q37 0 60 17.5t34 55.5l77 -5q-11 -66 -53 -105.5t-118 -39.5
q-47 0 -79 13zM556 1491h-108l297 282l297 -282h-107l-190 184z" />
    <glyph glyph-name="Odieresis" unicode="&#xd6;" horiz-adv-x="1490" 
d="M411.5 69q-143.5 89 -222.5 251t-79 376q0 215 79 377.5t222.5 251.5t332.5 89q190 0 334 -89t223 -252t79 -377t-79 -376t-223.5 -251t-333.5 -89t-332.5 89zM1011 177q114 72 176 206t62 313q0 180 -61.5 314t-176 206.5t-267.5 72.5t-266.5 -72t-175 -206t-61.5 -315
q0 -180 61.5 -313.5t175 -205.5t266.5 -72t267 72zM633 1586h-135v216h135v-216zM991 1586h-135v216h135v-216z" />
    <glyph glyph-name="uni1ECC" unicode="&#x1ecc;" horiz-adv-x="1490" 
d="M411.5 69q-143.5 89 -222.5 251t-79 376q0 215 79 377.5t222.5 251.5t332.5 89q190 0 334 -89t223 -252t79 -377t-79 -376t-223.5 -251t-333.5 -89t-332.5 89zM1011 177q114 72 176 206t62 313q0 180 -61.5 314t-176 206.5t-267.5 72.5t-266.5 -72t-175 -206t-61.5 -315
q0 -180 61.5 -313.5t175 -205.5t266.5 -72t267 72zM813 -347h-135v201h135v-201z" />
    <glyph glyph-name="Ograve" unicode="&#xd2;" horiz-adv-x="1490" 
d="M411.5 69q-143.5 89 -222.5 251t-79 376q0 215 79 377.5t222.5 251.5t332.5 89q190 0 334 -89t223 -252t79 -377t-79 -376t-223.5 -251t-333.5 -89t-332.5 89zM1011 177q114 72 176 206t62 313q0 180 -61.5 314t-176 206.5t-267.5 72.5t-266.5 -72t-175 -206t-61.5 -315
q0 -180 61.5 -313.5t175 -205.5t266.5 -72t267 72zM794 1521h-98l-245 281h135z" />
    <glyph glyph-name="uni1ECE" unicode="&#x1ece;" horiz-adv-x="1490" 
d="M411.5 69q-143.5 89 -222.5 251t-79 376q0 215 79 377.5t222.5 251.5t332.5 89q190 0 334 -89t223 -252t79 -377t-79 -376t-223.5 -251t-333.5 -89t-332.5 89zM1011 177q114 72 176 206t62 313q0 180 -61.5 314t-176 206.5t-267.5 72.5t-266.5 -72t-175 -206t-61.5 -315
q0 -180 61.5 -313.5t175 -205.5t266.5 -72t267 72zM705 1511q75 14 118 36t43 71q0 55 -55 82t-139 27h-31v76h31q83 0 148.5 -21.5t103 -61.5t37.5 -95t-36 -88.5t-88 -49.5t-122 -27z" />
    <glyph glyph-name="Ohorn" unicode="&#x1a0;" horiz-adv-x="1490" 
d="M1435 1394h91v-98q0 -121 -48.5 -197t-147.5 -97q50 -136 50 -306q0 -214 -79 -376t-223.5 -251t-333.5 -89t-332.5 89t-222.5 251t-79 376q0 215 79 377.5t222.5 251.5t332.5 89q187 0 329.5 -86.5t222.5 -243.5q72 11 105.5 65t33.5 154v91zM1011 177q114 72 176 206
t62 313q0 180 -61.5 314t-176 206.5t-267.5 72.5t-266.5 -72t-175 -206t-61.5 -315q0 -180 61.5 -313.5t175 -205.5t266.5 -72t267 72z" />
    <glyph glyph-name="uni1EDA" unicode="&#x1eda;" horiz-adv-x="1490" 
d="M1435 1394h91v-98q0 -121 -48.5 -197t-147.5 -97q50 -136 50 -306q0 -214 -79 -376t-223.5 -251t-333.5 -89t-332.5 89t-222.5 251t-79 376q0 215 79 377.5t222.5 251.5t332.5 89q187 0 329.5 -86.5t222.5 -243.5q72 11 105.5 65t33.5 154v91zM1011 177q114 72 176 206
t62 313q0 180 -61.5 314t-176 206.5t-267.5 72.5t-266.5 -72t-175 -206t-61.5 -315q0 -180 61.5 -313.5t175 -205.5t266.5 -72t267 72zM793 1521h-97l215 281h136z" />
    <glyph glyph-name="uni1EE2" unicode="&#x1ee2;" horiz-adv-x="1490" 
d="M1435 1394h91v-98q0 -121 -48.5 -197t-147.5 -97q50 -136 50 -306q0 -214 -79 -376t-223.5 -251t-333.5 -89t-332.5 89t-222.5 251t-79 376q0 215 79 377.5t222.5 251.5t332.5 89q187 0 329.5 -86.5t222.5 -243.5q72 11 105.5 65t33.5 154v91zM1011 177q114 72 176 206
t62 313q0 180 -61.5 314t-176 206.5t-267.5 72.5t-266.5 -72t-175 -206t-61.5 -315q0 -180 61.5 -313.5t175 -205.5t266.5 -72t267 72zM813 -347h-135v201h135v-201z" />
    <glyph glyph-name="uni1EDC" unicode="&#x1edc;" horiz-adv-x="1490" 
d="M1435 1394h91v-98q0 -121 -48.5 -197t-147.5 -97q50 -136 50 -306q0 -214 -79 -376t-223.5 -251t-333.5 -89t-332.5 89t-222.5 251t-79 376q0 215 79 377.5t222.5 251.5t332.5 89q187 0 329.5 -86.5t222.5 -243.5q72 11 105.5 65t33.5 154v91zM1011 177q114 72 176 206
t62 313q0 180 -61.5 314t-176 206.5t-267.5 72.5t-266.5 -72t-175 -206t-61.5 -315q0 -180 61.5 -313.5t175 -205.5t266.5 -72t267 72zM794 1521h-98l-245 281h135z" />
    <glyph glyph-name="uni1EDE" unicode="&#x1ede;" horiz-adv-x="1490" 
d="M1435 1394h91v-98q0 -121 -48.5 -197t-147.5 -97q50 -136 50 -306q0 -214 -79 -376t-223.5 -251t-333.5 -89t-332.5 89t-222.5 251t-79 376q0 215 79 377.5t222.5 251.5t332.5 89q187 0 329.5 -86.5t222.5 -243.5q72 11 105.5 65t33.5 154v91zM1011 177q114 72 176 206
t62 313q0 180 -61.5 314t-176 206.5t-267.5 72.5t-266.5 -72t-175 -206t-61.5 -315q0 -180 61.5 -313.5t175 -205.5t266.5 -72t267 72zM705 1511q75 14 118 36t43 71q0 55 -55 82t-139 27h-31v76h31q83 0 148.5 -21.5t103 -61.5t37.5 -95t-36 -88.5t-88 -49.5t-122 -27z" />
    <glyph glyph-name="uni1EE0" unicode="&#x1ee0;" horiz-adv-x="1490" 
d="M1435 1394h91v-98q0 -121 -48.5 -197t-147.5 -97q50 -136 50 -306q0 -214 -79 -376t-223.5 -251t-333.5 -89t-332.5 89t-222.5 251t-79 376q0 215 79 377.5t222.5 251.5t332.5 89q187 0 329.5 -86.5t222.5 -243.5q72 11 105.5 65t33.5 154v91zM1011 177q114 72 176 206
t62 313q0 180 -61.5 314t-176 206.5t-267.5 72.5t-266.5 -72t-175 -206t-61.5 -315q0 -180 61.5 -313.5t175 -205.5t266.5 -72t267 72zM811 1502q-30 15 -49.5 36.5t-44.5 56.5q-29 42 -51.5 62t-57.5 20q-48 0 -75 -44.5t-27 -125.5h-77q0 114 49 178.5t135 64.5
q37 0 65 -14.5t47 -35t43 -54.5q32 -44 56 -65t61 -21q41 0 68 49.5t27 132.5h80q0 -78 -22 -135.5t-62 -88.5t-93 -31q-42 0 -72 15z" />
    <glyph glyph-name="Ohungarumlaut" unicode="&#x150;" horiz-adv-x="1490" 
d="M411.5 69q-143.5 89 -222.5 251t-79 376q0 215 79 377.5t222.5 251.5t332.5 89q190 0 334 -89t223 -252t79 -377t-79 -376t-223.5 -251t-333.5 -89t-332.5 89zM1011 177q114 72 176 206t62 313q0 180 -61.5 314t-176 206.5t-267.5 72.5t-266.5 -72t-175 -206t-61.5 -315
q0 -180 61.5 -313.5t175 -205.5t266.5 -72t267 72zM626 1501h-97l215 301h116zM961 1501h-97l215 301h135z" />
    <glyph glyph-name="Omacron" unicode="&#x14c;" horiz-adv-x="1490" 
d="M411.5 69q-143.5 89 -222.5 251t-79 376q0 215 79 377.5t222.5 251.5t332.5 89q190 0 334 -89t223 -252t79 -377t-79 -376t-223.5 -251t-333.5 -89t-332.5 89zM1011 177q114 72 176 206t62 313q0 180 -61.5 314t-176 206.5t-267.5 72.5t-266.5 -72t-175 -206t-61.5 -315
q0 -180 61.5 -313.5t175 -205.5t266.5 -72t267 72zM1015 1614h-540v78h540v-78z" />
    <glyph glyph-name="uni01EA" unicode="&#x1ea;" horiz-adv-x="1490" 
d="M734 -120.5q-54 -62.5 -54 -130.5q0 -47 26.5 -70t67.5 -23q66 0 124 55l63 -50q-81 -86 -183 -86q-77 0 -127 43.5t-50 118.5q0 72 40.5 134.5t103.5 108.5h-1q-189 0 -332.5 89t-222.5 251t-79 376q0 215 79 377.5t222.5 251.5t332.5 89q190 0 334 -89t223 -252
t79 -377q0 -190 -63 -340t-179 -244.5t-271 -121.5q-79 -48 -133 -110.5zM302.5 382.5q61.5 -133.5 175 -205.5t266.5 -72t267 72t176 206t62 313q0 180 -61.5 314t-176 206.5t-267.5 72.5t-266.5 -72t-175 -206t-61.5 -315q0 -180 61.5 -313.5z" />
    <glyph glyph-name="Oslash" unicode="&#xd8;" horiz-adv-x="1490" 
d="M1174 1250q99 -96 152.5 -237.5t53.5 -316.5q0 -214 -79 -376t-223.5 -251t-333.5 -89q-214 0 -370 114l-65 -94h-91l99 142q-99 96 -153 237.5t-54 316.5q0 215 79 377.5t222.5 251.5t332.5 89q216 0 374 -116l66 96h90zM279.5 440q38.5 -114 110.5 -191l655 944
q-125 96 -301 96q-153 0 -266.5 -72t-175 -206t-61.5 -315q0 -142 38.5 -256zM1011 177q114 72 176 206t62 313q0 141 -38.5 255t-110.5 192l-654 -945q124 -93 298 -93q153 0 267 72z" />
    <glyph glyph-name="Oslashacute" unicode="&#x1fe;" horiz-adv-x="1490" 
d="M1174 1250q99 -96 152.5 -237.5t53.5 -316.5q0 -214 -79 -376t-223.5 -251t-333.5 -89q-214 0 -370 114l-65 -94h-91l99 142q-99 96 -153 237.5t-54 316.5q0 215 79 377.5t222.5 251.5t332.5 89q216 0 374 -116l66 96h90zM279.5 440q38.5 -114 110.5 -191l655 944
q-125 96 -301 96q-153 0 -266.5 -72t-175 -206t-61.5 -315q0 -142 38.5 -256zM1011 177q114 72 176 206t62 313q0 141 -38.5 255t-110.5 192l-654 -945q124 -93 298 -93q153 0 267 72zM793 1521h-97l215 281h136z" />
    <glyph glyph-name="Otilde" unicode="&#xd5;" horiz-adv-x="1490" 
d="M411.5 69q-143.5 89 -222.5 251t-79 376q0 215 79 377.5t222.5 251.5t332.5 89q190 0 334 -89t223 -252t79 -377t-79 -376t-223.5 -251t-333.5 -89t-332.5 89zM1011 177q114 72 176 206t62 313q0 180 -61.5 314t-176 206.5t-267.5 72.5t-266.5 -72t-175 -206t-61.5 -315
q0 -180 61.5 -313.5t175 -205.5t266.5 -72t267 72zM811 1502q-30 15 -49.5 36.5t-44.5 56.5q-29 42 -51.5 62t-57.5 20q-48 0 -75 -44.5t-27 -125.5h-77q0 114 49 178.5t135 64.5q37 0 65 -14.5t47 -35t43 -54.5q32 -44 56 -65t61 -21q41 0 68 49.5t27 132.5h80
q0 -78 -22 -135.5t-62 -88.5t-93 -31q-42 0 -72 15z" />
    <glyph glyph-name="OE" unicode="&#x152;" horiz-adv-x="2253" 
d="M2167 1277h-781v-510h701v-118h-701v-531h781v-118h-911v242q-84 -126 -215.5 -194t-296.5 -68q-189 0 -332.5 89t-222.5 251t-79 376q0 215 79 377.5t222.5 251.5t332.5 89q165 0 296.5 -68t215.5 -194v242h911v-117zM1011 177q114 72 176 206t62 313q0 180 -61.5 314
t-176 206.5t-267.5 72.5t-266.5 -72t-175 -206t-61.5 -315q0 -180 61.5 -313.5t175 -205.5t266.5 -72t267 72z" />
    <glyph glyph-name="P" unicode="P" horiz-adv-x="1095" 
d="M168 0v1394h390q222 0 340.5 -100.5t118.5 -289.5t-119 -291t-340 -102h-260v-611h-130zM546 729q164 0 252.5 69.5t88.5 204.5t-88 204.5t-253 69.5h-248v-548h248z" />
    <glyph glyph-name="Thorn" unicode="&#xde;" horiz-adv-x="1142" 
d="M215 0v1394h119v-202h283q136 0 234 -45.5t150 -132t52 -207.5q0 -123 -55 -211.5t-159 -135.5t-249 -47h-256v-413h-119zM590 523q164 0 253.5 71.5t89.5 208.5q0 139 -89.5 212t-253.5 73h-256v-565h256z" />
    <glyph glyph-name="Q" unicode="Q" horiz-adv-x="1519" 
d="M1421 -3l-79 -77l-200 195q-80 -66 -180.5 -100.5t-217.5 -34.5q-188 0 -332 89t-223 251t-79 376q0 215 79 377.5t222.5 251.5t332.5 89q190 0 334 -89t223 -252t79 -377q0 -152 -41 -280t-118 -222zM1051 205l-235 230l77 81l235 -231q59 76 90 180.5t31 230.5
q0 180 -61.5 314t-176 206.5t-267.5 72.5t-266.5 -72t-175 -206t-61.5 -315q0 -180 61.5 -313.5t175 -205.5t266.5 -72q181 0 307 100z" />
    <glyph glyph-name="R" unicode="R" horiz-adv-x="1181" 
d="M1110 0h-152l-363 625q-33 -2 -90 -2h-205v-623h-130v1394h390q228 0 343.5 -100t115.5 -284q0 -147 -73 -239.5t-213 -127.5zM300 739h248q162 0 251.5 66.5t89.5 202.5q0 137 -90 203t-251 66h-248v-538z" />
    <glyph glyph-name="Racute" unicode="&#x154;" horiz-adv-x="1181" 
d="M1110 0h-152l-363 625q-33 -2 -90 -2h-205v-623h-130v1394h390q228 0 343.5 -100t115.5 -284q0 -147 -73 -239.5t-213 -127.5zM300 739h248q162 0 251.5 66.5t89.5 202.5q0 137 -90 203t-251 66h-248v-538zM619 1521h-97l215 281h136z" />
    <glyph glyph-name="Rcaron" unicode="&#x158;" horiz-adv-x="1181" 
d="M1110 0h-152l-363 625q-33 -2 -90 -2h-205v-623h-130v1394h390q228 0 343.5 -100t115.5 -284q0 -147 -73 -239.5t-213 -127.5zM300 739h248q162 0 251.5 66.5t89.5 202.5q0 137 -90 203t-251 66h-248v-538zM867 1802l-296 -303l-296 303h104l192 -195l193 195h103z" />
    <glyph glyph-name="uni0156" unicode="&#x156;" horiz-adv-x="1181" 
d="M1110 0h-152l-363 625q-33 -2 -90 -2h-205v-623h-130v1394h390q228 0 343.5 -100t115.5 -284q0 -147 -73 -239.5t-213 -127.5zM300 739h248q162 0 251.5 66.5t89.5 202.5q0 137 -90 203t-251 66h-248v-538zM403 -441h-82l182 329h134z" />
    <glyph glyph-name="S" unicode="S" horiz-adv-x="1115" 
d="M340 29.5q-104 47.5 -169.5 135t-84.5 205.5l127 31q25 -144 121.5 -223t247.5 -79q86 0 155.5 34.5t109.5 96.5t40 141q0 81 -43 135.5t-110.5 89.5t-186.5 80q-124 48 -205 97t-127.5 119.5t-46.5 169.5q0 101 50.5 181t141.5 125.5t209 45.5q129 0 226.5 -58
t158.5 -171l-103 -64q-102 176 -285 176q-78 0 -139 -30.5t-94.5 -83.5t-33.5 -119q0 -71 38 -120t103.5 -83.5t178.5 -76.5q129 -49 212.5 -98.5t134 -124t50.5 -182.5q0 -114 -56 -204.5t-156 -141.5t-226 -51q-134 0 -238 47.5z" />
    <glyph glyph-name="Sacute" unicode="&#x15a;" horiz-adv-x="1115" 
d="M340 29.5q-104 47.5 -169.5 135t-84.5 205.5l127 31q25 -144 121.5 -223t247.5 -79q86 0 155.5 34.5t109.5 96.5t40 141q0 81 -43 135.5t-110.5 89.5t-186.5 80q-124 48 -205 97t-127.5 119.5t-46.5 169.5q0 101 50.5 181t141.5 125.5t209 45.5q129 0 226.5 -58
t158.5 -171l-103 -64q-102 176 -285 176q-78 0 -139 -30.5t-94.5 -83.5t-33.5 -119q0 -71 38 -120t103.5 -83.5t178.5 -76.5q129 -49 212.5 -98.5t134 -124t50.5 -182.5q0 -114 -56 -204.5t-156 -141.5t-226 -51q-134 0 -238 47.5zM605 1521h-97l215 281h136z" />
    <glyph glyph-name="Scaron" unicode="&#x160;" horiz-adv-x="1115" 
d="M340 29.5q-104 47.5 -169.5 135t-84.5 205.5l127 31q25 -144 121.5 -223t247.5 -79q86 0 155.5 34.5t109.5 96.5t40 141q0 81 -43 135.5t-110.5 89.5t-186.5 80q-124 48 -205 97t-127.5 119.5t-46.5 169.5q0 101 50.5 181t141.5 125.5t209 45.5q129 0 226.5 -58
t158.5 -171l-103 -64q-102 176 -285 176q-78 0 -139 -30.5t-94.5 -83.5t-33.5 -119q0 -71 38 -120t103.5 -83.5t178.5 -76.5q129 -49 212.5 -98.5t134 -124t50.5 -182.5q0 -114 -56 -204.5t-156 -141.5t-226 -51q-134 0 -238 47.5zM853 1802l-296 -303l-296 303h104
l192 -195l193 195h103z" />
    <glyph glyph-name="Scedilla" unicode="&#x15e;" horiz-adv-x="1115" 
d="M961 176.5q-55 -89.5 -153 -141t-222 -53.5l-72 -116q89 -15 145 -56.5t56 -125.5q0 -58 -25.5 -101.5t-72.5 -68t-109 -24.5q-51 0 -101 25.5t-76 71.5l47 60q19 -36 54.5 -58.5t76.5 -22.5q60 0 93 29.5t33 85.5q0 76 -64.5 101.5t-162.5 29.5l100 174
q-173 18 -284 119.5t-138 264.5l127 31q25 -144 121.5 -223t247.5 -79q86 0 155.5 34.5t109.5 96.5t40 141q0 81 -43 135.5t-110.5 89.5t-186.5 80q-124 48 -205 97t-127.5 119.5t-46.5 169.5q0 101 50.5 181t141.5 125.5t209 45.5q129 0 226.5 -58t158.5 -171l-103 -64
q-102 176 -285 176q-78 0 -139 -30.5t-94.5 -83.5t-33.5 -119q0 -71 38 -120t103.5 -83.5t178.5 -76.5q129 -49 212.5 -98.5t134 -124t50.5 -182.5q0 -113 -55 -202.5z" />
    <glyph glyph-name="Scircumflex" unicode="&#x15c;" horiz-adv-x="1115" 
d="M340 29.5q-104 47.5 -169.5 135t-84.5 205.5l127 31q25 -144 121.5 -223t247.5 -79q86 0 155.5 34.5t109.5 96.5t40 141q0 81 -43 135.5t-110.5 89.5t-186.5 80q-124 48 -205 97t-127.5 119.5t-46.5 169.5q0 101 50.5 181t141.5 125.5t209 45.5q129 0 226.5 -58
t158.5 -171l-103 -64q-102 176 -285 176q-78 0 -139 -30.5t-94.5 -83.5t-33.5 -119q0 -71 38 -120t103.5 -83.5t178.5 -76.5q129 -49 212.5 -98.5t134 -124t50.5 -182.5q0 -114 -56 -204.5t-156 -141.5t-226 -51q-134 0 -238 47.5zM370 1507h-110l297 312l297 -312h-110
l-187 200z" />
    <glyph glyph-name="uni0218" unicode="&#x218;" horiz-adv-x="1115" 
d="M340 29.5q-104 47.5 -169.5 135t-84.5 205.5l127 31q25 -144 121.5 -223t247.5 -79q86 0 155.5 34.5t109.5 96.5t40 141q0 81 -43 135.5t-110.5 89.5t-186.5 80q-124 48 -205 97t-127.5 119.5t-46.5 169.5q0 101 50.5 181t141.5 125.5t209 45.5q129 0 226.5 -58
t158.5 -171l-103 -64q-102 176 -285 176q-78 0 -139 -30.5t-94.5 -83.5t-33.5 -119q0 -71 38 -120t103.5 -83.5t178.5 -76.5q129 -49 212.5 -98.5t134 -124t50.5 -182.5q0 -114 -56 -204.5t-156 -141.5t-226 -51q-134 0 -238 47.5zM389 -441h-82l182 329h134z" />
    <glyph glyph-name="uni1E9E" unicode="&#x1e9e;" horiz-adv-x="1480" 
d="M1200.5 680.5q80.5 -47.5 130.5 -119.5t50 -180q0 -114 -58 -205t-161 -142.5t-231 -51.5q-125 0 -227 47.5t-168 135.5t-85 205l129 32q21 -144 115.5 -223.5t237.5 -79.5q92 0 164.5 34.5t113 96t40.5 139.5q0 82 -42.5 136.5t-108.5 89.5t-188 84q-131 53 -209.5 101
t-124 120t-45.5 179q0 64 29 115.5t82 82.5h-344v-1277h-130v1394h1148v-117h-529q-59 -27 -92.5 -79t-33.5 -119q0 -78 38.5 -129t101.5 -85t181 -81q136 -56 216.5 -103.5z" />
    <glyph glyph-name="uni018F" unicode="&#x18f;" horiz-adv-x="1482" 
d="M1075 1330q144 -85 220.5 -246t76.5 -384t-75.5 -385.5t-218 -248.5t-337.5 -86t-337.5 86.5t-218 249t-75.5 386.5h1132q0 284 -131.5 436t-378.5 152q-169 0 -281 -74t-168 -227l-121 46q72 188 215.5 284t354.5 96q199 0 343 -85zM1085.5 234q128.5 129 151.5 366
h-991q23 -238 151 -366.5t344 -128.5t344.5 129z" />
    <glyph glyph-name="T" unicode="T" horiz-adv-x="1174" 
d="M652 0h-132v1277h-488v117h1107v-117h-487v-1277z" />
    <glyph glyph-name="Tbar" unicode="&#x166;" horiz-adv-x="1174" 
d="M1139 1394v-117h-487v-535h196v-88h-196v-654h-132v654h-199v88h199v535h-488v117h1107z" />
    <glyph glyph-name="Tcaron" unicode="&#x164;" horiz-adv-x="1174" 
d="M652 0h-132v1277h-488v117h1107v-117h-487v-1277zM882 1802l-296 -303l-296 303h104l192 -195l193 195h103z" />
    <glyph glyph-name="uni0162" unicode="&#x162;" horiz-adv-x="1174" 
d="M652 0h-25l-84 -134q89 -15 145 -56.5t56 -125.5q0 -58 -25.5 -101.5t-72.5 -68t-109 -24.5q-51 0 -101 25.5t-76 71.5l47 60q19 -36 54.5 -58.5t76.5 -22.5q60 0 93 29.5t33 85.5q0 76 -64.5 101.5t-162.5 29.5l108 188h-25v1277h-488v117h1107v-117h-487v-1277z" />
    <glyph glyph-name="uni021A" unicode="&#x21a;" horiz-adv-x="1174" 
d="M652 0h-132v1277h-488v117h1107v-117h-487v-1277zM418 -441h-82l182 329h134z" />
    <glyph glyph-name="U" unicode="U" horiz-adv-x="1302" 
d="M280.5 113.5q-126.5 133.5 -126.5 390.5v890h130v-876q0 -207 88.5 -312t276.5 -105t279 106.5t91 314.5v872h130v-880q0 -261 -128 -397.5t-372 -136.5q-242 0 -368.5 133.5z" />
    <glyph glyph-name="Uacute" unicode="&#xda;" horiz-adv-x="1302" 
d="M280.5 113.5q-126.5 133.5 -126.5 390.5v890h130v-876q0 -207 88.5 -312t276.5 -105t279 106.5t91 314.5v872h130v-880q0 -261 -128 -397.5t-372 -136.5q-242 0 -368.5 133.5zM699 1521h-97l215 281h136z" />
    <glyph glyph-name="Ubreve" unicode="&#x16c;" horiz-adv-x="1302" 
d="M280.5 113.5q-126.5 133.5 -126.5 390.5v890h130v-876q0 -207 88.5 -312t276.5 -105t279 106.5t91 314.5v872h130v-880q0 -261 -128 -397.5t-372 -136.5q-242 0 -368.5 133.5zM426.5 1548.5q-75.5 66.5 -75.5 193.5h92q0 -89 55 -136t153 -47q99 0 154 47.5t55 135.5h92
q0 -129 -76.5 -194.5t-224.5 -65.5q-149 0 -224.5 66.5z" />
    <glyph glyph-name="uni01D3" unicode="&#x1d3;" horiz-adv-x="1302" 
d="M280.5 113.5q-126.5 133.5 -126.5 390.5v890h130v-876q0 -207 88.5 -312t276.5 -105t279 106.5t91 314.5v872h130v-880q0 -261 -128 -397.5t-372 -136.5q-242 0 -368.5 133.5zM947 1802l-296 -303l-296 303h104l192 -195l193 195h103z" />
    <glyph glyph-name="Ucircumflex" unicode="&#xdb;" horiz-adv-x="1302" 
d="M280.5 113.5q-126.5 133.5 -126.5 390.5v890h130v-876q0 -207 88.5 -312t276.5 -105t279 106.5t91 314.5v872h130v-880q0 -261 -128 -397.5t-372 -136.5q-242 0 -368.5 133.5zM464 1507h-110l297 312l297 -312h-110l-187 200z" />
    <glyph glyph-name="Udieresis" unicode="&#xdc;" horiz-adv-x="1302" 
d="M280.5 113.5q-126.5 133.5 -126.5 390.5v890h130v-876q0 -207 88.5 -312t276.5 -105t279 106.5t91 314.5v872h130v-880q0 -261 -128 -397.5t-372 -136.5q-242 0 -368.5 133.5zM539 1586h-135v216h135v-216zM897 1586h-135v216h135v-216z" />
    <glyph glyph-name="uni01D7" unicode="&#x1d7;" horiz-adv-x="1302" 
d="M280.5 113.5q-126.5 133.5 -126.5 390.5v890h130v-876q0 -207 88.5 -312t276.5 -105t279 106.5t91 314.5v872h130v-880q0 -261 -128 -397.5t-372 -136.5q-242 0 -368.5 133.5zM539 1586h-135v216h135v-216zM897 1586h-135v216h135v-216zM699 1929h-97l215 281h136z" />
    <glyph glyph-name="uni01D9" unicode="&#x1d9;" horiz-adv-x="1302" 
d="M280.5 113.5q-126.5 133.5 -126.5 390.5v890h130v-876q0 -207 88.5 -312t276.5 -105t279 106.5t91 314.5v872h130v-880q0 -261 -128 -397.5t-372 -136.5q-242 0 -368.5 133.5zM539 1586h-135v216h135v-216zM897 1586h-135v216h135v-216zM947 2210l-296 -303l-296 303h104
l192 -195l193 195h103z" />
    <glyph glyph-name="uni01DB" unicode="&#x1db;" horiz-adv-x="1302" 
d="M280.5 113.5q-126.5 133.5 -126.5 390.5v890h130v-876q0 -207 88.5 -312t276.5 -105t279 106.5t91 314.5v872h130v-880q0 -261 -128 -397.5t-372 -136.5q-242 0 -368.5 133.5zM539 1586h-135v216h135v-216zM897 1586h-135v216h135v-216zM700 1929h-98l-245 281h135z" />
    <glyph glyph-name="uni01D5" unicode="&#x1d5;" horiz-adv-x="1302" 
d="M280.5 113.5q-126.5 133.5 -126.5 390.5v890h130v-876q0 -207 88.5 -312t276.5 -105t279 106.5t91 314.5v872h130v-880q0 -261 -128 -397.5t-372 -136.5q-242 0 -368.5 133.5zM539 1586h-135v216h135v-216zM897 1586h-135v216h135v-216zM921 2022h-540v78h540v-78z" />
    <glyph glyph-name="uni1EE4" unicode="&#x1ee4;" horiz-adv-x="1302" 
d="M280.5 113.5q-126.5 133.5 -126.5 390.5v890h130v-876q0 -207 88.5 -312t276.5 -105t279 106.5t91 314.5v872h130v-880q0 -261 -128 -397.5t-372 -136.5q-242 0 -368.5 133.5zM718 -347h-135v201h135v-201z" />
    <glyph glyph-name="Ugrave" unicode="&#xd9;" horiz-adv-x="1302" 
d="M280.5 113.5q-126.5 133.5 -126.5 390.5v890h130v-876q0 -207 88.5 -312t276.5 -105t279 106.5t91 314.5v872h130v-880q0 -261 -128 -397.5t-372 -136.5q-242 0 -368.5 133.5zM700 1521h-98l-245 281h135z" />
    <glyph glyph-name="uni1EE6" unicode="&#x1ee6;" horiz-adv-x="1302" 
d="M280.5 113.5q-126.5 133.5 -126.5 390.5v890h130v-876q0 -207 88.5 -312t276.5 -105t279 106.5t91 314.5v872h130v-880q0 -261 -128 -397.5t-372 -136.5q-242 0 -368.5 133.5zM611 1511q75 14 118 36t43 71q0 55 -55 82t-139 27h-31v76h31q83 0 148.5 -21.5t103 -61.5
t37.5 -95t-36 -88.5t-88 -49.5t-122 -27z" />
    <glyph glyph-name="Uhorn" unicode="&#x1af;" horiz-adv-x="1467" 
d="M1319 1394h91v-98q0 -140 -64 -218.5t-197 -82.5v-481q0 -261 -128 -397.5t-372 -136.5q-242 0 -368.5 133.5t-126.5 390.5v890h130v-876q0 -207 88.5 -312t276.5 -105t279 106.5t91 314.5v872h130v-313q89 4 129.5 58.5t40.5 163.5v91z" />
    <glyph glyph-name="uni1EE8" unicode="&#x1ee8;" horiz-adv-x="1467" 
d="M1319 1394h91v-98q0 -140 -64 -218.5t-197 -82.5v-481q0 -261 -128 -397.5t-372 -136.5q-242 0 -368.5 133.5t-126.5 390.5v890h130v-876q0 -207 88.5 -312t276.5 -105t279 106.5t91 314.5v872h130v-313q89 4 129.5 58.5t40.5 163.5v91zM699 1521h-97l215 281h136z" />
    <glyph glyph-name="uni1EF0" unicode="&#x1ef0;" horiz-adv-x="1467" 
d="M1319 1394h91v-98q0 -140 -64 -218.5t-197 -82.5v-481q0 -261 -128 -397.5t-372 -136.5q-242 0 -368.5 133.5t-126.5 390.5v890h130v-876q0 -207 88.5 -312t276.5 -105t279 106.5t91 314.5v872h130v-313q89 4 129.5 58.5t40.5 163.5v91zM718 -347h-135v201h135v-201z" />
    <glyph glyph-name="uni1EEA" unicode="&#x1eea;" horiz-adv-x="1467" 
d="M1319 1394h91v-98q0 -140 -64 -218.5t-197 -82.5v-481q0 -261 -128 -397.5t-372 -136.5q-242 0 -368.5 133.5t-126.5 390.5v890h130v-876q0 -207 88.5 -312t276.5 -105t279 106.5t91 314.5v872h130v-313q89 4 129.5 58.5t40.5 163.5v91zM700 1521h-98l-245 281h135z" />
    <glyph glyph-name="uni1EEC" unicode="&#x1eec;" horiz-adv-x="1467" 
d="M1319 1394h91v-98q0 -140 -64 -218.5t-197 -82.5v-481q0 -261 -128 -397.5t-372 -136.5q-242 0 -368.5 133.5t-126.5 390.5v890h130v-876q0 -207 88.5 -312t276.5 -105t279 106.5t91 314.5v872h130v-313q89 4 129.5 58.5t40.5 163.5v91zM611 1511q75 14 118 36t43 71
q0 55 -55 82t-139 27h-31v76h31q83 0 148.5 -21.5t103 -61.5t37.5 -95t-36 -88.5t-88 -49.5t-122 -27z" />
    <glyph glyph-name="uni1EEE" unicode="&#x1eee;" horiz-adv-x="1467" 
d="M1319 1394h91v-98q0 -140 -64 -218.5t-197 -82.5v-481q0 -261 -128 -397.5t-372 -136.5q-242 0 -368.5 133.5t-126.5 390.5v890h130v-876q0 -207 88.5 -312t276.5 -105t279 106.5t91 314.5v872h130v-313q89 4 129.5 58.5t40.5 163.5v91zM717 1502q-30 15 -49.5 36.5
t-44.5 56.5q-29 42 -51.5 62t-57.5 20q-48 0 -75 -44.5t-27 -125.5h-77q0 114 49 178.5t135 64.5q37 0 65 -14.5t47 -35t43 -54.5q32 -44 56 -65t61 -21q41 0 68 49.5t27 132.5h80q0 -78 -22 -135.5t-62 -88.5t-93 -31q-42 0 -72 15z" />
    <glyph glyph-name="Uhungarumlaut" unicode="&#x170;" horiz-adv-x="1302" 
d="M280.5 113.5q-126.5 133.5 -126.5 390.5v890h130v-876q0 -207 88.5 -312t276.5 -105t279 106.5t91 314.5v872h130v-880q0 -261 -128 -397.5t-372 -136.5q-242 0 -368.5 133.5zM532 1501h-97l215 301h116zM867 1501h-97l215 301h135z" />
    <glyph glyph-name="Umacron" unicode="&#x16a;" horiz-adv-x="1302" 
d="M280.5 113.5q-126.5 133.5 -126.5 390.5v890h130v-876q0 -207 88.5 -312t276.5 -105t279 106.5t91 314.5v872h130v-880q0 -261 -128 -397.5t-372 -136.5q-242 0 -368.5 133.5zM921 1614h-540v78h540v-78z" />
    <glyph glyph-name="Uogonek" unicode="&#x172;" horiz-adv-x="1302" 
d="M1019 1394h130v-880q0 -226 -96.5 -359t-280.5 -165q-78 -48 -132 -111t-54 -130q0 -47 26.5 -70t67.5 -23q66 0 124 55l63 -50q-81 -86 -183 -86q-77 0 -127 43.5t-50 118.5q0 72 40.5 134.5t103.5 108.5h-2q-242 0 -368.5 133.5t-126.5 390.5v890h130v-876
q0 -207 88.5 -312t276.5 -105t279 106.5t91 314.5v872z" />
    <glyph glyph-name="Uring" unicode="&#x16e;" horiz-adv-x="1302" 
d="M280.5 113.5q-126.5 133.5 -126.5 390.5v890h130v-876q0 -207 88.5 -312t276.5 -105t279 106.5t91 314.5v872h130v-880q0 -261 -128 -397.5t-372 -136.5q-242 0 -368.5 133.5zM555 1390q-44 26 -69 69.5t-25 94.5q0 52 25.5 95.5t69 69t95.5 25.5q50 0 94 -25.5t70 -69
t26 -95.5t-25.5 -95.5t-69 -69t-95.5 -25.5t-96 26zM734.5 1471q33.5 34 33.5 84t-33 83.5t-84 33.5t-84 -33.5t-33 -83.5q0 -51 33.5 -84.5t83.5 -33.5t83.5 34z" />
    <glyph glyph-name="Utilde" unicode="&#x168;" horiz-adv-x="1302" 
d="M280.5 113.5q-126.5 133.5 -126.5 390.5v890h130v-876q0 -207 88.5 -312t276.5 -105t279 106.5t91 314.5v872h130v-880q0 -261 -128 -397.5t-372 -136.5q-242 0 -368.5 133.5zM717 1502q-30 15 -49.5 36.5t-44.5 56.5q-29 42 -51.5 62t-57.5 20q-48 0 -75 -44.5
t-27 -125.5h-77q0 114 49 178.5t135 64.5q37 0 65 -14.5t47 -35t43 -54.5q32 -44 56 -65t61 -21q41 0 68 49.5t27 132.5h80q0 -78 -22 -135.5t-62 -88.5t-93 -31q-42 0 -72 15z" />
    <glyph glyph-name="V" unicode="V" horiz-adv-x="1293" 
d="M647 200l460 1194h144l-551 -1394h-106l-552 1394h143z" />
    <glyph glyph-name="W" unicode="W" horiz-adv-x="1884" 
d="M1356 193l338 1201h136l-401 -1394h-133l-353 1130l-355 -1130h-133l-401 1394h137l338 -1201l347 1127h132z" />
    <glyph glyph-name="Wacute" unicode="&#x1e82;" horiz-adv-x="1884" 
d="M1356 193l338 1201h136l-401 -1394h-133l-353 1130l-355 -1130h-133l-401 1394h137l338 -1201l347 1127h132zM991 1521h-97l215 281h136z" />
    <glyph glyph-name="Wcircumflex" unicode="&#x174;" horiz-adv-x="1884" 
d="M1356 193l338 1201h136l-401 -1394h-133l-353 1130l-355 -1130h-133l-401 1394h137l338 -1201l347 1127h132zM756 1507h-110l297 312l297 -312h-110l-187 200z" />
    <glyph glyph-name="Wdieresis" unicode="&#x1e84;" horiz-adv-x="1884" 
d="M1356 193l338 1201h136l-401 -1394h-133l-353 1130l-355 -1130h-133l-401 1394h137l338 -1201l347 1127h132zM831 1586h-135v216h135v-216zM1189 1586h-135v216h135v-216z" />
    <glyph glyph-name="Wgrave" unicode="&#x1e80;" horiz-adv-x="1884" 
d="M1356 193l338 1201h136l-401 -1394h-133l-353 1130l-355 -1130h-133l-401 1394h137l338 -1201l347 1127h132zM992 1521h-98l-245 281h135z" />
    <glyph glyph-name="X" unicode="X" horiz-adv-x="1253" 
d="M206 0h-156l486 703l-477 691h156l411 -599l411 599h156l-479 -691l489 -703h-156l-422 606z" />
    <glyph glyph-name="Y" unicode="Y" horiz-adv-x="1170" 
d="M651 0h-130v533l-493 861h149l406 -729l410 729h149l-491 -861v-533z" />
    <glyph glyph-name="Yacute" unicode="&#xdd;" horiz-adv-x="1170" 
d="M651 0h-130v533l-493 861h149l406 -729l410 729h149l-491 -861v-533zM634 1521h-97l215 281h136z" />
    <glyph glyph-name="Ycircumflex" unicode="&#x176;" horiz-adv-x="1170" 
d="M651 0h-130v533l-493 861h149l406 -729l410 729h149l-491 -861v-533zM399 1507h-110l297 312l297 -312h-110l-187 200z" />
    <glyph glyph-name="Ydieresis" unicode="&#x178;" horiz-adv-x="1170" 
d="M651 0h-130v533l-493 861h149l406 -729l410 729h149l-491 -861v-533zM474 1586h-135v216h135v-216zM832 1586h-135v216h135v-216z" />
    <glyph glyph-name="uni1EF4" unicode="&#x1ef4;" horiz-adv-x="1170" 
d="M651 0h-130v533l-493 861h149l406 -729l410 729h149l-491 -861v-533zM653 -347h-135v201h135v-201z" />
    <glyph glyph-name="Ygrave" unicode="&#x1ef2;" horiz-adv-x="1170" 
d="M651 0h-130v533l-493 861h149l406 -729l410 729h149l-491 -861v-533zM635 1521h-98l-245 281h135z" />
    <glyph glyph-name="uni1EF6" unicode="&#x1ef6;" horiz-adv-x="1170" 
d="M651 0h-130v533l-493 861h149l406 -729l410 729h149l-491 -861v-533zM546 1511q75 14 118 36t43 71q0 55 -55 82t-139 27h-31v76h31q83 0 148.5 -21.5t103 -61.5t37.5 -95t-36 -88.5t-88 -49.5t-122 -27z" />
    <glyph glyph-name="uni0232" unicode="&#x232;" horiz-adv-x="1170" 
d="M651 0h-130v533l-493 861h149l406 -729l410 729h149l-491 -861v-533zM856 1614h-540v78h540v-78z" />
    <glyph glyph-name="uni1EF8" unicode="&#x1ef8;" horiz-adv-x="1170" 
d="M651 0h-130v533l-493 861h149l406 -729l410 729h149l-491 -861v-533zM652 1502q-30 15 -49.5 36.5t-44.5 56.5q-29 42 -51.5 62t-57.5 20q-48 0 -75 -44.5t-27 -125.5h-77q0 114 49 178.5t135 64.5q37 0 65 -14.5t47 -35t43 -54.5q32 -44 56 -65t61 -21q41 0 68 49.5
t27 132.5h80q0 -78 -22 -135.5t-62 -88.5t-93 -31q-42 0 -72 15z" />
    <glyph glyph-name="Z" unicode="Z" horiz-adv-x="1121" 
d="M1039 1279l-821 -1161h843v-118h-1000v115l822 1162h-775v117h931v-115z" />
    <glyph glyph-name="Zacute" unicode="&#x179;" horiz-adv-x="1121" 
d="M1039 1279l-821 -1161h843v-118h-1000v115l822 1162h-775v117h931v-115zM613 1521h-97l215 281h136z" />
    <glyph glyph-name="Zcaron" unicode="&#x17d;" horiz-adv-x="1121" 
d="M1039 1279l-821 -1161h843v-118h-1000v115l822 1162h-775v117h931v-115zM861 1802l-296 -303l-296 303h104l192 -195l193 195h103z" />
    <glyph glyph-name="Zdotaccent" unicode="&#x17b;" horiz-adv-x="1121" 
d="M1039 1279l-821 -1161h843v-118h-1000v115l822 1162h-775v117h931v-115zM632 1586h-135v216h135v-216z" />
    <glyph glyph-name="uni1EB6.ss03" horiz-adv-x="1232" 
d="M1187 0h-143l-126 357h-605l-126 -357h-143l516 1394h110zM616 1211l-261 -736h521zM553 -324.5q-26 26.5 -26 63.5t25.5 63t63.5 26q37 0 62.5 -26t25.5 -63q0 -38 -25.5 -64t-62.5 -26t-63 26.5zM391.5 1548.5q-75.5 66.5 -75.5 193.5h92q0 -89 55 -136t153 -47
q99 0 154 47.5t55 135.5h92q0 -129 -76.5 -194.5t-224.5 -65.5q-149 0 -224.5 66.5z" />
    <glyph glyph-name="uni1EAC.ss03" horiz-adv-x="1232" 
d="M1187 0h-143l-126 357h-605l-126 -357h-143l516 1394h110zM616 1211l-261 -736h521zM553 -324.5q-26 26.5 -26 63.5t25.5 63t63.5 26q37 0 62.5 -26t25.5 -63q0 -38 -25.5 -64t-62.5 -26t-63 26.5zM429 1507h-110l297 312l297 -312h-110l-187 200z" />
    <glyph glyph-name="Adieresis.ss03" horiz-adv-x="1232" 
d="M1187 0h-143l-126 357h-605l-126 -357h-143l516 1394h110zM616 1211l-261 -736h521zM354 1664.5q-26 26.5 -26 63.5q0 38 25.5 63.5t63.5 25.5q37 0 62.5 -26t25.5 -63q0 -38 -25.5 -64t-62.5 -26t-63 26.5zM753 1664.5q-26 26.5 -26 63.5q0 38 25.5 63.5t63.5 25.5
q37 0 63 -25.5t26 -63.5t-26 -64t-63 -26t-63 26.5z" />
    <glyph glyph-name="uni1EA0.ss03" horiz-adv-x="1232" 
d="M1187 0h-143l-126 357h-605l-126 -357h-143l516 1394h110zM616 1211l-261 -736h521zM553 -324.5q-26 26.5 -26 63.5t25.5 63t63.5 26q37 0 62.5 -26t25.5 -63q0 -38 -25.5 -64t-62.5 -26t-63 26.5z" />
    <glyph glyph-name="Cdotaccent.ss03" horiz-adv-x="1405" 
d="M411.5 69q-143.5 89 -222.5 251.5t-79 377.5q0 214 79 376t222.5 251t332.5 89q203 0 352 -101t217 -280l-123 -45q-54 143 -170 222t-276 79q-153 0 -266.5 -72.5t-175 -206t-61.5 -312.5q0 -180 61.5 -314t175 -206.5t266.5 -72.5q160 0 276 79t170 222l123 -45
q-68 -179 -217 -280t-352 -101q-189 0 -332.5 89zM663 1664.5q-26 26.5 -26 63.5q0 38 25.5 63.5t63.5 25.5q37 0 62.5 -26t25.5 -63q0 -38 -25.5 -64t-62.5 -26t-63 26.5z" />
    <glyph glyph-name="uni1EC6.ss03" horiz-adv-x="1167" 
d="M1081 0h-911v1394h911v-117h-781v-510h701v-118h-701v-531h781v-118zM563 -324.5q-26 26.5 -26 63.5t25.5 63t63.5 26q37 0 62.5 -26t25.5 -63q0 -38 -25.5 -64t-62.5 -26t-63 26.5zM439 1507h-110l297 312l297 -312h-110l-187 200z" />
    <glyph glyph-name="Edieresis.ss03" horiz-adv-x="1167" 
d="M1081 0h-911v1394h911v-117h-781v-510h701v-118h-701v-531h781v-118zM364 1664.5q-26 26.5 -26 63.5q0 38 25.5 63.5t63.5 25.5q37 0 62.5 -26t25.5 -63q0 -38 -25.5 -64t-62.5 -26t-63 26.5zM763 1664.5q-26 26.5 -26 63.5q0 38 25.5 63.5t63.5 25.5q37 0 63 -25.5
t26 -63.5t-26 -64t-63 -26t-63 26.5z" />
    <glyph glyph-name="Edotaccent.ss03" horiz-adv-x="1167" 
d="M1081 0h-911v1394h911v-117h-781v-510h701v-118h-701v-531h781v-118zM563 1664.5q-26 26.5 -26 63.5q0 38 25.5 63.5t63.5 25.5q37 0 62.5 -26t25.5 -63q0 -38 -25.5 -64t-62.5 -26t-63 26.5z" />
    <glyph glyph-name="uni1EB8.ss03" horiz-adv-x="1167" 
d="M1081 0h-911v1394h911v-117h-781v-510h701v-118h-701v-531h781v-118zM563 -324.5q-26 26.5 -26 63.5t25.5 63t63.5 26q37 0 62.5 -26t25.5 -63q0 -38 -25.5 -64t-62.5 -26t-63 26.5z" />
    <glyph glyph-name="Gdotaccent.ss03" horiz-adv-x="1455" 
d="M840 599v118h473v-717h-116l-13 234q-59 -129 -179 -191.5t-269 -62.5q-185 0 -327 89t-220.5 252t-78.5 377t79 376t222.5 251t332.5 89q203 0 352 -101t217 -280l-123 -45q-54 143 -170 222t-276 79q-153 0 -266.5 -72.5t-175 -206t-61.5 -312.5q0 -180 61.5 -314
t175 -206.5t266.5 -72.5q116 0 217.5 42.5t168 147t66.5 278.5v26h-356zM681 1664.5q-26 26.5 -26 63.5q0 38 25.5 63.5t63.5 25.5q37 0 62.5 -26t25.5 -63q0 -38 -25.5 -64t-62.5 -26t-63 26.5z" />
    <glyph glyph-name="Idieresis.ss03" horiz-adv-x="470" 
d="M300 0h-130v1394h130v-1394zM-26 1664.5q-26 26.5 -26 63.5q0 38 25.5 63.5t63.5 25.5q37 0 62.5 -26t25.5 -63q0 -38 -25.5 -64t-62.5 -26t-63 26.5zM373 1664.5q-26 26.5 -26 63.5q0 38 25.5 63.5t63.5 25.5q37 0 63 -25.5t26 -63.5t-26 -64t-63 -26t-63 26.5z" />
    <glyph glyph-name="uni1ECA.ss03" horiz-adv-x="470" 
d="M300 0h-130v1394h130v-1394zM173 -324.5q-26 26.5 -26 63.5t25.5 63t63.5 26q37 0 62.5 -26t25.5 -63q0 -38 -25.5 -64t-62.5 -26t-63 26.5z" />
    <glyph glyph-name="Ldot.ss03" horiz-adv-x="1077" 
d="M940 0h-770v1394h130v-1276h640v-118zM743.5 638q-25.5 26 -25.5 64q0 37 25.5 63t62.5 26q38 0 63.5 -25.5t25.5 -63.5t-26 -64t-63 -26t-62.5 26z" />
    <glyph glyph-name="uni1E44.ss03" horiz-adv-x="1334" 
d="M1034 211v1183h130v-1394h-145l-719 1184v-1184h-130v1394h143zM594 1664.5q-26 26.5 -26 63.5q0 38 25.5 63.5t63.5 25.5q37 0 62.5 -26t25.5 -63q0 -38 -25.5 -64t-62.5 -26t-63 26.5z" />
    <glyph glyph-name="uni1ED8.ss03" horiz-adv-x="1490" 
d="M411.5 69q-143.5 89 -222.5 251t-79 376q0 215 79 377.5t222.5 251.5t332.5 89q190 0 334 -89t223 -252t79 -377t-79 -376t-223.5 -251t-333.5 -89t-332.5 89zM1011 177q114 72 176 206t62 313q0 180 -61.5 314t-176 206.5t-267.5 72.5t-266.5 -72t-175 -206t-61.5 -315
q0 -180 61.5 -313.5t175 -205.5t266.5 -72t267 72zM683 -324.5q-26 26.5 -26 63.5t25.5 63t63.5 26q37 0 62.5 -26t25.5 -63q0 -38 -25.5 -64t-62.5 -26t-63 26.5zM558 1507h-110l297 312l297 -312h-110l-187 200z" />
    <glyph glyph-name="Odieresis.ss03" horiz-adv-x="1490" 
d="M411.5 69q-143.5 89 -222.5 251t-79 376q0 215 79 377.5t222.5 251.5t332.5 89q190 0 334 -89t223 -252t79 -377t-79 -376t-223.5 -251t-333.5 -89t-332.5 89zM1011 177q114 72 176 206t62 313q0 180 -61.5 314t-176 206.5t-267.5 72.5t-266.5 -72t-175 -206t-61.5 -315
q0 -180 61.5 -313.5t175 -205.5t266.5 -72t267 72zM483 1664.5q-26 26.5 -26 63.5q0 38 25.5 63.5t63.5 25.5q37 0 62.5 -26t25.5 -63q0 -38 -25.5 -64t-62.5 -26t-63 26.5zM882 1664.5q-26 26.5 -26 63.5q0 38 25.5 63.5t63.5 25.5q37 0 63 -25.5t26 -63.5t-26 -64t-63 -26
t-63 26.5z" />
    <glyph glyph-name="uni1ECC.ss03" horiz-adv-x="1490" 
d="M411.5 69q-143.5 89 -222.5 251t-79 376q0 215 79 377.5t222.5 251.5t332.5 89q190 0 334 -89t223 -252t79 -377t-79 -376t-223.5 -251t-333.5 -89t-332.5 89zM1011 177q114 72 176 206t62 313q0 180 -61.5 314t-176 206.5t-267.5 72.5t-266.5 -72t-175 -206t-61.5 -315
q0 -180 61.5 -313.5t175 -205.5t266.5 -72t267 72zM683 -324.5q-26 26.5 -26 63.5t25.5 63t63.5 26q37 0 62.5 -26t25.5 -63q0 -38 -25.5 -64t-62.5 -26t-63 26.5z" />
    <glyph glyph-name="uni1EE2.ss03" horiz-adv-x="1490" 
d="M1435 1394h91v-98q0 -121 -48.5 -197t-147.5 -97q50 -136 50 -306q0 -214 -79 -376t-223.5 -251t-333.5 -89t-332.5 89t-222.5 251t-79 376q0 215 79 377.5t222.5 251.5t332.5 89q187 0 329.5 -86.5t222.5 -243.5q72 11 105.5 65t33.5 154v91zM1011 177q114 72 176 206
t62 313q0 180 -61.5 314t-176 206.5t-267.5 72.5t-266.5 -72t-175 -206t-61.5 -315q0 -180 61.5 -313.5t175 -205.5t266.5 -72t267 72zM683 -324.5q-26 26.5 -26 63.5t25.5 63t63.5 26q37 0 62.5 -26t25.5 -63q0 -38 -25.5 -64t-62.5 -26t-63 26.5z" />
    <glyph glyph-name="Udieresis.ss03" horiz-adv-x="1302" 
d="M280.5 113.5q-126.5 133.5 -126.5 390.5v890h130v-876q0 -207 88.5 -312t276.5 -105t279 106.5t91 314.5v872h130v-880q0 -261 -128 -397.5t-372 -136.5q-242 0 -368.5 133.5zM389 1664.5q-26 26.5 -26 63.5q0 38 25.5 63.5t63.5 25.5q37 0 62.5 -26t25.5 -63
q0 -38 -25.5 -64t-62.5 -26t-63 26.5zM788 1664.5q-26 26.5 -26 63.5q0 38 25.5 63.5t63.5 25.5q37 0 63 -25.5t26 -63.5t-26 -64t-63 -26t-63 26.5z" />
    <glyph glyph-name="uni01D7.ss03" horiz-adv-x="1302" 
d="M280.5 113.5q-126.5 133.5 -126.5 390.5v890h130v-876q0 -207 88.5 -312t276.5 -105t279 106.5t91 314.5v872h130v-880q0 -261 -128 -397.5t-372 -136.5q-242 0 -368.5 133.5zM389 1664.5q-26 26.5 -26 63.5q0 38 25.5 63.5t63.5 25.5q37 0 62.5 -26t25.5 -63
q0 -38 -25.5 -64t-62.5 -26t-63 26.5zM788 1664.5q-26 26.5 -26 63.5q0 38 25.5 63.5t63.5 25.5q37 0 63 -25.5t26 -63.5t-26 -64t-63 -26t-63 26.5zM699 1944h-97l215 281h136z" />
    <glyph glyph-name="uni01D9.ss03" horiz-adv-x="1302" 
d="M280.5 113.5q-126.5 133.5 -126.5 390.5v890h130v-876q0 -207 88.5 -312t276.5 -105t279 106.5t91 314.5v872h130v-880q0 -261 -128 -397.5t-372 -136.5q-242 0 -368.5 133.5zM389 1664.5q-26 26.5 -26 63.5q0 38 25.5 63.5t63.5 25.5q37 0 62.5 -26t25.5 -63
q0 -38 -25.5 -64t-62.5 -26t-63 26.5zM788 1664.5q-26 26.5 -26 63.5q0 38 25.5 63.5t63.5 25.5q37 0 63 -25.5t26 -63.5t-26 -64t-63 -26t-63 26.5zM947 2225l-296 -303l-296 303h104l192 -195l193 195h103z" />
    <glyph glyph-name="uni01DB.ss03" horiz-adv-x="1302" 
d="M280.5 113.5q-126.5 133.5 -126.5 390.5v890h130v-876q0 -207 88.5 -312t276.5 -105t279 106.5t91 314.5v872h130v-880q0 -261 -128 -397.5t-372 -136.5q-242 0 -368.5 133.5zM389 1664.5q-26 26.5 -26 63.5q0 38 25.5 63.5t63.5 25.5q37 0 62.5 -26t25.5 -63
q0 -38 -25.5 -64t-62.5 -26t-63 26.5zM788 1664.5q-26 26.5 -26 63.5q0 38 25.5 63.5t63.5 25.5q37 0 63 -25.5t26 -63.5t-26 -64t-63 -26t-63 26.5zM700 1944h-98l-245 281h135z" />
    <glyph glyph-name="uni01D5.ss03" horiz-adv-x="1302" 
d="M280.5 113.5q-126.5 133.5 -126.5 390.5v890h130v-876q0 -207 88.5 -312t276.5 -105t279 106.5t91 314.5v872h130v-880q0 -261 -128 -397.5t-372 -136.5q-242 0 -368.5 133.5zM389 1664.5q-26 26.5 -26 63.5q0 38 25.5 63.5t63.5 25.5q37 0 62.5 -26t25.5 -63
q0 -38 -25.5 -64t-62.5 -26t-63 26.5zM788 1664.5q-26 26.5 -26 63.5q0 38 25.5 63.5t63.5 25.5q37 0 63 -25.5t26 -63.5t-26 -64t-63 -26t-63 26.5zM921 2037h-540v78h540v-78z" />
    <glyph glyph-name="uni1EE4.ss03" horiz-adv-x="1302" 
d="M280.5 113.5q-126.5 133.5 -126.5 390.5v890h130v-876q0 -207 88.5 -312t276.5 -105t279 106.5t91 314.5v872h130v-880q0 -261 -128 -397.5t-372 -136.5q-242 0 -368.5 133.5zM588 -324.5q-26 26.5 -26 63.5t25.5 63t63.5 26q37 0 62.5 -26t25.5 -63q0 -38 -25.5 -64
t-62.5 -26t-63 26.5z" />
    <glyph glyph-name="uni1EF0.ss03" horiz-adv-x="1467" 
d="M1319 1394h91v-98q0 -140 -64 -218.5t-197 -82.5v-481q0 -261 -128 -397.5t-372 -136.5q-242 0 -368.5 133.5t-126.5 390.5v890h130v-876q0 -207 88.5 -312t276.5 -105t279 106.5t91 314.5v872h130v-313q89 4 129.5 58.5t40.5 163.5v91zM588 -324.5q-26 26.5 -26 63.5
t25.5 63t63.5 26q37 0 62.5 -26t25.5 -63q0 -38 -25.5 -64t-62.5 -26t-63 26.5z" />
    <glyph glyph-name="Wdieresis.ss03" horiz-adv-x="1884" 
d="M1356 193l338 1201h136l-401 -1394h-133l-353 1130l-355 -1130h-133l-401 1394h137l338 -1201l347 1127h132zM681 1664.5q-26 26.5 -26 63.5q0 38 25.5 63.5t63.5 25.5q37 0 62.5 -26t25.5 -63q0 -38 -25.5 -64t-62.5 -26t-63 26.5zM1080 1664.5q-26 26.5 -26 63.5
q0 38 25.5 63.5t63.5 25.5q37 0 63 -25.5t26 -63.5t-26 -64t-63 -26t-63 26.5z" />
    <glyph glyph-name="Ydieresis.ss03" horiz-adv-x="1170" 
d="M651 0h-130v533l-493 861h149l406 -729l410 729h149l-491 -861v-533zM324 1664.5q-26 26.5 -26 63.5q0 38 25.5 63.5t63.5 25.5q37 0 62.5 -26t25.5 -63q0 -38 -25.5 -64t-62.5 -26t-63 26.5zM723 1664.5q-26 26.5 -26 63.5q0 38 25.5 63.5t63.5 25.5q37 0 63 -25.5
t26 -63.5t-26 -64t-63 -26t-63 26.5z" />
    <glyph glyph-name="uni1EF4.ss03" horiz-adv-x="1170" 
d="M651 0h-130v533l-493 861h149l406 -729l410 729h149l-491 -861v-533zM523 -324.5q-26 26.5 -26 63.5t25.5 63t63.5 26q37 0 62.5 -26t25.5 -63q0 -38 -25.5 -64t-62.5 -26t-63 26.5z" />
    <glyph glyph-name="Zdotaccent.ss03" horiz-adv-x="1121" 
d="M1039 1279l-821 -1161h843v-118h-1000v115l822 1162h-775v117h931v-115zM502 1664.5q-26 26.5 -26 63.5q0 38 25.5 63.5t63.5 25.5q37 0 62.5 -26t25.5 -63q0 -38 -25.5 -64t-62.5 -26t-63 26.5z" />
    <glyph glyph-name="a" unicode="a" horiz-adv-x="1068" 
d="M825.5 901q101.5 -100 101.5 -287v-614h-116l-8 191q-54 -105 -142 -155.5t-199 -50.5q-110 0 -190.5 37.5t-123 105.5t-42.5 159q0 145 104 220q97 69 278 69h314v38q0 135 -69.5 205.5t-205.5 70.5q-93 0 -164.5 -36t-137.5 -118l-92 76q79 98 178.5 143.5t223.5 45.5
q189 0 290.5 -100zM637.5 131.5q75.5 43.5 120 120t44.5 170.5v54h-297q-137 0 -206 -48q-68 -51 -68 -142t64.5 -144.5t177.5 -53.5q89 0 164.5 43.5z" />
    <glyph glyph-name="aacute" unicode="&#xe1;" horiz-adv-x="1068" 
d="M825.5 901q101.5 -100 101.5 -287v-614h-116l-8 191q-54 -105 -142 -155.5t-199 -50.5q-110 0 -190.5 37.5t-123 105.5t-42.5 159q0 145 104 220q97 69 278 69h314v38q0 135 -69.5 205.5t-205.5 70.5q-93 0 -164.5 -36t-137.5 -118l-92 76q79 98 178.5 143.5t223.5 45.5
q189 0 290.5 -100zM637.5 131.5q75.5 43.5 120 120t44.5 170.5v54h-297q-137 0 -206 -48q-68 -51 -68 -142t64.5 -144.5t177.5 -53.5q89 0 164.5 43.5zM591 1113h-97l215 281h136z" />
    <glyph glyph-name="abreve" unicode="&#x103;" horiz-adv-x="1068" 
d="M825.5 901q101.5 -100 101.5 -287v-614h-116l-8 191q-54 -105 -142 -155.5t-199 -50.5q-110 0 -190.5 37.5t-123 105.5t-42.5 159q0 145 104 220q97 69 278 69h314v38q0 135 -69.5 205.5t-205.5 70.5q-93 0 -164.5 -36t-137.5 -118l-92 76q79 98 178.5 143.5t223.5 45.5
q189 0 290.5 -100zM637.5 131.5q75.5 43.5 120 120t44.5 170.5v54h-297q-137 0 -206 -48q-68 -51 -68 -142t64.5 -144.5t177.5 -53.5q89 0 164.5 43.5zM243 1394h84q0 -100 55.5 -149t160.5 -49q106 0 161 49.5t55 148.5h85q0 -275 -301 -275q-300 0 -300 275z" />
    <glyph glyph-name="uni1EAF" unicode="&#x1eaf;" horiz-adv-x="1068" 
d="M825.5 901q101.5 -100 101.5 -287v-614h-116l-8 191q-54 -105 -142 -155.5t-199 -50.5q-110 0 -190.5 37.5t-123 105.5t-42.5 159q0 145 104 220q97 69 278 69h314v38q0 135 -69.5 205.5t-205.5 70.5q-93 0 -164.5 -36t-137.5 -118l-92 76q79 98 178.5 143.5t223.5 45.5
q189 0 290.5 -100zM637.5 131.5q75.5 43.5 120 120t44.5 170.5v54h-297q-137 0 -206 -48q-68 -51 -68 -142t64.5 -144.5t177.5 -53.5q89 0 164.5 43.5zM560 1372h-82l146 265h105zM243 1394h84q0 -100 55.5 -149t160.5 -49q106 0 161 49.5t55 148.5h85q0 -275 -301 -275
q-300 0 -300 275z" />
    <glyph glyph-name="uni1EB7" unicode="&#x1eb7;" horiz-adv-x="1068" 
d="M825.5 901q101.5 -100 101.5 -287v-614h-116l-8 191q-54 -105 -142 -155.5t-199 -50.5q-110 0 -190.5 37.5t-123 105.5t-42.5 159q0 145 104 220q97 69 278 69h314v38q0 135 -69.5 205.5t-205.5 70.5q-93 0 -164.5 -36t-137.5 -118l-92 76q79 98 178.5 143.5t223.5 45.5
q189 0 290.5 -100zM637.5 131.5q75.5 43.5 120 120t44.5 170.5v54h-297q-137 0 -206 -48q-68 -51 -68 -142t64.5 -144.5t177.5 -53.5q89 0 164.5 43.5zM610 -347h-135v201h135v-201zM243 1394h84q0 -100 55.5 -149t160.5 -49q106 0 161 49.5t55 148.5h85q0 -275 -301 -275
q-300 0 -300 275z" />
    <glyph glyph-name="uni1EB1" unicode="&#x1eb1;" horiz-adv-x="1068" 
d="M825.5 901q101.5 -100 101.5 -287v-614h-116l-8 191q-54 -105 -142 -155.5t-199 -50.5q-110 0 -190.5 37.5t-123 105.5t-42.5 159q0 145 104 220q97 69 278 69h314v38q0 135 -69.5 205.5t-205.5 70.5q-93 0 -164.5 -36t-137.5 -118l-92 76q79 98 178.5 143.5t223.5 45.5
q189 0 290.5 -100zM637.5 131.5q75.5 43.5 120 120t44.5 170.5v54h-297q-137 0 -206 -48q-68 -51 -68 -142t64.5 -144.5t177.5 -53.5q89 0 164.5 43.5zM610 1372h-82l-170 265h105zM243 1394h84q0 -100 55.5 -149t160.5 -49q106 0 161 49.5t55 148.5h85q0 -275 -301 -275
q-300 0 -300 275z" />
    <glyph glyph-name="uni1EB3" unicode="&#x1eb3;" horiz-adv-x="1068" 
d="M825.5 901q101.5 -100 101.5 -287v-614h-116l-8 191q-54 -105 -142 -155.5t-199 -50.5q-110 0 -190.5 37.5t-123 105.5t-42.5 159q0 145 104 220q97 69 278 69h314v38q0 135 -69.5 205.5t-205.5 70.5q-93 0 -164.5 -36t-137.5 -118l-92 76q79 98 178.5 143.5t223.5 45.5
q189 0 290.5 -100zM637.5 131.5q75.5 43.5 120 120t44.5 170.5v54h-297q-137 0 -206 -48q-68 -51 -68 -142t64.5 -144.5t177.5 -53.5q89 0 164.5 43.5zM481 1397q152 17 152 106q0 54 -54 81.5t-130 27.5h-30v71h30q119 0 190 -46.5t71 -126.5q0 -79 -57 -115t-156 -49z
M243 1394h84q0 -100 55.5 -149t160.5 -49q106 0 161 49.5t55 148.5h85q0 -275 -301 -275q-300 0 -300 275z" />
    <glyph glyph-name="uni1EB5" unicode="&#x1eb5;" horiz-adv-x="1068" 
d="M825.5 901q101.5 -100 101.5 -287v-614h-116l-8 191q-54 -105 -142 -155.5t-199 -50.5q-110 0 -190.5 37.5t-123 105.5t-42.5 159q0 145 104 220q97 69 278 69h314v38q0 135 -69.5 205.5t-205.5 70.5q-93 0 -164.5 -36t-137.5 -118l-92 76q79 98 178.5 143.5t223.5 45.5
q189 0 290.5 -100zM637.5 131.5q75.5 43.5 120 120t44.5 170.5v54h-297q-137 0 -206 -48q-68 -51 -68 -142t64.5 -144.5t177.5 -53.5q89 0 164.5 43.5zM600 1471q-29 12 -64 36q-30 21 -53.5 31.5t-57.5 10.5q-41 0 -65 -20t-36 -59l-74 5q11 65 53.5 105t114.5 40
q47 0 79 -12.5t69 -35.5q32 -19 53.5 -28t48.5 -9q37 0 60 17.5t34 55.5l77 -5q-11 -65 -52 -104.5t-112 -39.5q-46 0 -75 12zM243 1394h84q0 -100 55.5 -149t160.5 -49q106 0 161 49.5t55 148.5h85q0 -275 -301 -275q-300 0 -300 275z" />
    <glyph glyph-name="uni01CE" unicode="&#x1ce;" horiz-adv-x="1068" 
d="M825.5 901q101.5 -100 101.5 -287v-614h-116l-8 191q-54 -105 -142 -155.5t-199 -50.5q-110 0 -190.5 37.5t-123 105.5t-42.5 159q0 145 104 220q97 69 278 69h314v38q0 135 -69.5 205.5t-205.5 70.5q-93 0 -164.5 -36t-137.5 -118l-92 76q79 98 178.5 143.5t223.5 45.5
q189 0 290.5 -100zM637.5 131.5q75.5 43.5 120 120t44.5 170.5v54h-297q-137 0 -206 -48q-68 -51 -68 -142t64.5 -144.5t177.5 -53.5q89 0 164.5 43.5zM839 1394l-296 -303l-296 303h104l192 -195l193 195h103z" />
    <glyph glyph-name="acircumflex" unicode="&#xe2;" horiz-adv-x="1068" 
d="M825.5 901q101.5 -100 101.5 -287v-614h-116l-8 191q-54 -105 -142 -155.5t-199 -50.5q-110 0 -190.5 37.5t-123 105.5t-42.5 159q0 145 104 220q97 69 278 69h314v38q0 135 -69.5 205.5t-205.5 70.5q-93 0 -164.5 -36t-137.5 -118l-92 76q79 98 178.5 143.5t223.5 45.5
q189 0 290.5 -100zM637.5 131.5q75.5 43.5 120 120t44.5 170.5v54h-297q-137 0 -206 -48q-68 -51 -68 -142t64.5 -144.5t177.5 -53.5q89 0 164.5 43.5zM353 1099h-107l297 312l297 -312h-107l-190 200z" />
    <glyph glyph-name="uni1EA5" unicode="&#x1ea5;" horiz-adv-x="1068" 
d="M825.5 901q101.5 -100 101.5 -287v-614h-116l-8 191q-54 -105 -142 -155.5t-199 -50.5q-110 0 -190.5 37.5t-123 105.5t-42.5 159q0 145 104 220q97 69 278 69h314v38q0 135 -69.5 205.5t-205.5 70.5q-93 0 -164.5 -36t-137.5 -118l-92 76q79 98 178.5 143.5t223.5 45.5
q189 0 290.5 -100zM637.5 131.5q75.5 43.5 120 120t44.5 170.5v54h-297q-137 0 -206 -48q-68 -51 -68 -142t64.5 -144.5t177.5 -53.5q89 0 164.5 43.5zM784 1296h-82l150 272h107zM354 1099h-108l297 297l297 -297h-108l-189 185z" />
    <glyph glyph-name="uni1EAD" unicode="&#x1ead;" horiz-adv-x="1068" 
d="M825.5 901q101.5 -100 101.5 -287v-614h-116l-8 191q-54 -105 -142 -155.5t-199 -50.5q-110 0 -190.5 37.5t-123 105.5t-42.5 159q0 145 104 220q97 69 278 69h314v38q0 135 -69.5 205.5t-205.5 70.5q-93 0 -164.5 -36t-137.5 -118l-92 76q79 98 178.5 143.5t223.5 45.5
q189 0 290.5 -100zM637.5 131.5q75.5 43.5 120 120t44.5 170.5v54h-297q-137 0 -206 -48q-68 -51 -68 -142t64.5 -144.5t177.5 -53.5q89 0 164.5 43.5zM610 -347h-135v201h135v-201zM353 1099h-107l297 312l297 -312h-107l-190 200z" />
    <glyph glyph-name="uni1EA7" unicode="&#x1ea7;" horiz-adv-x="1068" 
d="M825.5 901q101.5 -100 101.5 -287v-614h-116l-8 191q-54 -105 -142 -155.5t-199 -50.5q-110 0 -190.5 37.5t-123 105.5t-42.5 159q0 145 104 220q97 69 278 69h314v38q0 135 -69.5 205.5t-205.5 70.5q-93 0 -164.5 -36t-137.5 -118l-92 76q79 98 178.5 143.5t223.5 45.5
q189 0 290.5 -100zM637.5 131.5q75.5 43.5 120 120t44.5 170.5v54h-297q-137 0 -206 -48q-68 -51 -68 -142t64.5 -144.5t177.5 -53.5q89 0 164.5 43.5zM889 1296h-81l-175 272h106zM356 1099h-110l297 297l297 -297h-110l-187 185z" />
    <glyph glyph-name="uni1EA9" unicode="&#x1ea9;" horiz-adv-x="1068" 
d="M825.5 901q101.5 -100 101.5 -287v-614h-116l-8 191q-54 -105 -142 -155.5t-199 -50.5q-110 0 -190.5 37.5t-123 105.5t-42.5 159q0 145 104 220q97 69 278 69h314v38q0 135 -69.5 205.5t-205.5 70.5q-93 0 -164.5 -36t-137.5 -118l-92 76q79 98 178.5 143.5t223.5 45.5
q189 0 290.5 -100zM637.5 131.5q75.5 43.5 120 120t44.5 170.5v54h-297q-137 0 -206 -48q-68 -51 -68 -142t64.5 -144.5t177.5 -53.5q89 0 164.5 43.5zM711 1321q73 13 112.5 35t39.5 70q0 54 -54 82t-130 28h-30v71h30q119 0 190 -47t71 -127q0 -55 -28 -87.5t-73 -48.5
t-112 -28zM356 1099h-110l297 297l297 -297h-110l-187 185z" />
    <glyph glyph-name="uni1EAB" unicode="&#x1eab;" horiz-adv-x="1068" 
d="M825.5 901q101.5 -100 101.5 -287v-614h-116l-8 191q-54 -105 -142 -155.5t-199 -50.5q-110 0 -190.5 37.5t-123 105.5t-42.5 159q0 145 104 220q97 69 278 69h314v38q0 135 -69.5 205.5t-205.5 70.5q-93 0 -164.5 -36t-137.5 -118l-92 76q79 98 178.5 143.5t223.5 45.5
q189 0 290.5 -100zM637.5 131.5q75.5 43.5 120 120t44.5 170.5v54h-297q-137 0 -206 -48q-68 -51 -68 -142t64.5 -144.5t177.5 -53.5q89 0 164.5 43.5zM598 1441q-29 12 -64 36q-30 21 -53.5 31.5t-57.5 10.5q-41 0 -65 -20t-36 -59l-74 5q11 65 53.5 105t114.5 40
q47 0 79 -12.5t69 -35.5q32 -19 53.5 -28t48.5 -9q37 0 60 17.5t34 55.5l77 -5q-11 -65 -52 -104.5t-112 -39.5q-46 0 -75 12zM354 1099h-108l297 297l297 -297h-107l-190 185z" />
    <glyph glyph-name="adieresis" unicode="&#xe4;" horiz-adv-x="1068" 
d="M825.5 901q101.5 -100 101.5 -287v-614h-116l-8 191q-54 -105 -142 -155.5t-199 -50.5q-110 0 -190.5 37.5t-123 105.5t-42.5 159q0 145 104 220q97 69 278 69h314v38q0 135 -69.5 205.5t-205.5 70.5q-93 0 -164.5 -36t-137.5 -118l-92 76q79 98 178.5 143.5t223.5 45.5
q189 0 290.5 -100zM637.5 131.5q75.5 43.5 120 120t44.5 170.5v54h-297q-137 0 -206 -48q-68 -51 -68 -142t64.5 -144.5t177.5 -53.5q89 0 164.5 43.5zM431 1178h-135v216h135v-216zM789 1178h-135v216h135v-216z" />
    <glyph glyph-name="uni1EA1" unicode="&#x1ea1;" horiz-adv-x="1068" 
d="M825.5 901q101.5 -100 101.5 -287v-614h-116l-8 191q-54 -105 -142 -155.5t-199 -50.5q-110 0 -190.5 37.5t-123 105.5t-42.5 159q0 145 104 220q97 69 278 69h314v38q0 135 -69.5 205.5t-205.5 70.5q-93 0 -164.5 -36t-137.5 -118l-92 76q79 98 178.5 143.5t223.5 45.5
q189 0 290.5 -100zM637.5 131.5q75.5 43.5 120 120t44.5 170.5v54h-297q-137 0 -206 -48q-68 -51 -68 -142t64.5 -144.5t177.5 -53.5q89 0 164.5 43.5zM610 -347h-135v201h135v-201z" />
    <glyph glyph-name="agrave" unicode="&#xe0;" horiz-adv-x="1068" 
d="M825.5 901q101.5 -100 101.5 -287v-614h-116l-8 191q-54 -105 -142 -155.5t-199 -50.5q-110 0 -190.5 37.5t-123 105.5t-42.5 159q0 145 104 220q97 69 278 69h314v38q0 135 -69.5 205.5t-205.5 70.5q-93 0 -164.5 -36t-137.5 -118l-92 76q79 98 178.5 143.5t223.5 45.5
q189 0 290.5 -100zM637.5 131.5q75.5 43.5 120 120t44.5 170.5v54h-297q-137 0 -206 -48q-68 -51 -68 -142t64.5 -144.5t177.5 -53.5q89 0 164.5 43.5zM592 1113h-98l-245 281h135z" />
    <glyph glyph-name="uni1EA3" unicode="&#x1ea3;" horiz-adv-x="1068" 
d="M825.5 901q101.5 -100 101.5 -287v-614h-116l-8 191q-54 -105 -142 -155.5t-199 -50.5q-110 0 -190.5 37.5t-123 105.5t-42.5 159q0 145 104 220q97 69 278 69h314v38q0 135 -69.5 205.5t-205.5 70.5q-93 0 -164.5 -36t-137.5 -118l-92 76q79 98 178.5 143.5t223.5 45.5
q189 0 290.5 -100zM637.5 131.5q75.5 43.5 120 120t44.5 170.5v54h-297q-137 0 -206 -48q-68 -51 -68 -142t64.5 -144.5t177.5 -53.5q89 0 164.5 43.5zM503 1103q75 14 118 36t43 71q0 55 -55 82t-139 27h-31v76h31q83 0 148.5 -21.5t103 -61.5t37.5 -95t-36 -88.5
t-88 -49.5t-122 -27z" />
    <glyph glyph-name="amacron" unicode="&#x101;" horiz-adv-x="1068" 
d="M825.5 901q101.5 -100 101.5 -287v-614h-116l-8 191q-54 -105 -142 -155.5t-199 -50.5q-110 0 -190.5 37.5t-123 105.5t-42.5 159q0 145 104 220q97 69 278 69h314v38q0 135 -69.5 205.5t-205.5 70.5q-93 0 -164.5 -36t-137.5 -118l-92 76q79 98 178.5 143.5t223.5 45.5
q189 0 290.5 -100zM637.5 131.5q75.5 43.5 120 120t44.5 170.5v54h-297q-137 0 -206 -48q-68 -51 -68 -142t64.5 -144.5t177.5 -53.5q89 0 164.5 43.5zM813 1206h-540v78h540v-78z" />
    <glyph glyph-name="aogonek" unicode="&#x105;" horiz-adv-x="1068" 
d="M1005 -339q-81 -86 -183 -86q-77 0 -127 43.5t-50 118.5q0 80 50 148t123 115h-7l-8 191q-54 -105 -142 -155.5t-199 -50.5q-110 0 -190.5 37.5t-123 105.5t-42.5 159q0 145 104 220q97 69 278 69h314v38q0 135 -69.5 205.5t-205.5 70.5q-93 0 -164.5 -36t-137.5 -118
l-92 76q79 98 178.5 143.5t223.5 45.5q189 0 290.5 -100t101.5 -287v-614q-84 -47 -143.5 -113.5t-59.5 -137.5q0 -47 26.5 -70t67.5 -23q66 0 124 55zM637.5 131.5q75.5 43.5 120 120t44.5 170.5v54h-297q-137 0 -206 -48q-68 -51 -68 -142t64.5 -144.5t177.5 -53.5
q89 0 164.5 43.5z" />
    <glyph glyph-name="aring" unicode="&#xe5;" horiz-adv-x="1068" 
d="M825.5 901q101.5 -100 101.5 -287v-614h-116l-8 191q-54 -105 -142 -155.5t-199 -50.5q-110 0 -190.5 37.5t-123 105.5t-42.5 159q0 145 104 220q97 69 278 69h314v38q0 135 -69.5 205.5t-205.5 70.5q-93 0 -164.5 -36t-137.5 -118l-92 76q79 98 178.5 143.5t223.5 45.5
q189 0 290.5 -100zM637.5 131.5q75.5 43.5 120 120t44.5 170.5v54h-297q-137 0 -206 -48q-68 -51 -68 -142t64.5 -144.5t177.5 -53.5q89 0 164.5 43.5zM447 1107q-44 26 -69 69.5t-25 94.5q0 52 25.5 95.5t69 69t95.5 25.5q50 0 94 -25.5t70 -69t26 -95.5t-25.5 -95.5
t-69 -69t-95.5 -25.5t-96 26zM626.5 1188q33.5 34 33.5 84t-33 83.5t-84 33.5t-84 -33.5t-33 -83.5q0 -51 33.5 -84.5t83.5 -33.5t83.5 34z" />
    <glyph glyph-name="aringacute" unicode="&#x1fb;" horiz-adv-x="1068" 
d="M447 1107q-44 26 -69 69.5t-25 94.5q0 52 25.5 95.5t69 69t95.5 25.5q50 0 94 -25l172 224h136l-250 -276q38 -51 38 -113q0 -52 -25.5 -95.5t-69 -69t-95.5 -25.5t-96 26zM459 1355.5q-33 -33.5 -33 -83.5q0 -51 33.5 -84.5t83.5 -33.5t83.5 34t33.5 84t-33 83.5
t-84 33.5t-84 -33.5zM825.5 901q101.5 -100 101.5 -287v-614h-116l-8 191q-54 -105 -142 -155.5t-199 -50.5q-110 0 -190.5 37.5t-123 105.5t-42.5 159q0 145 104 220q97 69 278 69h314v38q0 135 -69.5 205.5t-205.5 70.5q-93 0 -164.5 -36t-137.5 -118l-92 76
q79 98 178.5 143.5t223.5 45.5q189 0 290.5 -100zM637.5 131.5q75.5 43.5 120 120t44.5 170.5v54h-297q-137 0 -206 -48q-68 -51 -68 -142t64.5 -144.5t177.5 -53.5q89 0 164.5 43.5z" />
    <glyph glyph-name="atilde" unicode="&#xe3;" horiz-adv-x="1068" 
d="M825.5 901q101.5 -100 101.5 -287v-614h-116l-8 191q-54 -105 -142 -155.5t-199 -50.5q-110 0 -190.5 37.5t-123 105.5t-42.5 159q0 145 104 220q97 69 278 69h314v38q0 135 -69.5 205.5t-205.5 70.5q-93 0 -164.5 -36t-137.5 -118l-92 76q79 98 178.5 143.5t223.5 45.5
q189 0 290.5 -100zM637.5 131.5q75.5 43.5 120 120t44.5 170.5v54h-297q-137 0 -206 -48q-68 -51 -68 -142t64.5 -144.5t177.5 -53.5q89 0 164.5 43.5zM608.5 1159q-30.5 14 -50.5 34t-45 53q-30 39 -52 57t-55 17q-48 1 -75 -40.5t-27 -117.5h-77q0 113 49 176.5t135 63.5
q38 0 66 -13.5t47 -32.5t44 -51q31 -40 55.5 -59.5t59.5 -19.5q41 0 68 45.5t27 122.5h80q0 -115 -48 -182t-129 -67q-42 0 -72.5 14z" />
    <glyph glyph-name="ae" unicode="&#xe6;" horiz-adv-x="1706" 
d="M240 22q-78 37 -119 104.5t-41 156.5q0 160 126 222t317 62h255v47q0 135 -69.5 205.5t-203.5 70.5q-92 0 -165.5 -35.5t-135.5 -118.5l-92 76q84 100 180.5 144.5t224.5 44.5q142 0 229.5 -62t113.5 -180q49 112 136.5 174.5t204.5 62.5q146 0 239 -62.5t135 -162.5
t42 -217q0 -56 -6 -95h-716q5 -169 86 -263t227 -94q95 0 161.5 28.5t131.5 96.5l89 -79q-88 -93 -175 -128t-210 -35q-146 0 -245 78.5t-138 220.5h-14q-57 -165 -155 -232t-228 -67q-107 0 -185 37zM1499 554q2 47 -11 73q-6 64 -36.5 124t-93 99.5t-157.5 39.5
q-92 0 -160 -44t-105.5 -120t-41.5 -172h605zM668 182q92 88 110 268l7 23h-255q-322 0 -322 -192q0 -86 61.5 -136.5t169.5 -50.5q137 0 229 88z" />
    <glyph glyph-name="aeacute" unicode="&#x1fd;" horiz-adv-x="1706" 
d="M240 22q-78 37 -119 104.5t-41 156.5q0 160 126 222t317 62h255v47q0 135 -69.5 205.5t-203.5 70.5q-92 0 -165.5 -35.5t-135.5 -118.5l-92 76q84 100 180.5 144.5t224.5 44.5q142 0 229.5 -62t113.5 -180q49 112 136.5 174.5t204.5 62.5q146 0 239 -62.5t135 -162.5
t42 -217q0 -56 -6 -95h-716q5 -169 86 -263t227 -94q95 0 161.5 28.5t131.5 96.5l89 -79q-88 -93 -175 -128t-210 -35q-146 0 -245 78.5t-138 220.5h-14q-57 -165 -155 -232t-228 -67q-107 0 -185 37zM1499 554q2 47 -11 73q-6 64 -36.5 124t-93 99.5t-157.5 39.5
q-92 0 -160 -44t-105.5 -120t-41.5 -172h605zM668 182q92 88 110 268l7 23h-255q-322 0 -322 -192q0 -86 61.5 -136.5t169.5 -50.5q137 0 229 88zM901 1113h-97l215 281h136z" />
    <glyph glyph-name="b" unicode="b" horiz-adv-x="1183" 
d="M856 937q102 -64 160.5 -179t58.5 -264q0 -144 -56.5 -260t-158.5 -182.5t-233 -66.5q-113 0 -202.5 48.5t-146.5 141.5v-175h-125v1394h125v-583q54 90 144 140t205 50q127 0 229 -64zM783.5 152.5q78.5 50.5 122.5 139.5t44 202q0 112 -44 201.5t-122.5 139.5
t-176.5 50t-175 -50t-120.5 -139t-43.5 -202t43.5 -202.5t120.5 -139.5t175 -50t176.5 50.5z" />
    <glyph glyph-name="c" unicode="c" horiz-adv-x="1032" 
d="M314.5 52q-100.5 67 -153.5 183t-53 259q0 142 53 257.5t153.5 182.5t235.5 67q139 0 239.5 -69t148.5 -200l-112 -44q-33 96 -103.5 149t-172.5 53q-103 0 -174.5 -54t-106.5 -144t-35 -198q0 -109 35 -199.5t106.5 -144.5t174.5 -54q102 0 172.5 53t103.5 149l112 -44
q-48 -130 -149 -199.5t-239 -69.5q-135 0 -235.5 67z" />
    <glyph glyph-name="cacute" unicode="&#x107;" horiz-adv-x="1032" 
d="M314.5 52q-100.5 67 -153.5 183t-53 259q0 142 53 257.5t153.5 182.5t235.5 67q139 0 239.5 -69t148.5 -200l-112 -44q-33 96 -103.5 149t-172.5 53q-103 0 -174.5 -54t-106.5 -144t-35 -198q0 -109 35 -199.5t106.5 -144.5t174.5 -54q102 0 172.5 53t103.5 149l112 -44
q-48 -130 -149 -199.5t-239 -69.5q-135 0 -235.5 67zM586 1113h-97l215 281h136z" />
    <glyph glyph-name="ccaron" unicode="&#x10d;" horiz-adv-x="1032" 
d="M314.5 52q-100.5 67 -153.5 183t-53 259q0 142 53 257.5t153.5 182.5t235.5 67q139 0 239.5 -69t148.5 -200l-112 -44q-33 96 -103.5 149t-172.5 53q-103 0 -174.5 -54t-106.5 -144t-35 -198q0 -109 35 -199.5t106.5 -144.5t174.5 -54q102 0 172.5 53t103.5 149l112 -44
q-48 -130 -149 -199.5t-239 -69.5q-135 0 -235.5 67zM834 1394l-296 -303l-296 303h104l192 -195l193 195h103z" />
    <glyph glyph-name="ccedilla" unicode="&#xe7;" horiz-adv-x="1032" 
d="M722.5 149q70.5 53 103.5 149l112 -44q-43 -117 -129.5 -185t-204.5 -81l-76 -122q89 -15 145 -56.5t56 -125.5q0 -58 -25.5 -101.5t-72.5 -68t-109 -24.5q-51 0 -101 25.5t-76 71.5l47 60q19 -36 54.5 -58.5t76.5 -22.5q60 0 93 29.5t33 85.5q0 76 -64.5 101.5
t-162.5 29.5l100 174q-127 7 -221 75.5t-143.5 181.5t-49.5 251q0 142 53 257.5t153.5 182.5t235.5 67q139 0 239.5 -69t148.5 -200l-112 -44q-33 96 -103.5 149t-172.5 53q-103 0 -174.5 -54t-106.5 -144t-35 -198q0 -109 35 -199.5t106.5 -144.5t174.5 -54q102 0 172.5 53
z" />
    <glyph glyph-name="ccircumflex" unicode="&#x109;" horiz-adv-x="1032" 
d="M314.5 52q-100.5 67 -153.5 183t-53 259q0 142 53 257.5t153.5 182.5t235.5 67q139 0 239.5 -69t148.5 -200l-112 -44q-33 96 -103.5 149t-172.5 53q-103 0 -174.5 -54t-106.5 -144t-35 -198q0 -109 35 -199.5t106.5 -144.5t174.5 -54q102 0 172.5 53t103.5 149l112 -44
q-48 -130 -149 -199.5t-239 -69.5q-135 0 -235.5 67zM348 1099h-107l297 312l297 -312h-107l-190 200z" />
    <glyph glyph-name="cdotaccent" unicode="&#x10b;" horiz-adv-x="1032" 
d="M314.5 52q-100.5 67 -153.5 183t-53 259q0 142 53 257.5t153.5 182.5t235.5 67q139 0 239.5 -69t148.5 -200l-112 -44q-33 96 -103.5 149t-172.5 53q-103 0 -174.5 -54t-106.5 -144t-35 -198q0 -109 35 -199.5t106.5 -144.5t174.5 -54q102 0 172.5 53t103.5 149l112 -44
q-48 -130 -149 -199.5t-239 -69.5q-135 0 -235.5 67zM605 1178h-135v216h135v-216z" />
    <glyph glyph-name="d" unicode="d" horiz-adv-x="1183" 
d="M905 1394h125v-1394h-125v175q-57 -93 -146.5 -141.5t-202.5 -48.5q-131 0 -233 66.5t-158.5 182.5t-56.5 260q0 149 58.5 264t160.5 179t229 64q115 0 205 -50t144 -140v583zM751 152q77 50 120.5 139.5t43.5 202.5t-43.5 202t-120.5 139t-175 50t-176.5 -50
t-122.5 -139.5t-44 -201.5q0 -113 44 -202t122.5 -139.5t176.5 -50.5t175 50z" />
    <glyph glyph-name="eth" unicode="&#xf0;" horiz-adv-x="1194" 
d="M1158 1295l-210 -65q74 -85 106.5 -208t32.5 -291q0 -211 -64 -380t-192.5 -267.5t-313.5 -98.5q-130 0 -227.5 56t-150 156t-52.5 229q0 168 72 299.5t196.5 204.5t278.5 73q97 0 169 -45t114.5 -117.5t57.5 -158.5q4 48 4 103q0 139 -34 241t-104 171l-330 -102l-15 55
l292 90q-152 104 -442 110l9 87q193 -7 327 -47.5t220 -114.5l242 75zM950 551q0 86 -32.5 165.5t-101 130.5t-170.5 51q-136 0 -236 -62.5t-152.5 -169.5t-52.5 -238q0 -101 41 -176.5t113 -116t164 -40.5q120 0 211 55t145 147t68 202q3 26 3 52z" />
    <glyph glyph-name="dcaron" unicode="&#x10f;" horiz-adv-x="1408" 
d="M905 1394h125v-1394h-125v175q-57 -93 -146.5 -141.5t-202.5 -48.5q-131 0 -233 66.5t-158.5 182.5t-56.5 260q0 149 58.5 264t160.5 179t229 64q115 0 205 -50t144 -140v583zM751 152q77 50 120.5 139.5t43.5 202.5t-43.5 202t-120.5 139t-175 50t-176.5 -50
t-122.5 -139.5t-44 -201.5q0 -113 44 -202t122.5 -139.5t176.5 -50.5t175 50zM1219 981h-79l116 413h132z" />
    <glyph glyph-name="dcroat" unicode="&#x111;" horiz-adv-x="1183" 
d="M1164 1246v-88h-134v-1158h-125v175q-57 -93 -146.5 -141.5t-202.5 -48.5q-131 0 -233 66.5t-158.5 182.5t-56.5 260q0 149 58.5 264t160.5 179t229 64q115 0 205 -50t144 -140v347h-268v88h268v148h125v-148h134zM751 152q77 50 120.5 139.5t43.5 202.5t-43.5 202
t-120.5 139t-175 50t-176.5 -50t-122.5 -139.5t-44 -201.5q0 -113 44 -202t122.5 -139.5t176.5 -50.5t175 50z" />
    <glyph glyph-name="e" unicode="e" horiz-adv-x="1075" 
d="M965 459h-729q2 -111 41.5 -192t112 -124t171.5 -43q92 0 158.5 28.5t132.5 98.5l89 -79q-84 -86 -172.5 -124.5t-207.5 -38.5q-144 0 -245.5 65.5t-153.5 179t-52 257.5q0 143 51 260t149 185.5t235 68.5q143 0 238.5 -65.5t141 -169.5t45.5 -221q0 -43 -5 -86zM849 558
q1 11 1 30q0 76 -32.5 146t-101 115t-169.5 45q-90 0 -157.5 -43.5t-107 -119.5t-47.5 -173h614z" />
    <glyph glyph-name="eacute" unicode="&#xe9;" horiz-adv-x="1075" 
d="M965 459h-729q2 -111 41.5 -192t112 -124t171.5 -43q92 0 158.5 28.5t132.5 98.5l89 -79q-84 -86 -172.5 -124.5t-207.5 -38.5q-144 0 -245.5 65.5t-153.5 179t-52 257.5q0 143 51 260t149 185.5t235 68.5q143 0 238.5 -65.5t141 -169.5t45.5 -221q0 -43 -5 -86zM849 558
q1 11 1 30q0 76 -32.5 146t-101 115t-169.5 45q-90 0 -157.5 -43.5t-107 -119.5t-47.5 -173h614zM593 1113h-97l215 281h136z" />
    <glyph glyph-name="ebreve" unicode="&#x115;" horiz-adv-x="1075" 
d="M965 459h-729q2 -111 41.5 -192t112 -124t171.5 -43q92 0 158.5 28.5t132.5 98.5l89 -79q-84 -86 -172.5 -124.5t-207.5 -38.5q-144 0 -245.5 65.5t-153.5 179t-52 257.5q0 143 51 260t149 185.5t235 68.5q143 0 238.5 -65.5t141 -169.5t45.5 -221q0 -43 -5 -86zM849 558
q1 11 1 30q0 76 -32.5 146t-101 115t-169.5 45q-90 0 -157.5 -43.5t-107 -119.5t-47.5 -173h614zM245 1394h84q0 -100 55.5 -149t160.5 -49q106 0 161 49.5t55 148.5h85q0 -275 -301 -275q-300 0 -300 275z" />
    <glyph glyph-name="ecaron" unicode="&#x11b;" horiz-adv-x="1075" 
d="M965 459h-729q2 -111 41.5 -192t112 -124t171.5 -43q92 0 158.5 28.5t132.5 98.5l89 -79q-84 -86 -172.5 -124.5t-207.5 -38.5q-144 0 -245.5 65.5t-153.5 179t-52 257.5q0 143 51 260t149 185.5t235 68.5q143 0 238.5 -65.5t141 -169.5t45.5 -221q0 -43 -5 -86zM849 558
q1 11 1 30q0 76 -32.5 146t-101 115t-169.5 45q-90 0 -157.5 -43.5t-107 -119.5t-47.5 -173h614zM841 1394l-296 -303l-296 303h104l192 -195l193 195h103z" />
    <glyph glyph-name="ecircumflex" unicode="&#xea;" horiz-adv-x="1075" 
d="M965 459h-729q2 -111 41.5 -192t112 -124t171.5 -43q92 0 158.5 28.5t132.5 98.5l89 -79q-84 -86 -172.5 -124.5t-207.5 -38.5q-144 0 -245.5 65.5t-153.5 179t-52 257.5q0 143 51 260t149 185.5t235 68.5q143 0 238.5 -65.5t141 -169.5t45.5 -221q0 -43 -5 -86zM849 558
q1 11 1 30q0 76 -32.5 146t-101 115t-169.5 45q-90 0 -157.5 -43.5t-107 -119.5t-47.5 -173h614zM355 1099h-107l297 312l297 -312h-107l-190 200z" />
    <glyph glyph-name="uni1EBF" unicode="&#x1ebf;" horiz-adv-x="1075" 
d="M965 459h-729q2 -111 41.5 -192t112 -124t171.5 -43q92 0 158.5 28.5t132.5 98.5l89 -79q-84 -86 -172.5 -124.5t-207.5 -38.5q-144 0 -245.5 65.5t-153.5 179t-52 257.5q0 143 51 260t149 185.5t235 68.5q143 0 238.5 -65.5t141 -169.5t45.5 -221q0 -43 -5 -86zM849 558
q1 11 1 30q0 76 -32.5 146t-101 115t-169.5 45q-90 0 -157.5 -43.5t-107 -119.5t-47.5 -173h614zM786 1296h-82l150 272h107zM356 1099h-108l297 297l297 -297h-108l-189 185z" />
    <glyph glyph-name="uni1EC7" unicode="&#x1ec7;" horiz-adv-x="1075" 
d="M965 459h-729q2 -111 41.5 -192t112 -124t171.5 -43q92 0 158.5 28.5t132.5 98.5l89 -79q-84 -86 -172.5 -124.5t-207.5 -38.5q-144 0 -245.5 65.5t-153.5 179t-52 257.5q0 143 51 260t149 185.5t235 68.5q143 0 238.5 -65.5t141 -169.5t45.5 -221q0 -43 -5 -86zM849 558
q1 11 1 30q0 76 -32.5 146t-101 115t-169.5 45q-90 0 -157.5 -43.5t-107 -119.5t-47.5 -173h614zM628 -347h-135v201h135v-201zM355 1099h-107l297 312l297 -312h-107l-190 200z" />
    <glyph glyph-name="uni1EC1" unicode="&#x1ec1;" horiz-adv-x="1075" 
d="M965 459h-729q2 -111 41.5 -192t112 -124t171.5 -43q92 0 158.5 28.5t132.5 98.5l89 -79q-84 -86 -172.5 -124.5t-207.5 -38.5q-144 0 -245.5 65.5t-153.5 179t-52 257.5q0 143 51 260t149 185.5t235 68.5q143 0 238.5 -65.5t141 -169.5t45.5 -221q0 -43 -5 -86zM849 558
q1 11 1 30q0 76 -32.5 146t-101 115t-169.5 45q-90 0 -157.5 -43.5t-107 -119.5t-47.5 -173h614zM891 1296h-81l-175 272h106zM358 1099h-110l297 297l297 -297h-110l-187 185z" />
    <glyph glyph-name="uni1EC3" unicode="&#x1ec3;" horiz-adv-x="1075" 
d="M965 459h-729q2 -111 41.5 -192t112 -124t171.5 -43q92 0 158.5 28.5t132.5 98.5l89 -79q-84 -86 -172.5 -124.5t-207.5 -38.5q-144 0 -245.5 65.5t-153.5 179t-52 257.5q0 143 51 260t149 185.5t235 68.5q143 0 238.5 -65.5t141 -169.5t45.5 -221q0 -43 -5 -86zM849 558
q1 11 1 30q0 76 -32.5 146t-101 115t-169.5 45q-90 0 -157.5 -43.5t-107 -119.5t-47.5 -173h614zM713 1321q73 13 112.5 35t39.5 70q0 54 -54 82t-130 28h-30v71h30q119 0 190 -47t71 -127q0 -55 -28 -87.5t-73 -48.5t-112 -28zM358 1099h-110l297 297l297 -297h-110
l-187 185z" />
    <glyph glyph-name="uni1EC5" unicode="&#x1ec5;" horiz-adv-x="1075" 
d="M965 459h-729q2 -111 41.5 -192t112 -124t171.5 -43q92 0 158.5 28.5t132.5 98.5l89 -79q-84 -86 -172.5 -124.5t-207.5 -38.5q-144 0 -245.5 65.5t-153.5 179t-52 257.5q0 143 51 260t149 185.5t235 68.5q143 0 238.5 -65.5t141 -169.5t45.5 -221q0 -43 -5 -86zM849 558
q1 11 1 30q0 76 -32.5 146t-101 115t-169.5 45q-90 0 -157.5 -43.5t-107 -119.5t-47.5 -173h614zM600 1441q-29 12 -64 36q-30 21 -53.5 31.5t-57.5 10.5q-41 0 -65 -20t-36 -59l-74 5q11 65 53.5 105t114.5 40q47 0 79 -12.5t69 -35.5q32 -19 53.5 -28t48.5 -9
q37 0 60 17.5t34 55.5l77 -5q-11 -65 -52 -104.5t-112 -39.5q-46 0 -75 12zM356 1099h-108l297 297l297 -297h-107l-190 185z" />
    <glyph glyph-name="edieresis" unicode="&#xeb;" horiz-adv-x="1075" 
d="M965 459h-729q2 -111 41.5 -192t112 -124t171.5 -43q92 0 158.5 28.5t132.5 98.5l89 -79q-84 -86 -172.5 -124.5t-207.5 -38.5q-144 0 -245.5 65.5t-153.5 179t-52 257.5q0 143 51 260t149 185.5t235 68.5q143 0 238.5 -65.5t141 -169.5t45.5 -221q0 -43 -5 -86zM849 558
q1 11 1 30q0 76 -32.5 146t-101 115t-169.5 45q-90 0 -157.5 -43.5t-107 -119.5t-47.5 -173h614zM433 1178h-135v216h135v-216zM791 1178h-135v216h135v-216z" />
    <glyph glyph-name="edotaccent" unicode="&#x117;" horiz-adv-x="1075" 
d="M965 459h-729q2 -111 41.5 -192t112 -124t171.5 -43q92 0 158.5 28.5t132.5 98.5l89 -79q-84 -86 -172.5 -124.5t-207.5 -38.5q-144 0 -245.5 65.5t-153.5 179t-52 257.5q0 143 51 260t149 185.5t235 68.5q143 0 238.5 -65.5t141 -169.5t45.5 -221q0 -43 -5 -86zM849 558
q1 11 1 30q0 76 -32.5 146t-101 115t-169.5 45q-90 0 -157.5 -43.5t-107 -119.5t-47.5 -173h614zM612 1178h-135v216h135v-216z" />
    <glyph glyph-name="uni1EB9" unicode="&#x1eb9;" horiz-adv-x="1075" 
d="M965 459h-729q2 -111 41.5 -192t112 -124t171.5 -43q92 0 158.5 28.5t132.5 98.5l89 -79q-84 -86 -172.5 -124.5t-207.5 -38.5q-144 0 -245.5 65.5t-153.5 179t-52 257.5q0 143 51 260t149 185.5t235 68.5q143 0 238.5 -65.5t141 -169.5t45.5 -221q0 -43 -5 -86zM849 558
q1 11 1 30q0 76 -32.5 146t-101 115t-169.5 45q-90 0 -157.5 -43.5t-107 -119.5t-47.5 -173h614zM628 -347h-135v201h135v-201z" />
    <glyph glyph-name="egrave" unicode="&#xe8;" horiz-adv-x="1075" 
d="M965 459h-729q2 -111 41.5 -192t112 -124t171.5 -43q92 0 158.5 28.5t132.5 98.5l89 -79q-84 -86 -172.5 -124.5t-207.5 -38.5q-144 0 -245.5 65.5t-153.5 179t-52 257.5q0 143 51 260t149 185.5t235 68.5q143 0 238.5 -65.5t141 -169.5t45.5 -221q0 -43 -5 -86zM849 558
q1 11 1 30q0 76 -32.5 146t-101 115t-169.5 45q-90 0 -157.5 -43.5t-107 -119.5t-47.5 -173h614zM594 1113h-98l-245 281h135z" />
    <glyph glyph-name="uni1EBB" unicode="&#x1ebb;" horiz-adv-x="1075" 
d="M965 459h-729q2 -111 41.5 -192t112 -124t171.5 -43q92 0 158.5 28.5t132.5 98.5l89 -79q-84 -86 -172.5 -124.5t-207.5 -38.5q-144 0 -245.5 65.5t-153.5 179t-52 257.5q0 143 51 260t149 185.5t235 68.5q143 0 238.5 -65.5t141 -169.5t45.5 -221q0 -43 -5 -86zM849 558
q1 11 1 30q0 76 -32.5 146t-101 115t-169.5 45q-90 0 -157.5 -43.5t-107 -119.5t-47.5 -173h614zM505 1103q75 14 118 36t43 71q0 55 -55 82t-139 27h-31v76h31q83 0 148.5 -21.5t103 -61.5t37.5 -95t-36 -88.5t-88 -49.5t-122 -27z" />
    <glyph glyph-name="emacron" unicode="&#x113;" horiz-adv-x="1075" 
d="M965 459h-729q2 -111 41.5 -192t112 -124t171.5 -43q92 0 158.5 28.5t132.5 98.5l89 -79q-84 -86 -172.5 -124.5t-207.5 -38.5q-144 0 -245.5 65.5t-153.5 179t-52 257.5q0 143 51 260t149 185.5t235 68.5q143 0 238.5 -65.5t141 -169.5t45.5 -221q0 -43 -5 -86zM849 558
q1 11 1 30q0 76 -32.5 146t-101 115t-169.5 45q-90 0 -157.5 -43.5t-107 -119.5t-47.5 -173h614zM815 1206h-540v78h540v-78z" />
    <glyph glyph-name="eogonek" unicode="&#x119;" horiz-adv-x="1075" 
d="M965 459h-729q2 -111 41.5 -192t112 -124t171.5 -43q92 0 158.5 28.5t132.5 98.5l89 -79q-62 -64 -125.5 -101t-138.5 -52q-81 -47 -138 -111.5t-57 -134.5q0 -47 26.5 -70t67.5 -23q66 0 124 55l63 -50q-81 -86 -183 -86q-77 0 -127 43.5t-50 118.5q0 74 43 137.5
t108 110.5q-141 1 -241.5 67t-151.5 179t-51 256t51 260t149 185.5t235 68.5q143 0 238.5 -65.5t141 -169.5t45.5 -221q0 -43 -5 -86zM849 558q1 11 1 30q0 76 -32.5 146t-101 115t-169.5 45q-90 0 -157.5 -43.5t-107 -119.5t-47.5 -173h614z" />
    <glyph glyph-name="uni1EBD" unicode="&#x1ebd;" horiz-adv-x="1075" 
d="M965 459h-729q2 -111 41.5 -192t112 -124t171.5 -43q92 0 158.5 28.5t132.5 98.5l89 -79q-84 -86 -172.5 -124.5t-207.5 -38.5q-144 0 -245.5 65.5t-153.5 179t-52 257.5q0 143 51 260t149 185.5t235 68.5q143 0 238.5 -65.5t141 -169.5t45.5 -221q0 -43 -5 -86zM849 558
q1 11 1 30q0 76 -32.5 146t-101 115t-169.5 45q-90 0 -157.5 -43.5t-107 -119.5t-47.5 -173h614zM610.5 1159q-30.5 14 -50.5 34t-45 53q-30 39 -52 57t-55 17q-48 1 -75 -40.5t-27 -117.5h-77q0 113 49 176.5t135 63.5q38 0 66 -13.5t47 -32.5t44 -51q31 -40 55.5 -59.5
t59.5 -19.5q41 0 68 45.5t27 122.5h80q0 -115 -48 -182t-129 -67q-42 0 -72.5 14z" />
    <glyph glyph-name="uni0259" unicode="&#x259;" horiz-adv-x="1075" 
d="M759.5 935.5q101.5 -65.5 153.5 -179t52 -257.5q0 -143 -51 -260t-149 -185.5t-235 -68.5q-143 0 -238.5 65.5t-141 169.5t-45.5 221q0 43 5 86h729q-2 111 -41.5 192t-112 124t-171.5 43q-92 0 -158.5 -28.5t-132.5 -98.5l-89 79q84 86 172.5 124.5t207.5 38.5
q144 0 245.5 -65.5zM685.5 135.5q67.5 43.5 107 119.5t47.5 173h-614q-1 -11 -1 -30q0 -76 32.5 -146t101 -115t169.5 -45q90 0 157.5 43.5z" />
    <glyph glyph-name="f" unicode="f" horiz-adv-x="693" 
d="M263 0v886h-218v100h219v142q0 146 69 213.5t190 67.5q89 0 165 -38l-41 -96q-54 27 -111 27q-73 0 -110 -44.5t-37 -130.5v-141h240v-100h-240v-886h-126z" />
    <glyph glyph-name="g" unicode="g" horiz-adv-x="1026" 
d="M731 69.5q87 -21.5 147 -73.5t60 -147q0 -132 -108 -202.5t-296 -70.5q-140 0 -242 35t-156.5 101t-54.5 158q0 30 4 54l171 134q-69 30 -105 76t-36 116q0 60 26 105t78 81q-41 43 -63 100t-22 123q0 99 48.5 177t132.5 121.5t187 43.5q73 0 137.5 -23t113.5 -66
l156 135l66 -82l-154 -135q46 -79 46 -176t-46 -172t-128 -116t-189 -41q-116 0 -204 48q-69 -45 -69 -110q0 -49 30 -77.5t81.5 -43t137.5 -26.5q164 -25 251 -46.5zM376 864q-55 -30 -86 -83.5t-31 -121.5q0 -67 29.5 -120t85 -83t128.5 -30t127 30t83.5 82.5t29.5 119.5
q0 70 -30 123.5t-84 83t-125 29.5q-72 0 -127 -30zM735 -286q78 41 78 122q0 57 -40.5 88.5t-104.5 47t-185 34.5l-22 3q-77 11 -115 21l-138 -135q-2 -11 -2 -29q0 -93 90 -143t238 -50q123 0 201 41z" />
    <glyph glyph-name="gbreve" unicode="&#x11f;" horiz-adv-x="1026" 
d="M731 69.5q87 -21.5 147 -73.5t60 -147q0 -132 -108 -202.5t-296 -70.5q-140 0 -242 35t-156.5 101t-54.5 158q0 30 4 54l171 134q-69 30 -105 76t-36 116q0 60 26 105t78 81q-41 43 -63 100t-22 123q0 99 48.5 177t132.5 121.5t187 43.5q73 0 137.5 -23t113.5 -66
l156 135l66 -82l-154 -135q46 -79 46 -176t-46 -172t-128 -116t-189 -41q-116 0 -204 48q-69 -45 -69 -110q0 -49 30 -77.5t81.5 -43t137.5 -26.5q164 -25 251 -46.5zM376 864q-55 -30 -86 -83.5t-31 -121.5q0 -67 29.5 -120t85 -83t128.5 -30t127 30t83.5 82.5t29.5 119.5
q0 70 -30 123.5t-84 83t-125 29.5q-72 0 -127 -30zM735 -286q78 41 78 122q0 57 -40.5 88.5t-104.5 47t-185 34.5l-22 3q-77 11 -115 21l-138 -135q-2 -11 -2 -29q0 -93 90 -143t238 -50q123 0 201 41zM208 1394h84q0 -100 55.5 -149t160.5 -49q106 0 161 49.5t55 148.5h85
q0 -275 -301 -275q-300 0 -300 275z" />
    <glyph glyph-name="gcaron" unicode="&#x1e7;" horiz-adv-x="1026" 
d="M731 69.5q87 -21.5 147 -73.5t60 -147q0 -132 -108 -202.5t-296 -70.5q-140 0 -242 35t-156.5 101t-54.5 158q0 30 4 54l171 134q-69 30 -105 76t-36 116q0 60 26 105t78 81q-41 43 -63 100t-22 123q0 99 48.5 177t132.5 121.5t187 43.5q73 0 137.5 -23t113.5 -66
l156 135l66 -82l-154 -135q46 -79 46 -176t-46 -172t-128 -116t-189 -41q-116 0 -204 48q-69 -45 -69 -110q0 -49 30 -77.5t81.5 -43t137.5 -26.5q164 -25 251 -46.5zM376 864q-55 -30 -86 -83.5t-31 -121.5q0 -67 29.5 -120t85 -83t128.5 -30t127 30t83.5 82.5t29.5 119.5
q0 70 -30 123.5t-84 83t-125 29.5q-72 0 -127 -30zM735 -286q78 41 78 122q0 57 -40.5 88.5t-104.5 47t-185 34.5l-22 3q-77 11 -115 21l-138 -135q-2 -11 -2 -29q0 -93 90 -143t238 -50q123 0 201 41zM804 1394l-296 -303l-296 303h104l192 -195l193 195h103z" />
    <glyph glyph-name="gcircumflex" unicode="&#x11d;" horiz-adv-x="1026" 
d="M731 69.5q87 -21.5 147 -73.5t60 -147q0 -132 -108 -202.5t-296 -70.5q-140 0 -242 35t-156.5 101t-54.5 158q0 30 4 54l171 134q-69 30 -105 76t-36 116q0 60 26 105t78 81q-41 43 -63 100t-22 123q0 99 48.5 177t132.5 121.5t187 43.5q73 0 137.5 -23t113.5 -66
l156 135l66 -82l-154 -135q46 -79 46 -176t-46 -172t-128 -116t-189 -41q-116 0 -204 48q-69 -45 -69 -110q0 -49 30 -77.5t81.5 -43t137.5 -26.5q164 -25 251 -46.5zM376 864q-55 -30 -86 -83.5t-31 -121.5q0 -67 29.5 -120t85 -83t128.5 -30t127 30t83.5 82.5t29.5 119.5
q0 70 -30 123.5t-84 83t-125 29.5q-72 0 -127 -30zM735 -286q78 41 78 122q0 57 -40.5 88.5t-104.5 47t-185 34.5l-22 3q-77 11 -115 21l-138 -135q-2 -11 -2 -29q0 -93 90 -143t238 -50q123 0 201 41zM318 1099h-107l297 312l297 -312h-107l-190 200z" />
    <glyph glyph-name="uni0123" unicode="&#x123;" horiz-adv-x="1026" 
d="M731 69.5q87 -21.5 147 -73.5t60 -147q0 -132 -108 -202.5t-296 -70.5q-140 0 -242 35t-156.5 101t-54.5 158q0 30 4 54l171 134q-69 30 -105 76t-36 116q0 60 26 105t78 81q-41 43 -63 100t-22 123q0 99 48.5 177t132.5 121.5t187 43.5q73 0 137.5 -23t113.5 -66
l156 135l66 -82l-154 -135q46 -79 46 -176t-46 -172t-128 -116t-189 -41q-116 0 -204 48q-69 -45 -69 -110q0 -49 30 -77.5t81.5 -43t137.5 -26.5q164 -25 251 -46.5zM376 864q-55 -30 -86 -83.5t-31 -121.5q0 -67 29.5 -120t85 -83t128.5 -30t127 30t83.5 82.5t29.5 119.5
q0 70 -30 123.5t-84 83t-125 29.5q-72 0 -127 -30zM735 -286q78 41 78 122q0 57 -40.5 88.5t-104.5 47t-185 34.5l-22 3q-77 11 -115 21l-138 -135q-2 -11 -2 -29q0 -93 90 -143t238 -50q123 0 201 41zM484 1110h-133l234 294h82z" />
    <glyph glyph-name="gdotaccent" unicode="&#x121;" horiz-adv-x="1026" 
d="M731 69.5q87 -21.5 147 -73.5t60 -147q0 -132 -108 -202.5t-296 -70.5q-140 0 -242 35t-156.5 101t-54.5 158q0 30 4 54l171 134q-69 30 -105 76t-36 116q0 60 26 105t78 81q-41 43 -63 100t-22 123q0 99 48.5 177t132.5 121.5t187 43.5q73 0 137.5 -23t113.5 -66
l156 135l66 -82l-154 -135q46 -79 46 -176t-46 -172t-128 -116t-189 -41q-116 0 -204 48q-69 -45 -69 -110q0 -49 30 -77.5t81.5 -43t137.5 -26.5q164 -25 251 -46.5zM376 864q-55 -30 -86 -83.5t-31 -121.5q0 -67 29.5 -120t85 -83t128.5 -30t127 30t83.5 82.5t29.5 119.5
q0 70 -30 123.5t-84 83t-125 29.5q-72 0 -127 -30zM735 -286q78 41 78 122q0 57 -40.5 88.5t-104.5 47t-185 34.5l-22 3q-77 11 -115 21l-138 -135q-2 -11 -2 -29q0 -93 90 -143t238 -50q123 0 201 41zM575 1178h-135v216h135v-216z" />
    <glyph glyph-name="h" unicode="h" horiz-adv-x="1072" 
d="M840 901q88 -100 88 -286v-615h-126v570q0 162 -60.5 241t-184.5 79q-138 0 -208 -98t-70 -291v-501h-126v1394h126v-578q87 185 307 185q166 0 254 -100z" />
    <glyph glyph-name="hbar" unicode="&#x127;" horiz-adv-x="1072" 
d="M840 901q88 -100 88 -286v-615h-126v570q0 162 -60.5 241t-184.5 79q-138 0 -208 -98t-70 -291v-501h-126v1158h-112v88h112v148h126v-148h289v-88h-289v-342q87 185 307 185q166 0 254 -100z" />
    <glyph glyph-name="hcircumflex" unicode="&#x125;" horiz-adv-x="1072" 
d="M840 901q88 -100 88 -286v-615h-126v570q0 162 -60.5 241t-184.5 79q-138 0 -208 -98t-70 -291v-501h-126v1394h126v-578q87 185 307 185q166 0 254 -100zM30 1507h-110l297 312l297 -312h-110l-187 200z" />
    <glyph glyph-name="i" unicode="i" horiz-adv-x="436" 
d="M280 0h-125v986h125v-986zM285 1178h-135v216h135v-216z" />
    <glyph glyph-name="dotlessi" unicode="&#x131;" horiz-adv-x="436" 
d="M280 0h-125v986h125v-986z" />
    <glyph glyph-name="iacute" unicode="&#xed;" horiz-adv-x="436" 
d="M280 0h-125v986h125v-986zM266 1113h-97l215 281h136z" />
    <glyph glyph-name="ibreve" unicode="&#x12d;" horiz-adv-x="436" 
d="M280 0h-125v986h125v-986zM-82 1394h84q0 -100 55.5 -149t160.5 -49q106 0 161 49.5t55 148.5h85q0 -275 -301 -275q-300 0 -300 275z" />
    <glyph glyph-name="uni01D0" unicode="&#x1d0;" horiz-adv-x="436" 
d="M280 0h-125v986h125v-986zM514 1394l-296 -303l-296 303h104l192 -195l193 195h103z" />
    <glyph glyph-name="icircumflex" unicode="&#xee;" horiz-adv-x="436" 
d="M280 0h-125v986h125v-986zM28 1099h-107l297 312l297 -312h-107l-190 200z" />
    <glyph glyph-name="idieresis" unicode="&#xef;" horiz-adv-x="436" 
d="M280 0h-125v986h125v-986zM106 1178h-135v216h135v-216zM464 1178h-135v216h135v-216z" />
    <glyph glyph-name="i.loclTRK" horiz-adv-x="436" 
d="M280 0h-125v986h125v-986zM285 1178h-135v216h135v-216z" />
    <glyph glyph-name="uni1ECB" unicode="&#x1ecb;" horiz-adv-x="436" 
d="M280 0h-125v986h125v-986zM285 1178h-135v216h135v-216zM285 -347h-135v201h135v-201z" />
    <glyph glyph-name="igrave" unicode="&#xec;" horiz-adv-x="436" 
d="M280 0h-125v986h125v-986zM267 1113h-98l-245 281h135z" />
    <glyph glyph-name="uni1EC9" unicode="&#x1ec9;" horiz-adv-x="436" 
d="M280 0h-125v986h125v-986zM178 1103q75 14 118 36t43 71q0 55 -55 82t-139 27h-31v76h31q83 0 148.5 -21.5t103 -61.5t37.5 -95t-36 -88.5t-88 -49.5t-122 -27z" />
    <glyph glyph-name="ij" unicode="&#x133;" horiz-adv-x="872" 
d="M280 0h-125v986h125v-986zM285 1178h-135v216h135v-216zM389 -398v111q59 -19 99 -19q53 0 78 31.5t25 104.5v1156h126v-1187q0 -112 -48.5 -167t-137.5 -55q-59 0 -142 25zM722 1178h-135v216h135v-216z" />
    <glyph glyph-name="imacron" unicode="&#x12b;" horiz-adv-x="436" 
d="M280 0h-125v986h125v-986zM488 1206h-540v78h540v-78z" />
    <glyph glyph-name="iogonek" unicode="&#x12f;" horiz-adv-x="436" 
d="M150 1394h135v-216h-135v216zM358 -339q-81 -86 -183 -86q-77 0 -127 43.5t-50 118.5q0 80 50 148t123 115h-16v986h125v-986q-84 -47 -143.5 -113.5t-59.5 -137.5q0 -47 26.5 -70t67.5 -23q66 0 124 55z" />
    <glyph glyph-name="itilde" unicode="&#x129;" horiz-adv-x="436" 
d="M280 0h-125v986h125v-986zM283.5 1159q-30.5 14 -50.5 34t-45 53q-30 39 -52 57t-55 17q-48 1 -75 -40.5t-27 -117.5h-77q0 113 49 176.5t135 63.5q38 0 66 -13.5t47 -32.5t44 -51q31 -40 55.5 -59.5t59.5 -19.5q41 0 68 45.5t27 122.5h80q0 -115 -48 -182t-129 -67
q-42 0 -72.5 14z" />
    <glyph glyph-name="j" unicode="j" horiz-adv-x="436" 
d="M-47 -398v111q59 -19 99 -19q53 0 78 31.5t25 104.5v1156h126v-1187q0 -112 -48.5 -167t-137.5 -55q-59 0 -142 25zM286 1178h-135v216h135v-216z" />
    <glyph glyph-name="uni0237" unicode="&#x237;" horiz-adv-x="436" 
d="M-47 -398v111q59 -19 99 -19q53 0 78 31.5t25 104.5v1156h126v-1187q0 -112 -48.5 -167t-137.5 -55q-59 0 -142 25z" />
    <glyph glyph-name="uni006A0301" horiz-adv-x="436" 
d="M-47 -398v111q59 -19 99 -19q53 0 78 31.5t25 104.5v1156h126v-1187q0 -112 -48.5 -167t-137.5 -55q-59 0 -142 25zM267 1113h-97l215 281h136z" />
    <glyph glyph-name="jcircumflex" unicode="&#x135;" horiz-adv-x="436" 
d="M-47 -398v111q59 -19 99 -19q53 0 78 31.5t25 104.5v1156h126v-1187q0 -112 -48.5 -167t-137.5 -55q-59 0 -142 25zM29 1099h-107l297 312l297 -312h-107l-190 200z" />
    <glyph glyph-name="k" unicode="k" horiz-adv-x="1033" 
d="M919 986l-352 -362l411 -624h-150l-352 538l-197 -208v-330h-126v1394h126v-906l471 498h169z" />
    <glyph glyph-name="uni0137" unicode="&#x137;" horiz-adv-x="1033" 
d="M919 986l-352 -362l411 -624h-150l-352 538l-197 -208v-330h-126v1394h126v-906l471 498h169zM355 -441h-82l182 329h134z" />
    <glyph glyph-name="kgreenlandic" unicode="&#x138;" horiz-adv-x="1033" 
d="M919 986l-352 -362l411 -624h-150l-352 538l-197 -208v-330h-126v986h126v-498l471 498h169z" />
    <glyph glyph-name="l" unicode="l" horiz-adv-x="543" 
d="M197.5 39.5q-47.5 54.5 -47.5 166.5v1188h125v-1165q0 -127 97 -127q41 0 92 18v-110q-74 -25 -132 -25q-87 0 -134.5 54.5z" />
    <glyph glyph-name="lacute" unicode="&#x13a;" horiz-adv-x="543" 
d="M197.5 39.5q-47.5 54.5 -47.5 166.5v1188h125v-1165q0 -127 97 -127q41 0 92 18v-110q-74 -25 -132 -25q-87 0 -134.5 54.5zM260 1521h-97l215 281h136z" />
    <glyph glyph-name="lcaron" unicode="&#x13e;" horiz-adv-x="673" 
d="M197.5 39.5q-47.5 54.5 -47.5 166.5v1188h125v-1165q0 -127 97 -127q41 0 92 18v-110q-74 -25 -132 -25q-87 0 -134.5 54.5zM477 981h-79l116 413h132z" />
    <glyph glyph-name="uni013C" unicode="&#x13c;" horiz-adv-x="543" 
d="M197.5 39.5q-47.5 54.5 -47.5 166.5v1188h125v-1165q0 -127 97 -127q41 0 92 18v-110q-74 -25 -132 -25q-87 0 -134.5 54.5zM106 -441h-82l182 329h134z" />
    <glyph glyph-name="ldot" unicode="&#x140;" horiz-adv-x="695" 
d="M197.5 39.5q-47.5 54.5 -47.5 166.5v1188h125v-1165q0 -127 97 -127q41 0 92 18v-110q-74 -25 -132 -25q-87 0 -134.5 54.5zM611 590h-180v215h180v-215z" />
    <glyph glyph-name="lslash" unicode="&#x142;" horiz-adv-x="543" 
d="M464 120v-110q-74 -25 -132 -25q-87 0 -134.5 54.5t-47.5 166.5v450l-125 -100v132l125 99v607h125v-509l184 145v-127l-184 -147v-527q0 -127 97 -127q41 0 92 18z" />
    <glyph glyph-name="m" unicode="m" horiz-adv-x="1638" 
d="M1414.5 889q81.5 -112 81.5 -300v-589h-127v561q0 160 -54 244.5t-178 84.5q-118 0 -184 -88.5t-66 -255.5v-546h-126v577q0 313 -227 313q-120 0 -187 -88.5t-67 -255.5v-546h-127v986h121v-162q42 90 117 133.5t169 43.5q210 0 284 -172q51 88 131.5 130t179.5 42
q178 0 259.5 -112z" />
    <glyph glyph-name="n" unicode="n" horiz-adv-x="1072" 
d="M839 904q89 -97 89 -289v-615h-126v570q0 163 -61 241.5t-184 78.5q-135 0 -206.5 -95.5t-71.5 -293.5v-501h-126v986h126v-171q45 95 124 140.5t183 45.5q164 0 253 -97z" />
    <glyph glyph-name="nacute" unicode="&#x144;" horiz-adv-x="1072" 
d="M839 904q89 -97 89 -289v-615h-126v570q0 163 -61 241.5t-184 78.5q-135 0 -206.5 -95.5t-71.5 -293.5v-501h-126v986h126v-171q45 95 124 140.5t183 45.5q164 0 253 -97zM574 1113h-97l215 281h136z" />
    <glyph glyph-name="napostrophe" unicode="&#x149;" horiz-adv-x="1303" 
d="M31 825h-87l208 569h145zM1066 904q89 -97 89 -289v-615h-126v570q0 163 -61 241.5t-184 78.5q-135 0 -206.5 -95.5t-71.5 -293.5v-501h-126v986h126v-171q45 95 124 140.5t183 45.5q164 0 253 -97z" />
    <glyph glyph-name="ncaron" unicode="&#x148;" horiz-adv-x="1072" 
d="M839 904q89 -97 89 -289v-615h-126v570q0 163 -61 241.5t-184 78.5q-135 0 -206.5 -95.5t-71.5 -293.5v-501h-126v986h126v-171q45 95 124 140.5t183 45.5q164 0 253 -97zM822 1394l-296 -303l-296 303h104l192 -195l193 195h103z" />
    <glyph glyph-name="uni0146" unicode="&#x146;" horiz-adv-x="1072" 
d="M839 904q89 -97 89 -289v-615h-126v570q0 163 -61 241.5t-184 78.5q-135 0 -206.5 -95.5t-71.5 -293.5v-501h-126v986h126v-171q45 95 124 140.5t183 45.5q164 0 253 -97zM365 -441h-82l182 329h134z" />
    <glyph glyph-name="uni1E45" unicode="&#x1e45;" horiz-adv-x="1072" 
d="M839 904q89 -97 89 -289v-615h-126v570q0 163 -61 241.5t-184 78.5q-135 0 -206.5 -95.5t-71.5 -293.5v-501h-126v986h126v-171q45 95 124 140.5t183 45.5q164 0 253 -97zM593 1178h-135v216h135v-216z" />
    <glyph glyph-name="eng" unicode="&#x14b;" horiz-adv-x="1096" 
d="M788 961q76 -40 117 -117.5t41 -187.5v-857q0 -112 -47.5 -167t-134.5 -55q-57 0 -134 25v104q57 -19 94 -19q49 0 72.5 30t23.5 98v794q0 125 -58 203t-192 78q-148 0 -210.5 -104t-62.5 -260v-526h-126v986h126v-157q45 85 125 128.5t185 43.5t181 -40z" />
    <glyph glyph-name="uni0272" unicode="&#x272;" horiz-adv-x="1089" 
d="M788 961q76 -40 117 -117.5t41 -187.5v-656h-126v609q0 125 -58 203t-192 78q-148 0 -210.5 -104t-62.5 -260v-727q0 -112 -47.5 -167t-134.5 -55q-57 0 -134 25v104q57 -19 94 -19q49 0 72.5 30t23.5 98v1171h126v-157q45 85 125 128.5t185 43.5t181 -40z" />
    <glyph glyph-name="ntilde" unicode="&#xf1;" horiz-adv-x="1072" 
d="M839 904q89 -97 89 -289v-615h-126v570q0 163 -61 241.5t-184 78.5q-135 0 -206.5 -95.5t-71.5 -293.5v-501h-126v986h126v-171q45 95 124 140.5t183 45.5q164 0 253 -97zM591.5 1159q-30.5 14 -50.5 34t-45 53q-30 39 -52 57t-55 17q-48 1 -75 -40.5t-27 -117.5h-77
q0 113 49 176.5t135 63.5q38 0 66 -13.5t47 -32.5t44 -51q31 -40 55.5 -59.5t59.5 -19.5q41 0 68 45.5t27 122.5h80q0 -115 -48 -182t-129 -67q-42 0 -72.5 14z" />
    <glyph glyph-name="o" unicode="o" horiz-adv-x="1153" 
d="M333 50q-107 65 -167 181t-60 263t60 262.5t167 180t243 64.5t243 -64.5t167 -180t60 -262.5t-60 -263t-167 -181t-243 -65t-243 65zM757 146.5q78 49.5 120.5 139t42.5 208.5q0 118 -42.5 207.5t-120.5 138.5t-181 49t-181 -49t-120.5 -138.5t-42.5 -207.5t42.5 -208
t120.5 -139.5t181 -49.5t181 49.5z" />
    <glyph glyph-name="oacute" unicode="&#xf3;" horiz-adv-x="1153" 
d="M333 50q-107 65 -167 181t-60 263t60 262.5t167 180t243 64.5t243 -64.5t167 -180t60 -262.5t-60 -263t-167 -181t-243 -65t-243 65zM757 146.5q78 49.5 120.5 139t42.5 208.5q0 118 -42.5 207.5t-120.5 138.5t-181 49t-181 -49t-120.5 -138.5t-42.5 -207.5t42.5 -208
t120.5 -139.5t181 -49.5t181 49.5zM624 1113h-97l215 281h136z" />
    <glyph glyph-name="obreve" unicode="&#x14f;" horiz-adv-x="1153" 
d="M333 50q-107 65 -167 181t-60 263t60 262.5t167 180t243 64.5t243 -64.5t167 -180t60 -262.5t-60 -263t-167 -181t-243 -65t-243 65zM757 146.5q78 49.5 120.5 139t42.5 208.5q0 118 -42.5 207.5t-120.5 138.5t-181 49t-181 -49t-120.5 -138.5t-42.5 -207.5t42.5 -208
t120.5 -139.5t181 -49.5t181 49.5zM276 1394h84q0 -100 55.5 -149t160.5 -49q106 0 161 49.5t55 148.5h85q0 -275 -301 -275q-300 0 -300 275z" />
    <glyph glyph-name="uni01D2" unicode="&#x1d2;" horiz-adv-x="1153" 
d="M333 50q-107 65 -167 181t-60 263t60 262.5t167 180t243 64.5t243 -64.5t167 -180t60 -262.5t-60 -263t-167 -181t-243 -65t-243 65zM757 146.5q78 49.5 120.5 139t42.5 208.5q0 118 -42.5 207.5t-120.5 138.5t-181 49t-181 -49t-120.5 -138.5t-42.5 -207.5t42.5 -208
t120.5 -139.5t181 -49.5t181 49.5zM872 1394l-296 -303l-296 303h104l192 -195l193 195h103z" />
    <glyph glyph-name="ocircumflex" unicode="&#xf4;" horiz-adv-x="1153" 
d="M333 50q-107 65 -167 181t-60 263t60 262.5t167 180t243 64.5t243 -64.5t167 -180t60 -262.5t-60 -263t-167 -181t-243 -65t-243 65zM757 146.5q78 49.5 120.5 139t42.5 208.5q0 118 -42.5 207.5t-120.5 138.5t-181 49t-181 -49t-120.5 -138.5t-42.5 -207.5t42.5 -208
t120.5 -139.5t181 -49.5t181 49.5zM386 1099h-107l297 312l297 -312h-107l-190 200z" />
    <glyph glyph-name="uni1ED1" unicode="&#x1ed1;" horiz-adv-x="1153" 
d="M333 50q-107 65 -167 181t-60 263t60 262.5t167 180t243 64.5t243 -64.5t167 -180t60 -262.5t-60 -263t-167 -181t-243 -65t-243 65zM757 146.5q78 49.5 120.5 139t42.5 208.5q0 118 -42.5 207.5t-120.5 138.5t-181 49t-181 -49t-120.5 -138.5t-42.5 -207.5t42.5 -208
t120.5 -139.5t181 -49.5t181 49.5zM817 1296h-82l150 272h107zM387 1099h-108l297 297l297 -297h-108l-189 185z" />
    <glyph glyph-name="uni1ED9" unicode="&#x1ed9;" horiz-adv-x="1153" 
d="M333 50q-107 65 -167 181t-60 263t60 262.5t167 180t243 64.5t243 -64.5t167 -180t60 -262.5t-60 -263t-167 -181t-243 -65t-243 65zM757 146.5q78 49.5 120.5 139t42.5 208.5q0 118 -42.5 207.5t-120.5 138.5t-181 49t-181 -49t-120.5 -138.5t-42.5 -207.5t42.5 -208
t120.5 -139.5t181 -49.5t181 49.5zM643 -347h-135v201h135v-201zM386 1099h-107l297 312l297 -312h-107l-190 200z" />
    <glyph glyph-name="uni1ED3" unicode="&#x1ed3;" horiz-adv-x="1153" 
d="M333 50q-107 65 -167 181t-60 263t60 262.5t167 180t243 64.5t243 -64.5t167 -180t60 -262.5t-60 -263t-167 -181t-243 -65t-243 65zM757 146.5q78 49.5 120.5 139t42.5 208.5q0 118 -42.5 207.5t-120.5 138.5t-181 49t-181 -49t-120.5 -138.5t-42.5 -207.5t42.5 -208
t120.5 -139.5t181 -49.5t181 49.5zM922 1296h-81l-175 272h106zM389 1099h-110l297 297l297 -297h-110l-187 185z" />
    <glyph glyph-name="uni1ED5" unicode="&#x1ed5;" horiz-adv-x="1153" 
d="M333 50q-107 65 -167 181t-60 263t60 262.5t167 180t243 64.5t243 -64.5t167 -180t60 -262.5t-60 -263t-167 -181t-243 -65t-243 65zM757 146.5q78 49.5 120.5 139t42.5 208.5q0 118 -42.5 207.5t-120.5 138.5t-181 49t-181 -49t-120.5 -138.5t-42.5 -207.5t42.5 -208
t120.5 -139.5t181 -49.5t181 49.5zM744 1321q73 13 112.5 35t39.5 70q0 54 -54 82t-130 28h-30v71h30q119 0 190 -47t71 -127q0 -55 -28 -87.5t-73 -48.5t-112 -28zM389 1099h-110l297 297l297 -297h-110l-187 185z" />
    <glyph glyph-name="uni1ED7" unicode="&#x1ed7;" horiz-adv-x="1153" 
d="M333 50q-107 65 -167 181t-60 263t60 262.5t167 180t243 64.5t243 -64.5t167 -180t60 -262.5t-60 -263t-167 -181t-243 -65t-243 65zM757 146.5q78 49.5 120.5 139t42.5 208.5q0 118 -42.5 207.5t-120.5 138.5t-181 49t-181 -49t-120.5 -138.5t-42.5 -207.5t42.5 -208
t120.5 -139.5t181 -49.5t181 49.5zM631 1441q-29 12 -64 36q-30 21 -53.5 31.5t-57.5 10.5q-41 0 -65 -20t-36 -59l-74 5q11 65 53.5 105t114.5 40q47 0 79 -12.5t69 -35.5q32 -19 53.5 -28t48.5 -9q37 0 60 17.5t34 55.5l77 -5q-11 -65 -52 -104.5t-112 -39.5q-46 0 -75 12
zM387 1099h-108l297 297l297 -297h-107l-190 185z" />
    <glyph glyph-name="odieresis" unicode="&#xf6;" horiz-adv-x="1153" 
d="M333 50q-107 65 -167 181t-60 263t60 262.5t167 180t243 64.5t243 -64.5t167 -180t60 -262.5t-60 -263t-167 -181t-243 -65t-243 65zM757 146.5q78 49.5 120.5 139t42.5 208.5q0 118 -42.5 207.5t-120.5 138.5t-181 49t-181 -49t-120.5 -138.5t-42.5 -207.5t42.5 -208
t120.5 -139.5t181 -49.5t181 49.5zM464 1178h-135v216h135v-216zM822 1178h-135v216h135v-216z" />
    <glyph glyph-name="uni1ECD" unicode="&#x1ecd;" horiz-adv-x="1153" 
d="M333 50q-107 65 -167 181t-60 263t60 262.5t167 180t243 64.5t243 -64.5t167 -180t60 -262.5t-60 -263t-167 -181t-243 -65t-243 65zM757 146.5q78 49.5 120.5 139t42.5 208.5q0 118 -42.5 207.5t-120.5 138.5t-181 49t-181 -49t-120.5 -138.5t-42.5 -207.5t42.5 -208
t120.5 -139.5t181 -49.5t181 49.5zM643 -347h-135v201h135v-201z" />
    <glyph glyph-name="ograve" unicode="&#xf2;" horiz-adv-x="1153" 
d="M333 50q-107 65 -167 181t-60 263t60 262.5t167 180t243 64.5t243 -64.5t167 -180t60 -262.5t-60 -263t-167 -181t-243 -65t-243 65zM757 146.5q78 49.5 120.5 139t42.5 208.5q0 118 -42.5 207.5t-120.5 138.5t-181 49t-181 -49t-120.5 -138.5t-42.5 -207.5t42.5 -208
t120.5 -139.5t181 -49.5t181 49.5zM625 1113h-98l-245 281h135z" />
    <glyph glyph-name="uni1ECF" unicode="&#x1ecf;" horiz-adv-x="1153" 
d="M333 50q-107 65 -167 181t-60 263t60 262.5t167 180t243 64.5t243 -64.5t167 -180t60 -262.5t-60 -263t-167 -181t-243 -65t-243 65zM757 146.5q78 49.5 120.5 139t42.5 208.5q0 118 -42.5 207.5t-120.5 138.5t-181 49t-181 -49t-120.5 -138.5t-42.5 -207.5t42.5 -208
t120.5 -139.5t181 -49.5t181 49.5zM536 1103q75 14 118 36t43 71q0 55 -55 82t-139 27h-31v76h31q83 0 148.5 -21.5t103 -61.5t37.5 -95t-36 -88.5t-88 -49.5t-122 -27z" />
    <glyph glyph-name="ohorn" unicode="&#x1a1;" horiz-adv-x="1153" 
d="M1079 1140h91v-98q0 -116 -45 -191t-137 -99q58 -113 58 -258q0 -147 -60 -263t-167 -181t-243 -65t-243 65t-167 181t-60 263t60 262.5t167 180t243 64.5q112 0 205.5 -45t157.5 -126q73 11 106.5 65t33.5 154v91zM757 146.5q78 49.5 120.5 139t42.5 208.5
q0 118 -42.5 207.5t-120.5 138.5t-181 49t-181 -49t-120.5 -138.5t-42.5 -207.5t42.5 -208t120.5 -139.5t181 -49.5t181 49.5z" />
    <glyph glyph-name="uni1EDB" unicode="&#x1edb;" horiz-adv-x="1153" 
d="M1079 1140h91v-98q0 -116 -45 -191t-137 -99q58 -113 58 -258q0 -147 -60 -263t-167 -181t-243 -65t-243 65t-167 181t-60 263t60 262.5t167 180t243 64.5q112 0 205.5 -45t157.5 -126q73 11 106.5 65t33.5 154v91zM757 146.5q78 49.5 120.5 139t42.5 208.5
q0 118 -42.5 207.5t-120.5 138.5t-181 49t-181 -49t-120.5 -138.5t-42.5 -207.5t42.5 -208t120.5 -139.5t181 -49.5t181 49.5zM624 1113h-97l215 281h136z" />
    <glyph glyph-name="uni1EE3" unicode="&#x1ee3;" horiz-adv-x="1153" 
d="M1079 1140h91v-98q0 -116 -45 -191t-137 -99q58 -113 58 -258q0 -147 -60 -263t-167 -181t-243 -65t-243 65t-167 181t-60 263t60 262.5t167 180t243 64.5q112 0 205.5 -45t157.5 -126q73 11 106.5 65t33.5 154v91zM757 146.5q78 49.5 120.5 139t42.5 208.5
q0 118 -42.5 207.5t-120.5 138.5t-181 49t-181 -49t-120.5 -138.5t-42.5 -207.5t42.5 -208t120.5 -139.5t181 -49.5t181 49.5zM643 -347h-135v201h135v-201z" />
    <glyph glyph-name="uni1EDD" unicode="&#x1edd;" horiz-adv-x="1153" 
d="M1079 1140h91v-98q0 -116 -45 -191t-137 -99q58 -113 58 -258q0 -147 -60 -263t-167 -181t-243 -65t-243 65t-167 181t-60 263t60 262.5t167 180t243 64.5q112 0 205.5 -45t157.5 -126q73 11 106.5 65t33.5 154v91zM757 146.5q78 49.5 120.5 139t42.5 208.5
q0 118 -42.5 207.5t-120.5 138.5t-181 49t-181 -49t-120.5 -138.5t-42.5 -207.5t42.5 -208t120.5 -139.5t181 -49.5t181 49.5zM625 1113h-98l-245 281h135z" />
    <glyph glyph-name="uni1EDF" unicode="&#x1edf;" horiz-adv-x="1153" 
d="M1079 1140h91v-98q0 -116 -45 -191t-137 -99q58 -113 58 -258q0 -147 -60 -263t-167 -181t-243 -65t-243 65t-167 181t-60 263t60 262.5t167 180t243 64.5q112 0 205.5 -45t157.5 -126q73 11 106.5 65t33.5 154v91zM757 146.5q78 49.5 120.5 139t42.5 208.5
q0 118 -42.5 207.5t-120.5 138.5t-181 49t-181 -49t-120.5 -138.5t-42.5 -207.5t42.5 -208t120.5 -139.5t181 -49.5t181 49.5zM536 1103q75 14 118 36t43 71q0 55 -55 82t-139 27h-31v76h31q83 0 148.5 -21.5t103 -61.5t37.5 -95t-36 -88.5t-88 -49.5t-122 -27z" />
    <glyph glyph-name="uni1EE1" unicode="&#x1ee1;" horiz-adv-x="1153" 
d="M1079 1140h91v-98q0 -116 -45 -191t-137 -99q58 -113 58 -258q0 -147 -60 -263t-167 -181t-243 -65t-243 65t-167 181t-60 263t60 262.5t167 180t243 64.5q112 0 205.5 -45t157.5 -126q73 11 106.5 65t33.5 154v91zM757 146.5q78 49.5 120.5 139t42.5 208.5
q0 118 -42.5 207.5t-120.5 138.5t-181 49t-181 -49t-120.5 -138.5t-42.5 -207.5t42.5 -208t120.5 -139.5t181 -49.5t181 49.5zM641.5 1159q-30.5 14 -50.5 34t-45 53q-30 39 -52 57t-55 17q-48 1 -75 -40.5t-27 -117.5h-77q0 113 49 176.5t135 63.5q38 0 66 -13.5t47 -32.5
t44 -51q31 -40 55.5 -59.5t59.5 -19.5q41 0 68 45.5t27 122.5h80q0 -115 -48 -182t-129 -67q-42 0 -72.5 14z" />
    <glyph glyph-name="ohungarumlaut" unicode="&#x151;" horiz-adv-x="1153" 
d="M333 50q-107 65 -167 181t-60 263t60 262.5t167 180t243 64.5t243 -64.5t167 -180t60 -262.5t-60 -263t-167 -181t-243 -65t-243 65zM757 146.5q78 49.5 120.5 139t42.5 208.5q0 118 -42.5 207.5t-120.5 138.5t-181 49t-181 -49t-120.5 -138.5t-42.5 -207.5t42.5 -208
t120.5 -139.5t181 -49.5t181 49.5zM457 1093h-97l215 301h116zM792 1093h-97l215 301h135z" />
    <glyph glyph-name="omacron" unicode="&#x14d;" horiz-adv-x="1153" 
d="M333 50q-107 65 -167 181t-60 263t60 262.5t167 180t243 64.5t243 -64.5t167 -180t60 -262.5t-60 -263t-167 -181t-243 -65t-243 65zM757 146.5q78 49.5 120.5 139t42.5 208.5q0 118 -42.5 207.5t-120.5 138.5t-181 49t-181 -49t-120.5 -138.5t-42.5 -207.5t42.5 -208
t120.5 -139.5t181 -49.5t181 49.5zM846 1206h-540v78h540v-78z" />
    <glyph glyph-name="uni01EB" unicode="&#x1eb;" horiz-adv-x="1153" 
d="M548 -115.5q-58 -64.5 -58 -135.5q0 -47 26.5 -70t67.5 -23q66 0 124 55l63 -50q-81 -86 -183 -86q-77 0 -127 43.5t-50 118.5q0 74 43 137.5t108 110.5q-132 3 -236 69t-162 180.5t-58 259.5q0 147 60 262.5t167 180t243 64.5t243 -64.5t167 -180t60 -262.5
q0 -125 -44.5 -229t-125.5 -173t-187 -94q-83 -49 -141 -113.5zM274.5 286q42.5 -90 120.5 -139.5t181 -49.5t181 49.5t120.5 139t42.5 208.5q0 118 -42.5 207.5t-120.5 138.5t-181 49t-181 -49t-120.5 -138.5t-42.5 -207.5t42.5 -208z" />
    <glyph glyph-name="oslash" unicode="&#xf8;" horiz-adv-x="1153" 
d="M866 904q85 -68 132.5 -174t47.5 -236q0 -147 -60 -263t-167 -181t-243 -65t-243 65l-93 -149h-68l114 182q-85 69 -132.5 175t-47.5 236q0 147 60 262.5t167 180t243 64.5q133 0 241 -64l93 149h69zM262 315.5q30 -79.5 86 -132.5l409 657q-78 49 -181 49t-181 -49
t-120.5 -138.5t-42.5 -207.5q0 -99 30 -178.5zM757 146.5q78 49.5 120.5 139t42.5 208.5q0 99 -30 178.5t-87 132.5l-409 -658q80 -50 182 -50q103 0 181 49.5z" />
    <glyph glyph-name="oslashacute" unicode="&#x1ff;" horiz-adv-x="1153" 
d="M866 904q85 -68 132.5 -174t47.5 -236q0 -147 -60 -263t-167 -181t-243 -65t-243 65l-93 -149h-68l114 182q-85 69 -132.5 175t-47.5 236q0 147 60 262.5t167 180t243 64.5q133 0 241 -64l93 149h69zM262 315.5q30 -79.5 86 -132.5l409 657q-78 49 -181 49t-181 -49
t-120.5 -138.5t-42.5 -207.5q0 -99 30 -178.5zM757 146.5q78 49.5 120.5 139t42.5 208.5q0 99 -30 178.5t-87 132.5l-409 -658q80 -50 182 -50q103 0 181 49.5zM624 1113h-97l215 281h136z" />
    <glyph glyph-name="otilde" unicode="&#xf5;" horiz-adv-x="1153" 
d="M333 50q-107 65 -167 181t-60 263t60 262.5t167 180t243 64.5t243 -64.5t167 -180t60 -262.5t-60 -263t-167 -181t-243 -65t-243 65zM757 146.5q78 49.5 120.5 139t42.5 208.5q0 118 -42.5 207.5t-120.5 138.5t-181 49t-181 -49t-120.5 -138.5t-42.5 -207.5t42.5 -208
t120.5 -139.5t181 -49.5t181 49.5zM641.5 1159q-30.5 14 -50.5 34t-45 53q-30 39 -52 57t-55 17q-48 1 -75 -40.5t-27 -117.5h-77q0 113 49 176.5t135 63.5q38 0 66 -13.5t47 -32.5t44 -51q31 -40 55.5 -59.5t59.5 -19.5q41 0 68 45.5t27 122.5h80q0 -115 -48 -182t-129 -67
q-42 0 -72.5 14z" />
    <glyph glyph-name="oe" unicode="&#x153;" horiz-adv-x="1888" 
d="M1778 459h-729q2 -111 41.5 -192t112 -124t171.5 -43q92 0 158.5 28.5t132.5 98.5l89 -79q-84 -86 -172.5 -124.5t-207.5 -38.5q-140 0 -240.5 62t-153.5 172q-61 -110 -166.5 -172t-237.5 -62q-136 0 -243 65t-167 181t-60 263t60 262.5t167 180t243 64.5q134 0 240 -63
t166 -174q54 111 149.5 174t226.5 63q143 0 238.5 -65.5t141 -169.5t45.5 -221q0 -43 -5 -86zM1662 558q1 11 1 30q0 76 -32.5 146t-101 115t-169.5 45q-90 0 -157.5 -43.5t-107 -119.5t-47.5 -173h614zM757 146.5q78 49.5 120.5 139t42.5 208.5q0 118 -42.5 207.5
t-120.5 138.5t-181 49t-181 -49t-120.5 -138.5t-42.5 -207.5t42.5 -208t120.5 -139.5t181 -49.5t181 49.5z" />
    <glyph glyph-name="p" unicode="p" horiz-adv-x="1183" 
d="M860 934.5q102 -66.5 158.5 -182.5t56.5 -260q0 -149 -58.5 -264t-160.5 -179t-229 -64q-115 0 -205 50t-144 140v-583h-125v1394h125v-175q57 93 146.5 141.5t202.5 48.5q131 0 233 -66.5zM783.5 151q78.5 50 122.5 139.5t44 201.5q0 113 -44 202t-122.5 139.5
t-176.5 50.5t-175 -50t-120.5 -139.5t-43.5 -202.5t43.5 -202t120.5 -139t175 -50t176.5 50z" />
    <glyph glyph-name="thorn" unicode="&#xfe;" horiz-adv-x="1166" 
d="M881 934.5q92 -66.5 140.5 -182.5t48.5 -262q0 -150 -51.5 -264.5t-144 -177.5t-212.5 -63q-119 0 -217.5 63t-145.5 167v-623h-126v1802h126v-621q50 107 148 167.5t215 60.5q127 0 219 -66.5zM801 145.5q71 49.5 107.5 139t36.5 207.5q0 119 -36 208.5t-106.5 139
t-170.5 49.5q-104 0 -182 -51.5t-120 -142t-42 -203.5q0 -112 42 -202t120 -142t180 -52q100 0 171 49.5z" />
    <glyph glyph-name="q" unicode="q" horiz-adv-x="1183" 
d="M905 986h125v-1394h-125v583q-54 -90 -144 -140t-205 -50q-127 0 -229 64t-160.5 179t-58.5 264q0 144 56.5 260t158.5 182.5t233 66.5q113 0 202.5 -48.5t146.5 -141.5v175zM751 151q77 50 120.5 139t43.5 202t-43.5 202.5t-120.5 139.5t-175 50t-176.5 -50.5
t-122.5 -139.5t-44 -202q0 -112 44 -201.5t122.5 -139.5t176.5 -50t175 50z" />
    <glyph glyph-name="r" unicode="r" horiz-adv-x="789" 
d="M663.5 991q42.5 -10 78.5 -29l-62 -110q-26 12 -57.5 19.5t-62.5 7.5q-88 0 -161.5 -51.5t-102.5 -155.5q-9 -31 -13 -72.5t-4 -118.5v-481h-126v986h127v-183q42 94 123.5 146t175.5 52q42 0 84.5 -10z" />
    <glyph glyph-name="racute" unicode="&#x155;" horiz-adv-x="789" 
d="M663.5 991q42.5 -10 78.5 -29l-62 -110q-26 12 -57.5 19.5t-62.5 7.5q-88 0 -161.5 -51.5t-102.5 -155.5q-9 -31 -13 -72.5t-4 -118.5v-481h-126v986h127v-183q42 94 123.5 146t175.5 52q42 0 84.5 -10zM418 1113h-97l215 281h136z" />
    <glyph glyph-name="rcaron" unicode="&#x159;" horiz-adv-x="789" 
d="M663.5 991q42.5 -10 78.5 -29l-62 -110q-26 12 -57.5 19.5t-62.5 7.5q-88 0 -161.5 -51.5t-102.5 -155.5q-9 -31 -13 -72.5t-4 -118.5v-481h-126v986h127v-183q42 94 123.5 146t175.5 52q42 0 84.5 -10zM666 1394l-296 -303l-296 303h104l192 -195l193 195h103z" />
    <glyph glyph-name="uni0157" unicode="&#x157;" horiz-adv-x="789" 
d="M663.5 991q42.5 -10 78.5 -29l-62 -110q-26 12 -57.5 19.5t-62.5 7.5q-88 0 -161.5 -51.5t-102.5 -155.5q-9 -31 -13 -72.5t-4 -118.5v-481h-126v986h127v-183q42 94 123.5 146t175.5 52q42 0 84.5 -10zM202 -441h-82l182 329h134z" />
    <glyph glyph-name="s" unicode="s" horiz-adv-x="953" 
d="M257.5 44.5q-104.5 59.5 -164.5 165.5l88 72q43 -89 128 -140t193 -51q105 0 165 46.5t60 130.5q0 62 -34 99t-87 57.5t-148 44.5q-99 25 -163 53t-107 80.5t-43 137.5q0 73 42 132.5t117 94t170 34.5q113 0 203 -47.5t144 -139.5l-90 -67q-90 151 -261 151
q-60 0 -106.5 -19.5t-73 -54t-26.5 -77.5q0 -48 27 -78.5t74.5 -49.5t127.5 -38q113 -27 184.5 -54.5t122.5 -87t51 -159.5q0 -88 -44 -155t-125 -103.5t-188 -36.5q-132 0 -236.5 59.5z" />
    <glyph glyph-name="sacute" unicode="&#x15b;" horiz-adv-x="953" 
d="M257.5 44.5q-104.5 59.5 -164.5 165.5l88 72q43 -89 128 -140t193 -51q105 0 165 46.5t60 130.5q0 62 -34 99t-87 57.5t-148 44.5q-99 25 -163 53t-107 80.5t-43 137.5q0 73 42 132.5t117 94t170 34.5q113 0 203 -47.5t144 -139.5l-90 -67q-90 151 -261 151
q-60 0 -106.5 -19.5t-73 -54t-26.5 -77.5q0 -48 27 -78.5t74.5 -49.5t127.5 -38q113 -27 184.5 -54.5t122.5 -87t51 -159.5q0 -88 -44 -155t-125 -103.5t-188 -36.5q-132 0 -236.5 59.5zM528 1113h-97l215 281h136z" />
    <glyph glyph-name="scaron" unicode="&#x161;" horiz-adv-x="953" 
d="M257.5 44.5q-104.5 59.5 -164.5 165.5l88 72q43 -89 128 -140t193 -51q105 0 165 46.5t60 130.5q0 62 -34 99t-87 57.5t-148 44.5q-99 25 -163 53t-107 80.5t-43 137.5q0 73 42 132.5t117 94t170 34.5q113 0 203 -47.5t144 -139.5l-90 -67q-90 151 -261 151
q-60 0 -106.5 -19.5t-73 -54t-26.5 -77.5q0 -48 27 -78.5t74.5 -49.5t127.5 -38q113 -27 184.5 -54.5t122.5 -87t51 -159.5q0 -88 -44 -155t-125 -103.5t-188 -36.5q-132 0 -236.5 59.5zM776 1394l-296 -303l-296 303h104l192 -195l193 195h103z" />
    <glyph glyph-name="scedilla" unicode="&#x15f;" horiz-adv-x="953" 
d="M809 128.5q-42 -65.5 -118.5 -103t-179.5 -40.5l-74 -119q89 -15 145 -56.5t56 -125.5q0 -58 -25.5 -101.5t-72.5 -68t-109 -24.5q-51 0 -101 25.5t-76 71.5l47 60q19 -36 54.5 -58.5t76.5 -22.5q60 0 93 29.5t33 85.5q0 76 -64.5 101.5t-162.5 29.5l101 176
q-111 13 -198.5 71t-140.5 151l88 72q43 -89 128 -140t193 -51q105 0 165 46.5t60 130.5q0 62 -34 99t-87 57.5t-148 44.5q-99 25 -163 53t-107 80.5t-43 137.5q0 73 42 132.5t117 94t170 34.5q113 0 203 -47.5t144 -139.5l-90 -67q-90 151 -261 151q-60 0 -106.5 -19.5
t-73 -54t-26.5 -77.5q0 -48 27 -78.5t74.5 -49.5t127.5 -38q113 -27 184.5 -54.5t122.5 -87t51 -159.5q0 -86 -42 -151.5z" />
    <glyph glyph-name="scircumflex" unicode="&#x15d;" horiz-adv-x="953" 
d="M257.5 44.5q-104.5 59.5 -164.5 165.5l88 72q43 -89 128 -140t193 -51q105 0 165 46.5t60 130.5q0 62 -34 99t-87 57.5t-148 44.5q-99 25 -163 53t-107 80.5t-43 137.5q0 73 42 132.5t117 94t170 34.5q113 0 203 -47.5t144 -139.5l-90 -67q-90 151 -261 151
q-60 0 -106.5 -19.5t-73 -54t-26.5 -77.5q0 -48 27 -78.5t74.5 -49.5t127.5 -38q113 -27 184.5 -54.5t122.5 -87t51 -159.5q0 -88 -44 -155t-125 -103.5t-188 -36.5q-132 0 -236.5 59.5zM290 1099h-107l297 312l297 -312h-107l-190 200z" />
    <glyph glyph-name="uni0219" unicode="&#x219;" horiz-adv-x="953" 
d="M257.5 44.5q-104.5 59.5 -164.5 165.5l88 72q43 -89 128 -140t193 -51q105 0 165 46.5t60 130.5q0 62 -34 99t-87 57.5t-148 44.5q-99 25 -163 53t-107 80.5t-43 137.5q0 73 42 132.5t117 94t170 34.5q113 0 203 -47.5t144 -139.5l-90 -67q-90 151 -261 151
q-60 0 -106.5 -19.5t-73 -54t-26.5 -77.5q0 -48 27 -78.5t74.5 -49.5t127.5 -38q113 -27 184.5 -54.5t122.5 -87t51 -159.5q0 -88 -44 -155t-125 -103.5t-188 -36.5q-132 0 -236.5 59.5zM312 -441h-82l182 329h134z" />
    <glyph glyph-name="germandbls" unicode="&#xdf;" horiz-adv-x="1248" 
d="M636 18.5q-82 33.5 -139.5 92t-82.5 133.5l103 45q30 -86 106.5 -141.5t187.5 -55.5q108 0 168 48t60 130q0 61 -35 98.5t-87 57.5t-140 42q-103 26 -165 51.5t-105.5 77t-43.5 139.5q0 85 36.5 136t86.5 75t132 49q60 18 93.5 32t56 38.5t22.5 63.5q0 47 -36.5 83.5
t-96 56.5t-127.5 20q-150 0 -226.5 -51.5t-98.5 -126t-22 -175.5v-937h-130v937q0 134 37 237t140.5 168.5t290.5 65.5q113 0 202.5 -33.5t140 -96t50.5 -144.5q0 -70 -32.5 -113.5t-78.5 -66t-122 -48.5q-66 -22 -104.5 -40.5t-64.5 -49.5t-26 -80t31 -79t77.5 -46
t128.5 -36q109 -27 176 -53.5t115 -84.5t48 -156q0 -95 -46 -162t-125.5 -100.5t-177.5 -33.5q-95 0 -177 33.5z" />
    <glyph glyph-name="t" unicode="t" horiz-adv-x="701" 
d="M625 886h-236v-623q0 -86 29.5 -129.5t94.5 -43.5q51 0 112 20v-100q-78 -25 -143 -25q-103 0 -161 61t-58 184v656h-218v100h218v282l126 74v-356h236v-100z" />
    <glyph glyph-name="tbar" unicode="&#x167;" horiz-adv-x="701" 
d="M625 886h-236v-347h236v-88h-236v-188q0 -86 29.5 -129.5t94.5 -43.5q51 0 112 20v-100q-78 -25 -143 -25q-103 0 -161 61t-58 184v221h-218v88h218v347h-218v100h218v282l126 74v-356h236v-100z" />
    <glyph glyph-name="tcaron" unicode="&#x165;" horiz-adv-x="826" 
d="M625 886h-236v-623q0 -86 29.5 -129.5t94.5 -43.5q51 0 112 20v-100q-78 -25 -143 -25q-103 0 -161 61t-58 184v656h-218v100h218v282l126 74v-356h236v-100zM637 1107h-79l116 413h132z" />
    <glyph glyph-name="uni0163" unicode="&#x163;" horiz-adv-x="701" 
d="M625 886h-236v-623q0 -86 29.5 -129.5t94.5 -43.5q51 0 112 20v-100q-78 -25 -143 -25h-15l-74 -119q89 -15 145 -56.5t56 -125.5q0 -58 -25.5 -101.5t-72.5 -68t-109 -24.5q-51 0 -101 25.5t-76 71.5l47 60q19 -36 54.5 -58.5t76.5 -22.5q60 0 93 29.5t33 85.5
q0 76 -64.5 101.5t-162.5 29.5l107 187q-63 22 -97 80t-34 151v656h-218v100h218v282l126 74v-356h236v-100z" />
    <glyph glyph-name="uni021B" unicode="&#x21b;" horiz-adv-x="701" 
d="M625 886h-236v-623q0 -86 29.5 -129.5t94.5 -43.5q51 0 112 20v-100q-78 -25 -143 -25q-103 0 -161 61t-58 184v656h-218v100h218v282l126 74v-356h236v-100zM268 -441h-82l182 329h134z" />
    <glyph glyph-name="u" unicode="u" horiz-adv-x="1070" 
d="M789 986h126v-986h-126v171q-88 -186 -307 -186q-164 0 -253 97.5t-89 288.5v615h126v-570q0 -163 61 -241.5t183 -78.5q136 0 207.5 95.5t71.5 293.5v501z" />
    <glyph glyph-name="uacute" unicode="&#xfa;" horiz-adv-x="1070" 
d="M789 986h126v-986h-126v171q-88 -186 -307 -186q-164 0 -253 97.5t-89 288.5v615h126v-570q0 -163 61 -241.5t183 -78.5q136 0 207.5 95.5t71.5 293.5v501zM575 1113h-97l215 281h136z" />
    <glyph glyph-name="ubreve" unicode="&#x16d;" horiz-adv-x="1070" 
d="M789 986h126v-986h-126v171q-88 -186 -307 -186q-164 0 -253 97.5t-89 288.5v615h126v-570q0 -163 61 -241.5t183 -78.5q136 0 207.5 95.5t71.5 293.5v501zM227 1394h84q0 -100 55.5 -149t160.5 -49q106 0 161 49.5t55 148.5h85q0 -275 -301 -275q-300 0 -300 275z" />
    <glyph glyph-name="uni01D4" unicode="&#x1d4;" horiz-adv-x="1070" 
d="M789 986h126v-986h-126v171q-88 -186 -307 -186q-164 0 -253 97.5t-89 288.5v615h126v-570q0 -163 61 -241.5t183 -78.5q136 0 207.5 95.5t71.5 293.5v501zM823 1394l-296 -303l-296 303h104l192 -195l193 195h103z" />
    <glyph glyph-name="ucircumflex" unicode="&#xfb;" horiz-adv-x="1070" 
d="M789 986h126v-986h-126v171q-88 -186 -307 -186q-164 0 -253 97.5t-89 288.5v615h126v-570q0 -163 61 -241.5t183 -78.5q136 0 207.5 95.5t71.5 293.5v501zM337 1099h-107l297 312l297 -312h-107l-190 200z" />
    <glyph glyph-name="udieresis" unicode="&#xfc;" horiz-adv-x="1070" 
d="M789 986h126v-986h-126v171q-88 -186 -307 -186q-164 0 -253 97.5t-89 288.5v615h126v-570q0 -163 61 -241.5t183 -78.5q136 0 207.5 95.5t71.5 293.5v501zM415 1178h-135v216h135v-216zM773 1178h-135v216h135v-216z" />
    <glyph glyph-name="uni01D8" unicode="&#x1d8;" horiz-adv-x="1070" 
d="M789 986h126v-986h-126v171q-88 -186 -307 -186q-164 0 -253 97.5t-89 288.5v615h126v-570q0 -163 61 -241.5t183 -78.5q136 0 207.5 95.5t71.5 293.5v501zM415 1178h-135v216h135v-216zM773 1178h-135v216h135v-216zM575 1521h-97l215 281h136z" />
    <glyph glyph-name="uni01DA" unicode="&#x1da;" horiz-adv-x="1070" 
d="M789 986h126v-986h-126v171q-88 -186 -307 -186q-164 0 -253 97.5t-89 288.5v615h126v-570q0 -163 61 -241.5t183 -78.5q136 0 207.5 95.5t71.5 293.5v501zM415 1178h-135v216h135v-216zM773 1178h-135v216h135v-216zM823 1802l-296 -303l-296 303h104l192 -195l193 195
h103z" />
    <glyph glyph-name="uni01DC" unicode="&#x1dc;" horiz-adv-x="1070" 
d="M789 986h126v-986h-126v171q-88 -186 -307 -186q-164 0 -253 97.5t-89 288.5v615h126v-570q0 -163 61 -241.5t183 -78.5q136 0 207.5 95.5t71.5 293.5v501zM415 1178h-135v216h135v-216zM773 1178h-135v216h135v-216zM576 1521h-98l-245 281h135z" />
    <glyph glyph-name="uni01D6" unicode="&#x1d6;" horiz-adv-x="1070" 
d="M789 986h126v-986h-126v171q-88 -186 -307 -186q-164 0 -253 97.5t-89 288.5v615h126v-570q0 -163 61 -241.5t183 -78.5q136 0 207.5 95.5t71.5 293.5v501zM415 1178h-135v216h135v-216zM773 1178h-135v216h135v-216zM797 1614h-540v78h540v-78z" />
    <glyph glyph-name="uni1EE5" unicode="&#x1ee5;" horiz-adv-x="1070" 
d="M789 986h126v-986h-126v171q-88 -186 -307 -186q-164 0 -253 97.5t-89 288.5v615h126v-570q0 -163 61 -241.5t183 -78.5q136 0 207.5 95.5t71.5 293.5v501zM606 -347h-135v201h135v-201z" />
    <glyph glyph-name="ugrave" unicode="&#xf9;" horiz-adv-x="1070" 
d="M789 986h126v-986h-126v171q-88 -186 -307 -186q-164 0 -253 97.5t-89 288.5v615h126v-570q0 -163 61 -241.5t183 -78.5q136 0 207.5 95.5t71.5 293.5v501zM576 1113h-98l-245 281h135z" />
    <glyph glyph-name="uni1EE7" unicode="&#x1ee7;" horiz-adv-x="1070" 
d="M789 986h126v-986h-126v171q-88 -186 -307 -186q-164 0 -253 97.5t-89 288.5v615h126v-570q0 -163 61 -241.5t183 -78.5q136 0 207.5 95.5t71.5 293.5v501zM487 1103q75 14 118 36t43 71q0 55 -55 82t-139 27h-31v76h31q83 0 148.5 -21.5t103 -61.5t37.5 -95t-36 -88.5
t-88 -49.5t-122 -27z" />
    <glyph glyph-name="uhorn" unicode="&#x1b0;" horiz-adv-x="1070" 
d="M1011 1299h91v-98q0 -119 -46 -194t-141 -98v-909h-126v171q-88 -186 -307 -186q-164 0 -253 97.5t-89 288.5v615h126v-570q0 -163 61 -241.5t183 -78.5q136 0 207.5 95.5t71.5 293.5v501h40q95 0 138.5 54.5t43.5 167.5v91z" />
    <glyph glyph-name="uni1EE9" unicode="&#x1ee9;" horiz-adv-x="1070" 
d="M1011 1299h91v-98q0 -119 -46 -194t-141 -98v-909h-126v171q-88 -186 -307 -186q-164 0 -253 97.5t-89 288.5v615h126v-570q0 -163 61 -241.5t183 -78.5q136 0 207.5 95.5t71.5 293.5v501h40q95 0 138.5 54.5t43.5 167.5v91zM575 1113h-97l215 281h136z" />
    <glyph glyph-name="uni1EF1" unicode="&#x1ef1;" horiz-adv-x="1070" 
d="M1011 1299h91v-98q0 -119 -46 -194t-141 -98v-909h-126v171q-88 -186 -307 -186q-164 0 -253 97.5t-89 288.5v615h126v-570q0 -163 61 -241.5t183 -78.5q136 0 207.5 95.5t71.5 293.5v501h40q95 0 138.5 54.5t43.5 167.5v91zM606 -347h-135v201h135v-201z" />
    <glyph glyph-name="uni1EEB" unicode="&#x1eeb;" horiz-adv-x="1070" 
d="M1011 1299h91v-98q0 -119 -46 -194t-141 -98v-909h-126v171q-88 -186 -307 -186q-164 0 -253 97.5t-89 288.5v615h126v-570q0 -163 61 -241.5t183 -78.5q136 0 207.5 95.5t71.5 293.5v501h40q95 0 138.5 54.5t43.5 167.5v91zM576 1113h-98l-245 281h135z" />
    <glyph glyph-name="uni1EED" unicode="&#x1eed;" horiz-adv-x="1070" 
d="M1011 1299h91v-98q0 -119 -46 -194t-141 -98v-909h-126v171q-88 -186 -307 -186q-164 0 -253 97.5t-89 288.5v615h126v-570q0 -163 61 -241.5t183 -78.5q136 0 207.5 95.5t71.5 293.5v501h40q95 0 138.5 54.5t43.5 167.5v91zM487 1103q75 14 118 36t43 71q0 55 -55 82
t-139 27h-31v76h31q83 0 148.5 -21.5t103 -61.5t37.5 -95t-36 -88.5t-88 -49.5t-122 -27z" />
    <glyph glyph-name="uni1EEF" unicode="&#x1eef;" horiz-adv-x="1070" 
d="M1011 1299h91v-98q0 -119 -46 -194t-141 -98v-909h-126v171q-88 -186 -307 -186q-164 0 -253 97.5t-89 288.5v615h126v-570q0 -163 61 -241.5t183 -78.5q136 0 207.5 95.5t71.5 293.5v501h40q95 0 138.5 54.5t43.5 167.5v91zM592.5 1159q-30.5 14 -50.5 34t-45 53
q-30 39 -52 57t-55 17q-48 1 -75 -40.5t-27 -117.5h-77q0 113 49 176.5t135 63.5q38 0 66 -13.5t47 -32.5t44 -51q31 -40 55.5 -59.5t59.5 -19.5q41 0 68 45.5t27 122.5h80q0 -115 -48 -182t-129 -67q-42 0 -72.5 14z" />
    <glyph glyph-name="uhungarumlaut" unicode="&#x171;" horiz-adv-x="1070" 
d="M789 986h126v-986h-126v171q-88 -186 -307 -186q-164 0 -253 97.5t-89 288.5v615h126v-570q0 -163 61 -241.5t183 -78.5q136 0 207.5 95.5t71.5 293.5v501zM408 1093h-97l215 301h116zM743 1093h-97l215 301h135z" />
    <glyph glyph-name="umacron" unicode="&#x16b;" horiz-adv-x="1070" 
d="M789 986h126v-986h-126v171q-88 -186 -307 -186q-164 0 -253 97.5t-89 288.5v615h126v-570q0 -163 61 -241.5t183 -78.5q136 0 207.5 95.5t71.5 293.5v501zM797 1206h-540v78h540v-78z" />
    <glyph glyph-name="uogonek" unicode="&#x173;" horiz-adv-x="1070" 
d="M993 -339q-81 -86 -183 -86q-77 0 -127 43.5t-50 118.5q0 80 50 148t123 115h-17v171q-88 -186 -307 -186q-164 0 -253 97.5t-89 288.5v615h126v-570q0 -163 61 -241.5t183 -78.5q136 0 207.5 95.5t71.5 293.5v501h126v-986q-84 -47 -143.5 -113.5t-59.5 -137.5
q0 -47 26.5 -70t67.5 -23q66 0 124 55z" />
    <glyph glyph-name="uring" unicode="&#x16f;" horiz-adv-x="1070" 
d="M789 986h126v-986h-126v171q-88 -186 -307 -186q-164 0 -253 97.5t-89 288.5v615h126v-570q0 -163 61 -241.5t183 -78.5q136 0 207.5 95.5t71.5 293.5v501zM431 1107q-44 26 -69 69.5t-25 94.5q0 52 25.5 95.5t69 69t95.5 25.5q50 0 94 -25.5t70 -69t26 -95.5
t-25.5 -95.5t-69 -69t-95.5 -25.5t-96 26zM610.5 1188q33.5 34 33.5 84t-33 83.5t-84 33.5t-84 -33.5t-33 -83.5q0 -51 33.5 -84.5t83.5 -33.5t83.5 34z" />
    <glyph glyph-name="utilde" unicode="&#x169;" horiz-adv-x="1070" 
d="M789 986h126v-986h-126v171q-88 -186 -307 -186q-164 0 -253 97.5t-89 288.5v615h126v-570q0 -163 61 -241.5t183 -78.5q136 0 207.5 95.5t71.5 293.5v501zM592.5 1159q-30.5 14 -50.5 34t-45 53q-30 39 -52 57t-55 17q-48 1 -75 -40.5t-27 -117.5h-77q0 113 49 176.5
t135 63.5q38 0 66 -13.5t47 -32.5t44 -51q31 -40 55.5 -59.5t59.5 -19.5q41 0 68 45.5t27 122.5h80q0 -115 -48 -182t-129 -67q-42 0 -72.5 14z" />
    <glyph glyph-name="v" unicode="v" horiz-adv-x="1024" 
d="M566 0h-108l-404 986h139l318 -826l320 826h138z" />
    <glyph glyph-name="w" unicode="w" horiz-adv-x="1489" 
d="M472 0h-120l-287 986h135l219 -797l268 797h115l267 -795l219 795h135l-287 -986h-120l-271 812z" />
    <glyph glyph-name="wacute" unicode="&#x1e83;" horiz-adv-x="1489" 
d="M472 0h-120l-287 986h135l219 -797l268 797h115l267 -795l219 795h135l-287 -986h-120l-271 812zM792 1113h-97l215 281h136z" />
    <glyph glyph-name="wcircumflex" unicode="&#x175;" horiz-adv-x="1489" 
d="M472 0h-120l-287 986h135l219 -797l268 797h115l267 -795l219 795h135l-287 -986h-120l-271 812zM554 1099h-107l297 312l297 -312h-107l-190 200z" />
    <glyph glyph-name="wdieresis" unicode="&#x1e85;" horiz-adv-x="1489" 
d="M472 0h-120l-287 986h135l219 -797l268 797h115l267 -795l219 795h135l-287 -986h-120l-271 812zM632 1178h-135v216h135v-216zM990 1178h-135v216h135v-216z" />
    <glyph glyph-name="wgrave" unicode="&#x1e81;" horiz-adv-x="1489" 
d="M472 0h-120l-287 986h135l219 -797l268 797h115l267 -795l219 795h135l-287 -986h-120l-271 812zM793 1113h-98l-245 281h135z" />
    <glyph glyph-name="x" unicode="x" horiz-adv-x="1019" 
d="M218 0h-156l363 494l-363 492h155l291 -404l291 404h155l-364 -492l366 -494h-155l-293 407z" />
    <glyph glyph-name="y" unicode="y" horiz-adv-x="1024" 
d="M400 -407h-136l181 440l-391 953h139l318 -826l320 826h138z" />
    <glyph glyph-name="yacute" unicode="&#xfd;" horiz-adv-x="1024" 
d="M400 -407h-136l181 440l-391 953h139l318 -826l320 826h138zM561 1113h-97l215 281h136z" />
    <glyph glyph-name="ycircumflex" unicode="&#x177;" horiz-adv-x="1024" 
d="M400 -407h-136l181 440l-391 953h139l318 -826l320 826h138zM323 1099h-107l297 312l297 -312h-107l-190 200z" />
    <glyph glyph-name="ydieresis" unicode="&#xff;" horiz-adv-x="1024" 
d="M400 -407h-136l181 440l-391 953h139l318 -826l320 826h138zM401 1178h-135v216h135v-216zM759 1178h-135v216h135v-216z" />
    <glyph glyph-name="uni1EF5" unicode="&#x1ef5;" horiz-adv-x="1024" 
d="M400 -407h-136l181 440l-391 953h139l318 -826l320 826h138zM890 -408h-135v201h135v-201z" />
    <glyph glyph-name="ygrave" unicode="&#x1ef3;" horiz-adv-x="1024" 
d="M400 -407h-136l181 440l-391 953h139l318 -826l320 826h138zM562 1113h-98l-245 281h135z" />
    <glyph glyph-name="uni1EF7" unicode="&#x1ef7;" horiz-adv-x="1024" 
d="M400 -407h-136l181 440l-391 953h139l318 -826l320 826h138zM473 1103q75 14 118 36t43 71q0 55 -55 82t-139 27h-31v76h31q83 0 148.5 -21.5t103 -61.5t37.5 -95t-36 -88.5t-88 -49.5t-122 -27z" />
    <glyph glyph-name="uni0233" unicode="&#x233;" horiz-adv-x="1024" 
d="M400 -407h-136l181 440l-391 953h139l318 -826l320 826h138zM783 1206h-540v78h540v-78z" />
    <glyph glyph-name="uni1EF9" unicode="&#x1ef9;" horiz-adv-x="1024" 
d="M400 -407h-136l181 440l-391 953h139l318 -826l320 826h138zM578.5 1159q-30.5 14 -50.5 34t-45 53q-30 39 -52 57t-55 17q-48 1 -75 -40.5t-27 -117.5h-77q0 113 49 176.5t135 63.5q38 0 66 -13.5t47 -32.5t44 -51q31 -40 55.5 -59.5t59.5 -19.5q41 0 68 45.5t27 122.5
h80q0 -115 -48 -182t-129 -67q-42 0 -72.5 14z" />
    <glyph glyph-name="z" unicode="z" horiz-adv-x="939" 
d="M107 986h751v-102l-623 -777h617v-107h-777v94l636 785h-604v107z" />
    <glyph glyph-name="zacute" unicode="&#x17a;" horiz-adv-x="939" 
d="M107 986h751v-102l-623 -777h617v-107h-777v94l636 785h-604v107zM519 1113h-97l215 281h136z" />
    <glyph glyph-name="zcaron" unicode="&#x17e;" horiz-adv-x="939" 
d="M107 986h751v-102l-623 -777h617v-107h-777v94l636 785h-604v107zM767 1394l-296 -303l-296 303h104l192 -195l193 195h103z" />
    <glyph glyph-name="zdotaccent" unicode="&#x17c;" horiz-adv-x="939" 
d="M107 986h751v-102l-623 -777h617v-107h-777v94l636 785h-604v107zM538 1178h-135v216h135v-216z" />
    <glyph glyph-name="g.ss01" horiz-adv-x="1185" 
d="M905 986h125v-962q0 -231 -125 -339t-340 -108q-149 0 -258 68.5t-168 184.5l98 76q45 -99 129.5 -159t197.5 -60q341 0 341 337v189q-52 -95 -142 -147.5t-203 -52.5q-133 0 -236 65.5t-159.5 178.5t-56.5 251q0 142 59 254.5t162 175.5t231 63q114 0 204.5 -54
t140.5 -147v186zM750.5 180q77.5 49 121 134.5t43.5 191.5q0 107 -43.5 193.5t-121 136t-174.5 49.5q-98 0 -176 -49.5t-122.5 -136t-44.5 -193.5q0 -106 43.5 -191.5t121.5 -134.5t177 -49q98 0 175.5 49z" />
    <glyph glyph-name="gbreve.ss01" horiz-adv-x="1185" 
d="M905 986h125v-962q0 -231 -125 -339t-340 -108q-149 0 -258 68.5t-168 184.5l98 76q45 -99 129.5 -159t197.5 -60q341 0 341 337v189q-52 -95 -142 -147.5t-203 -52.5q-133 0 -236 65.5t-159.5 178.5t-56.5 251q0 142 59 254.5t162 175.5t231 63q114 0 204.5 -54
t140.5 -147v186zM750.5 180q77.5 49 121 134.5t43.5 191.5q0 107 -43.5 193.5t-121 136t-174.5 49.5q-98 0 -176 -49.5t-122.5 -136t-44.5 -193.5q0 -106 43.5 -191.5t121.5 -134.5t177 -49q98 0 175.5 49zM303 1394h84q0 -100 55.5 -149t160.5 -49q106 0 161 49.5t55 148.5
h85q0 -275 -301 -275q-300 0 -300 275z" />
    <glyph glyph-name="uni0123.ss01" horiz-adv-x="1185" 
d="M905 986h125v-962q0 -231 -125 -339t-340 -108q-149 0 -258 68.5t-168 184.5l98 76q45 -99 129.5 -159t197.5 -60q341 0 341 337v189q-52 -95 -142 -147.5t-203 -52.5q-133 0 -236 65.5t-159.5 178.5t-56.5 251q0 142 59 254.5t162 175.5t231 63q114 0 204.5 -54
t140.5 -147v186zM750.5 180q77.5 49 121 134.5t43.5 191.5q0 107 -43.5 193.5t-121 136t-174.5 49.5q-98 0 -176 -49.5t-122.5 -136t-44.5 -193.5q0 -106 43.5 -191.5t121.5 -134.5t177 -49q98 0 175.5 49zM579 1110h-133l234 294h82z" />
    <glyph glyph-name="gdotaccent.ss01" horiz-adv-x="1185" 
d="M905 986h125v-962q0 -231 -125 -339t-340 -108q-149 0 -258 68.5t-168 184.5l98 76q45 -99 129.5 -159t197.5 -60q341 0 341 337v189q-52 -95 -142 -147.5t-203 -52.5q-133 0 -236 65.5t-159.5 178.5t-56.5 251q0 142 59 254.5t162 175.5t231 63q114 0 204.5 -54
t140.5 -147v186zM750.5 180q77.5 49 121 134.5t43.5 191.5q0 107 -43.5 193.5t-121 136t-174.5 49.5q-98 0 -176 -49.5t-122.5 -136t-44.5 -193.5q0 -106 43.5 -191.5t121.5 -134.5t177 -49q98 0 175.5 49zM670 1178h-135v216h135v-216z" />
    <glyph glyph-name="g.ss02" horiz-adv-x="1032" 
d="M669 139q156 0 226 -69.5t70 -189.5q0 -145 -117 -223.5t-330 -78.5q-198 0 -317.5 77.5t-119.5 232.5q0 33 9 65l138 113q-52 26 -83 71.5t-31 107.5q0 56 25 105t76 95q-76 90 -76 214q0 99 48.5 177t132.5 121.5t187 43.5q73 0 137.5 -23t114.5 -66l156 135l66 -82
l-154 -135q45 -78 45 -176q0 -97 -46 -172t-128 -116t-189 -41q-123 0 -214 54q-63 -57 -63 -120q0 -59 58 -89.5t160 -30.5h219zM381 864q-55 -30 -86 -83.5t-31 -121.5q0 -67 29.5 -120t85 -83t128.5 -30t127 30t83.5 82.5t29.5 119.5q0 70 -30 123.5t-84 83t-125 29.5
q-72 0 -127 -30zM760 -274.5q83 49.5 83 142.5q0 166 -192 166h-280q-22 0 -46 3l-126 -121v-25q0 -106 80 -160.5t239 -54.5t242 49.5z" />
    <glyph glyph-name="gbreve.ss02" horiz-adv-x="1032" 
d="M669 139q156 0 226 -69.5t70 -189.5q0 -145 -117 -223.5t-330 -78.5q-198 0 -317.5 77.5t-119.5 232.5q0 33 9 65l138 113q-52 26 -83 71.5t-31 107.5q0 56 25 105t76 95q-76 90 -76 214q0 99 48.5 177t132.5 121.5t187 43.5q73 0 137.5 -23t114.5 -66l156 135l66 -82
l-154 -135q45 -78 45 -176q0 -97 -46 -172t-128 -116t-189 -41q-123 0 -214 54q-63 -57 -63 -120q0 -59 58 -89.5t160 -30.5h219zM381 864q-55 -30 -86 -83.5t-31 -121.5q0 -67 29.5 -120t85 -83t128.5 -30t127 30t83.5 82.5t29.5 119.5q0 70 -30 123.5t-84 83t-125 29.5
q-72 0 -127 -30zM760 -274.5q83 49.5 83 142.5q0 166 -192 166h-280q-22 0 -46 3l-126 -121v-25q0 -106 80 -160.5t239 -54.5t242 49.5zM218 1394h84q0 -100 55.5 -149t160.5 -49q106 0 161 49.5t55 148.5h85q0 -275 -301 -275q-300 0 -300 275z" />
    <glyph glyph-name="uni0123.ss02" horiz-adv-x="1032" 
d="M669 139q156 0 226 -69.5t70 -189.5q0 -145 -117 -223.5t-330 -78.5q-198 0 -317.5 77.5t-119.5 232.5q0 33 9 65l138 113q-52 26 -83 71.5t-31 107.5q0 56 25 105t76 95q-76 90 -76 214q0 99 48.5 177t132.5 121.5t187 43.5q73 0 137.5 -23t114.5 -66l156 135l66 -82
l-154 -135q45 -78 45 -176q0 -97 -46 -172t-128 -116t-189 -41q-123 0 -214 54q-63 -57 -63 -120q0 -59 58 -89.5t160 -30.5h219zM381 864q-55 -30 -86 -83.5t-31 -121.5q0 -67 29.5 -120t85 -83t128.5 -30t127 30t83.5 82.5t29.5 119.5q0 70 -30 123.5t-84 83t-125 29.5
q-72 0 -127 -30zM760 -274.5q83 49.5 83 142.5q0 166 -192 166h-280q-22 0 -46 3l-126 -121v-25q0 -106 80 -160.5t239 -54.5t242 49.5zM494 1110h-133l234 294h82z" />
    <glyph glyph-name="gdotaccent.ss02" horiz-adv-x="1032" 
d="M669 139q156 0 226 -69.5t70 -189.5q0 -145 -117 -223.5t-330 -78.5q-198 0 -317.5 77.5t-119.5 232.5q0 33 9 65l138 113q-52 26 -83 71.5t-31 107.5q0 56 25 105t76 95q-76 90 -76 214q0 99 48.5 177t132.5 121.5t187 43.5q73 0 137.5 -23t114.5 -66l156 135l66 -82
l-154 -135q45 -78 45 -176q0 -97 -46 -172t-128 -116t-189 -41q-123 0 -214 54q-63 -57 -63 -120q0 -59 58 -89.5t160 -30.5h219zM381 864q-55 -30 -86 -83.5t-31 -121.5q0 -67 29.5 -120t85 -83t128.5 -30t127 30t83.5 82.5t29.5 119.5q0 70 -30 123.5t-84 83t-125 29.5
q-72 0 -127 -30zM760 -274.5q83 49.5 83 142.5q0 166 -192 166h-280q-22 0 -46 3l-126 -121v-25q0 -106 80 -160.5t239 -54.5t242 49.5zM585 1178h-135v216h135v-216z" />
    <glyph glyph-name="uni1EB7.ss03" horiz-adv-x="1068" 
d="M825.5 901q101.5 -100 101.5 -287v-614h-116l-8 191q-54 -105 -142 -155.5t-199 -50.5q-110 0 -190.5 37.5t-123 105.5t-42.5 159q0 145 104 220q97 69 278 69h314v38q0 135 -69.5 205.5t-205.5 70.5q-93 0 -164.5 -36t-137.5 -118l-92 76q79 98 178.5 143.5t223.5 45.5
q189 0 290.5 -100zM637.5 131.5q75.5 43.5 120 120t44.5 170.5v54h-297q-137 0 -206 -48q-68 -51 -68 -142t64.5 -144.5t177.5 -53.5q89 0 164.5 43.5zM480 -324.5q-26 26.5 -26 63.5t25.5 63t63.5 26q37 0 62.5 -26t25.5 -63q0 -38 -25.5 -64t-62.5 -26t-63 26.5zM243 1394
h84q0 -100 55.5 -149t160.5 -49q106 0 161 49.5t55 148.5h85q0 -275 -301 -275q-300 0 -300 275z" />
    <glyph glyph-name="uni1EAD.ss03" horiz-adv-x="1068" 
d="M825.5 901q101.5 -100 101.5 -287v-614h-116l-8 191q-54 -105 -142 -155.5t-199 -50.5q-110 0 -190.5 37.5t-123 105.5t-42.5 159q0 145 104 220q97 69 278 69h314v38q0 135 -69.5 205.5t-205.5 70.5q-93 0 -164.5 -36t-137.5 -118l-92 76q79 98 178.5 143.5t223.5 45.5
q189 0 290.5 -100zM637.5 131.5q75.5 43.5 120 120t44.5 170.5v54h-297q-137 0 -206 -48q-68 -51 -68 -142t64.5 -144.5t177.5 -53.5q89 0 164.5 43.5zM480 -324.5q-26 26.5 -26 63.5t25.5 63t63.5 26q37 0 62.5 -26t25.5 -63q0 -38 -25.5 -64t-62.5 -26t-63 26.5zM353 1099
h-107l297 312l297 -312h-107l-190 200z" />
    <glyph glyph-name="adieresis.ss03" horiz-adv-x="1068" 
d="M825.5 901q101.5 -100 101.5 -287v-614h-116l-8 191q-54 -105 -142 -155.5t-199 -50.5q-110 0 -190.5 37.5t-123 105.5t-42.5 159q0 145 104 220q97 69 278 69h314v38q0 135 -69.5 205.5t-205.5 70.5q-93 0 -164.5 -36t-137.5 -118l-92 76q79 98 178.5 143.5t223.5 45.5
q189 0 290.5 -100zM637.5 131.5q75.5 43.5 120 120t44.5 170.5v54h-297q-137 0 -206 -48q-68 -51 -68 -142t64.5 -144.5t177.5 -53.5q89 0 164.5 43.5zM281 1256.5q-26 26.5 -26 63.5q0 38 25.5 63.5t63.5 25.5q37 0 62.5 -26t25.5 -63q0 -38 -25.5 -64t-62.5 -26t-63 26.5z
M680 1256.5q-26 26.5 -26 63.5q0 38 25.5 63.5t63.5 25.5q37 0 63 -25.5t26 -63.5t-26 -64t-63 -26t-63 26.5z" />
    <glyph glyph-name="uni1EA1.ss03" horiz-adv-x="1068" 
d="M825.5 901q101.5 -100 101.5 -287v-614h-116l-8 191q-54 -105 -142 -155.5t-199 -50.5q-110 0 -190.5 37.5t-123 105.5t-42.5 159q0 145 104 220q97 69 278 69h314v38q0 135 -69.5 205.5t-205.5 70.5q-93 0 -164.5 -36t-137.5 -118l-92 76q79 98 178.5 143.5t223.5 45.5
q189 0 290.5 -100zM637.5 131.5q75.5 43.5 120 120t44.5 170.5v54h-297q-137 0 -206 -48q-68 -51 -68 -142t64.5 -144.5t177.5 -53.5q89 0 164.5 43.5zM480 -324.5q-26 26.5 -26 63.5t25.5 63t63.5 26q37 0 62.5 -26t25.5 -63q0 -38 -25.5 -64t-62.5 -26t-63 26.5z" />
    <glyph glyph-name="cdotaccent.ss03" horiz-adv-x="1032" 
d="M314.5 52q-100.5 67 -153.5 183t-53 259q0 142 53 257.5t153.5 182.5t235.5 67q139 0 239.5 -69t148.5 -200l-112 -44q-33 96 -103.5 149t-172.5 53q-103 0 -174.5 -54t-106.5 -144t-35 -198q0 -109 35 -199.5t106.5 -144.5t174.5 -54q102 0 172.5 53t103.5 149l112 -44
q-48 -130 -149 -199.5t-239 -69.5q-135 0 -235.5 67zM475 1256.5q-26 26.5 -26 63.5q0 38 25.5 63.5t63.5 25.5q37 0 62.5 -26t25.5 -63q0 -38 -25.5 -64t-62.5 -26t-63 26.5z" />
    <glyph glyph-name="uni1EC7.ss03" horiz-adv-x="1075" 
d="M965 459h-729q2 -111 41.5 -192t112 -124t171.5 -43q92 0 158.5 28.5t132.5 98.5l89 -79q-84 -86 -172.5 -124.5t-207.5 -38.5q-144 0 -245.5 65.5t-153.5 179t-52 257.5q0 143 51 260t149 185.5t235 68.5q143 0 238.5 -65.5t141 -169.5t45.5 -221q0 -43 -5 -86zM849 558
q1 11 1 30q0 76 -32.5 146t-101 115t-169.5 45q-90 0 -157.5 -43.5t-107 -119.5t-47.5 -173h614zM498 -324.5q-26 26.5 -26 63.5t25.5 63t63.5 26q37 0 62.5 -26t25.5 -63q0 -38 -25.5 -64t-62.5 -26t-63 26.5zM355 1099h-107l297 312l297 -312h-107l-190 200z" />
    <glyph glyph-name="edieresis.ss03" horiz-adv-x="1075" 
d="M965 459h-729q2 -111 41.5 -192t112 -124t171.5 -43q92 0 158.5 28.5t132.5 98.5l89 -79q-84 -86 -172.5 -124.5t-207.5 -38.5q-144 0 -245.5 65.5t-153.5 179t-52 257.5q0 143 51 260t149 185.5t235 68.5q143 0 238.5 -65.5t141 -169.5t45.5 -221q0 -43 -5 -86zM849 558
q1 11 1 30q0 76 -32.5 146t-101 115t-169.5 45q-90 0 -157.5 -43.5t-107 -119.5t-47.5 -173h614zM283 1256.5q-26 26.5 -26 63.5q0 38 25.5 63.5t63.5 25.5q37 0 62.5 -26t25.5 -63q0 -38 -25.5 -64t-62.5 -26t-63 26.5zM682 1256.5q-26 26.5 -26 63.5q0 38 25.5 63.5
t63.5 25.5q37 0 63 -25.5t26 -63.5t-26 -64t-63 -26t-63 26.5z" />
    <glyph glyph-name="edotaccent.ss03" horiz-adv-x="1075" 
d="M965 459h-729q2 -111 41.5 -192t112 -124t171.5 -43q92 0 158.5 28.5t132.5 98.5l89 -79q-84 -86 -172.5 -124.5t-207.5 -38.5q-144 0 -245.5 65.5t-153.5 179t-52 257.5q0 143 51 260t149 185.5t235 68.5q143 0 238.5 -65.5t141 -169.5t45.5 -221q0 -43 -5 -86zM849 558
q1 11 1 30q0 76 -32.5 146t-101 115t-169.5 45q-90 0 -157.5 -43.5t-107 -119.5t-47.5 -173h614zM482 1256.5q-26 26.5 -26 63.5q0 38 25.5 63.5t63.5 25.5q37 0 62.5 -26t25.5 -63q0 -38 -25.5 -64t-62.5 -26t-63 26.5z" />
    <glyph glyph-name="gdotaccent.ss03" horiz-adv-x="1026" 
d="M731 69.5q87 -21.5 147 -73.5t60 -147q0 -132 -108 -202.5t-296 -70.5q-140 0 -242 35t-156.5 101t-54.5 158q0 30 4 54l171 134q-69 30 -105 76t-36 116q0 60 26 105t78 81q-41 43 -63 100t-22 123q0 99 48.5 177t132.5 121.5t187 43.5q73 0 137.5 -23t113.5 -66
l156 135l66 -82l-154 -135q46 -79 46 -176t-46 -172t-128 -116t-189 -41q-116 0 -204 48q-69 -45 -69 -110q0 -49 30 -77.5t81.5 -43t137.5 -26.5q164 -25 251 -46.5zM376 864q-55 -30 -86 -83.5t-31 -121.5q0 -67 29.5 -120t85 -83t128.5 -30t127 30t83.5 82.5t29.5 119.5
q0 70 -30 123.5t-84 83t-125 29.5q-72 0 -127 -30zM735 -286q78 41 78 122q0 57 -40.5 88.5t-104.5 47t-185 34.5l-22 3q-77 11 -115 21l-138 -135q-2 -11 -2 -29q0 -93 90 -143t238 -50q123 0 201 41zM445 1256.5q-26 26.5 -26 63.5q0 38 25.5 63.5t63.5 25.5
q37 0 62.5 -26t25.5 -63q0 -38 -25.5 -64t-62.5 -26t-63 26.5z" />
    <glyph glyph-name="i.ss03" horiz-adv-x="436" 
d="M280 0h-125v986h125v-986zM155 1256.5q-26 26.5 -26 63.5q0 38 25.5 63.5t63.5 25.5q37 0 62.5 -26t25.5 -63q0 -38 -25.5 -64t-62.5 -26t-63 26.5z" />
    <glyph glyph-name="idieresis.ss03" horiz-adv-x="436" 
d="M280 0h-125v986h125v-986zM-44 1256.5q-26 26.5 -26 63.5q0 38 25.5 63.5t63.5 25.5q37 0 62.5 -26t25.5 -63q0 -38 -25.5 -64t-62.5 -26t-63 26.5zM355 1256.5q-26 26.5 -26 63.5q0 38 25.5 63.5t63.5 25.5q37 0 63 -25.5t26 -63.5t-26 -64t-63 -26t-63 26.5z" />
    <glyph glyph-name="i.loclTRK.ss03" horiz-adv-x="436" 
d="M280 0h-125v986h125v-986zM155 1256.5q-26 26.5 -26 63.5q0 38 25.5 63.5t63.5 25.5q37 0 62.5 -26t25.5 -63q0 -38 -25.5 -64t-62.5 -26t-63 26.5z" />
    <glyph glyph-name="uni1ECB.ss03" horiz-adv-x="436" 
d="M280 0h-125v986h125v-986zM155 1256.5q-26 26.5 -26 63.5q0 38 25.5 63.5t63.5 25.5q37 0 62.5 -26t25.5 -63q0 -38 -25.5 -64t-62.5 -26t-63 26.5zM155 -324.5q-26 26.5 -26 63.5t25.5 63t63.5 26q37 0 62.5 -26t25.5 -63q0 -38 -25.5 -64t-62.5 -26t-63 26.5z" />
    <glyph glyph-name="iogonek.ss03" horiz-adv-x="436" 
d="M155 1256.5q-26 26.5 -26 63.5q0 38 26 63.5t63 25.5t62.5 -26t25.5 -63q0 -38 -25.5 -64t-62.5 -26t-63 26.5zM358 -339q-81 -86 -183 -86q-77 0 -127 43.5t-50 118.5q0 80 50 148t123 115h-16v986h125v-986q-84 -47 -143.5 -113.5t-59.5 -137.5q0 -47 26.5 -70
t67.5 -23q66 0 124 55z" />
    <glyph glyph-name="j.ss03" horiz-adv-x="436" 
d="M-47 -398v111q59 -19 99 -19q53 0 78 31.5t25 104.5v1156h126v-1187q0 -112 -48.5 -167t-137.5 -55q-59 0 -142 25zM156 1256.5q-26 26.5 -26 63.5q0 38 25.5 63.5t63.5 25.5q37 0 62.5 -26t25.5 -63q0 -38 -25.5 -64t-62.5 -26t-63 26.5z" />
    <glyph glyph-name="ldot.ss03" horiz-adv-x="628" 
d="M197.5 39.5q-47.5 54.5 -47.5 166.5v1188h125v-1165q0 -127 97 -127q41 0 92 18v-110q-74 -25 -132 -25q-87 0 -134.5 54.5zM513.5 640q-25.5 26 -25.5 64q0 37 25.5 63t62.5 26q38 0 63.5 -25.5t25.5 -63.5t-26 -64t-63 -26t-62.5 26z" />
    <glyph glyph-name="uni1E45.ss03" horiz-adv-x="1072" 
d="M839 904q89 -97 89 -289v-615h-126v570q0 163 -61 241.5t-184 78.5q-135 0 -206.5 -95.5t-71.5 -293.5v-501h-126v986h126v-171q45 95 124 140.5t183 45.5q164 0 253 -97zM463 1256.5q-26 26.5 -26 63.5q0 38 25.5 63.5t63.5 25.5q37 0 62.5 -26t25.5 -63
q0 -38 -25.5 -64t-62.5 -26t-63 26.5z" />
    <glyph glyph-name="uni1ED9.ss03" horiz-adv-x="1153" 
d="M333 50q-107 65 -167 181t-60 263t60 262.5t167 180t243 64.5t243 -64.5t167 -180t60 -262.5t-60 -263t-167 -181t-243 -65t-243 65zM757 146.5q78 49.5 120.5 139t42.5 208.5q0 118 -42.5 207.5t-120.5 138.5t-181 49t-181 -49t-120.5 -138.5t-42.5 -207.5t42.5 -208
t120.5 -139.5t181 -49.5t181 49.5zM513 -324.5q-26 26.5 -26 63.5t25.5 63t63.5 26q37 0 62.5 -26t25.5 -63q0 -38 -25.5 -64t-62.5 -26t-63 26.5zM386 1099h-107l297 312l297 -312h-107l-190 200z" />
    <glyph glyph-name="odieresis.ss03" horiz-adv-x="1153" 
d="M333 50q-107 65 -167 181t-60 263t60 262.5t167 180t243 64.5t243 -64.5t167 -180t60 -262.5t-60 -263t-167 -181t-243 -65t-243 65zM757 146.5q78 49.5 120.5 139t42.5 208.5q0 118 -42.5 207.5t-120.5 138.5t-181 49t-181 -49t-120.5 -138.5t-42.5 -207.5t42.5 -208
t120.5 -139.5t181 -49.5t181 49.5zM314 1256.5q-26 26.5 -26 63.5q0 38 25.5 63.5t63.5 25.5q37 0 62.5 -26t25.5 -63q0 -38 -25.5 -64t-62.5 -26t-63 26.5zM713 1256.5q-26 26.5 -26 63.5q0 38 25.5 63.5t63.5 25.5q37 0 63 -25.5t26 -63.5t-26 -64t-63 -26t-63 26.5z" />
    <glyph glyph-name="uni1EE3.ss03" horiz-adv-x="1153" 
d="M1079 1140h91v-98q0 -116 -45 -191t-137 -99q58 -113 58 -258q0 -147 -60 -263t-167 -181t-243 -65t-243 65t-167 181t-60 263t60 262.5t167 180t243 64.5q112 0 205.5 -45t157.5 -126q73 11 106.5 65t33.5 154v91zM757 146.5q78 49.5 120.5 139t42.5 208.5
q0 118 -42.5 207.5t-120.5 138.5t-181 49t-181 -49t-120.5 -138.5t-42.5 -207.5t42.5 -208t120.5 -139.5t181 -49.5t181 49.5zM513 -324.5q-26 26.5 -26 63.5t25.5 63t63.5 26q37 0 62.5 -26t25.5 -63q0 -38 -25.5 -64t-62.5 -26t-63 26.5z" />
    <glyph glyph-name="gdotaccent.ss01.ss03" horiz-adv-x="1185" 
d="M905 986h125v-962q0 -231 -125 -339t-340 -108q-149 0 -258 68.5t-168 184.5l98 76q45 -99 129.5 -159t197.5 -60q341 0 341 337v189q-52 -95 -142 -147.5t-203 -52.5q-133 0 -236 65.5t-159.5 178.5t-56.5 251q0 142 59 254.5t162 175.5t231 63q114 0 204.5 -54
t140.5 -147v186zM750.5 180q77.5 49 121 134.5t43.5 191.5q0 107 -43.5 193.5t-121 136t-174.5 49.5q-98 0 -176 -49.5t-122.5 -136t-44.5 -193.5q0 -106 43.5 -191.5t121.5 -134.5t177 -49q98 0 175.5 49zM540 1256.5q-26 26.5 -26 63.5q0 38 25.5 63.5t63.5 25.5
q37 0 62.5 -26t25.5 -63q0 -38 -25.5 -64t-62.5 -26t-63 26.5z" />
    <glyph glyph-name="gdotaccent.ss02.ss03" horiz-adv-x="1032" 
d="M669 139q156 0 226 -69.5t70 -189.5q0 -145 -117 -223.5t-330 -78.5q-198 0 -317.5 77.5t-119.5 232.5q0 33 9 65l138 113q-52 26 -83 71.5t-31 107.5q0 56 25 105t76 95q-76 90 -76 214q0 99 48.5 177t132.5 121.5t187 43.5q73 0 137.5 -23t114.5 -66l156 135l66 -82
l-154 -135q45 -78 45 -176q0 -97 -46 -172t-128 -116t-189 -41q-123 0 -214 54q-63 -57 -63 -120q0 -59 58 -89.5t160 -30.5h219zM381 864q-55 -30 -86 -83.5t-31 -121.5q0 -67 29.5 -120t85 -83t128.5 -30t127 30t83.5 82.5t29.5 119.5q0 70 -30 123.5t-84 83t-125 29.5
q-72 0 -127 -30zM760 -274.5q83 49.5 83 142.5q0 166 -192 166h-280q-22 0 -46 3l-126 -121v-25q0 -106 80 -160.5t239 -54.5t242 49.5zM455 1256.5q-26 26.5 -26 63.5q0 38 25.5 63.5t63.5 25.5q37 0 62.5 -26t25.5 -63q0 -38 -25.5 -64t-62.5 -26t-63 26.5z" />
    <glyph glyph-name="udieresis.ss03" horiz-adv-x="1070" 
d="M789 986h126v-986h-126v171q-88 -186 -307 -186q-164 0 -253 97.5t-89 288.5v615h126v-570q0 -163 61 -241.5t183 -78.5q136 0 207.5 95.5t71.5 293.5v501zM265 1256.5q-26 26.5 -26 63.5q0 38 25.5 63.5t63.5 25.5q37 0 62.5 -26t25.5 -63q0 -38 -25.5 -64t-62.5 -26
t-63 26.5zM664 1256.5q-26 26.5 -26 63.5q0 38 25.5 63.5t63.5 25.5q37 0 63 -25.5t26 -63.5t-26 -64t-63 -26t-63 26.5z" />
    <glyph glyph-name="uni01D8.ss03" horiz-adv-x="1070" 
d="M789 986h126v-986h-126v171q-88 -186 -307 -186q-164 0 -253 97.5t-89 288.5v615h126v-570q0 -163 61 -241.5t183 -78.5q136 0 207.5 95.5t71.5 293.5v501zM265 1256.5q-26 26.5 -26 63.5q0 38 25.5 63.5t63.5 25.5q37 0 62.5 -26t25.5 -63q0 -38 -25.5 -64t-62.5 -26
t-63 26.5zM664 1256.5q-26 26.5 -26 63.5q0 38 25.5 63.5t63.5 25.5q37 0 63 -25.5t26 -63.5t-26 -64t-63 -26t-63 26.5zM575 1536h-97l215 281h136z" />
    <glyph glyph-name="uni01DA.ss03" horiz-adv-x="1070" 
d="M789 986h126v-986h-126v171q-88 -186 -307 -186q-164 0 -253 97.5t-89 288.5v615h126v-570q0 -163 61 -241.5t183 -78.5q136 0 207.5 95.5t71.5 293.5v501zM265 1256.5q-26 26.5 -26 63.5q0 38 25.5 63.5t63.5 25.5q37 0 62.5 -26t25.5 -63q0 -38 -25.5 -64t-62.5 -26
t-63 26.5zM664 1256.5q-26 26.5 -26 63.5q0 38 25.5 63.5t63.5 25.5q37 0 63 -25.5t26 -63.5t-26 -64t-63 -26t-63 26.5zM823 1817l-296 -303l-296 303h104l192 -195l193 195h103z" />
    <glyph glyph-name="uni01DC.ss03" horiz-adv-x="1070" 
d="M789 986h126v-986h-126v171q-88 -186 -307 -186q-164 0 -253 97.5t-89 288.5v615h126v-570q0 -163 61 -241.5t183 -78.5q136 0 207.5 95.5t71.5 293.5v501zM265 1256.5q-26 26.5 -26 63.5q0 38 25.5 63.5t63.5 25.5q37 0 62.5 -26t25.5 -63q0 -38 -25.5 -64t-62.5 -26
t-63 26.5zM664 1256.5q-26 26.5 -26 63.5q0 38 25.5 63.5t63.5 25.5q37 0 63 -25.5t26 -63.5t-26 -64t-63 -26t-63 26.5zM576 1536h-98l-245 281h135z" />
    <glyph glyph-name="uni01D6.ss03" horiz-adv-x="1070" 
d="M789 986h126v-986h-126v171q-88 -186 -307 -186q-164 0 -253 97.5t-89 288.5v615h126v-570q0 -163 61 -241.5t183 -78.5q136 0 207.5 95.5t71.5 293.5v501zM265 1256.5q-26 26.5 -26 63.5q0 38 25.5 63.5t63.5 25.5q37 0 62.5 -26t25.5 -63q0 -38 -25.5 -64t-62.5 -26
t-63 26.5zM664 1256.5q-26 26.5 -26 63.5q0 38 25.5 63.5t63.5 25.5q37 0 63 -25.5t26 -63.5t-26 -64t-63 -26t-63 26.5zM797 1629h-540v78h540v-78z" />
    <glyph glyph-name="uni1EE5.ss03" horiz-adv-x="1070" 
d="M789 986h126v-986h-126v171q-88 -186 -307 -186q-164 0 -253 97.5t-89 288.5v615h126v-570q0 -163 61 -241.5t183 -78.5q136 0 207.5 95.5t71.5 293.5v501zM476 -324.5q-26 26.5 -26 63.5t25.5 63t63.5 26q37 0 62.5 -26t25.5 -63q0 -38 -25.5 -64t-62.5 -26t-63 26.5z
" />
    <glyph glyph-name="uni1EF1.ss03" horiz-adv-x="1070" 
d="M1011 1299h91v-98q0 -119 -46 -194t-141 -98v-909h-126v171q-88 -186 -307 -186q-164 0 -253 97.5t-89 288.5v615h126v-570q0 -163 61 -241.5t183 -78.5q136 0 207.5 95.5t71.5 293.5v501h40q95 0 138.5 54.5t43.5 167.5v91zM476 -324.5q-26 26.5 -26 63.5t25.5 63
t63.5 26q37 0 62.5 -26t25.5 -63q0 -38 -25.5 -64t-62.5 -26t-63 26.5z" />
    <glyph glyph-name="wdieresis.ss03" horiz-adv-x="1489" 
d="M472 0h-120l-287 986h135l219 -797l268 797h115l267 -795l219 795h135l-287 -986h-120l-271 812zM482 1256.5q-26 26.5 -26 63.5q0 38 25.5 63.5t63.5 25.5q37 0 62.5 -26t25.5 -63q0 -38 -25.5 -64t-62.5 -26t-63 26.5zM881 1256.5q-26 26.5 -26 63.5q0 38 25.5 63.5
t63.5 25.5q37 0 63 -25.5t26 -63.5t-26 -64t-63 -26t-63 26.5z" />
    <glyph glyph-name="ydieresis.ss03" horiz-adv-x="1024" 
d="M400 -407h-136l181 440l-391 953h139l318 -826l320 826h138zM251 1256.5q-26 26.5 -26 63.5q0 38 25.5 63.5t63.5 25.5q37 0 62.5 -26t25.5 -63q0 -38 -25.5 -64t-62.5 -26t-63 26.5zM650 1256.5q-26 26.5 -26 63.5q0 38 25.5 63.5t63.5 25.5q37 0 63 -25.5t26 -63.5
t-26 -64t-63 -26t-63 26.5z" />
    <glyph glyph-name="uni1EF5.ss03" horiz-adv-x="1024" 
d="M400 -407h-136l181 440l-391 953h139l318 -826l320 826h138zM760 -385.5q-26 26.5 -26 63.5t25.5 63t63.5 26q37 0 62.5 -26t25.5 -63q0 -38 -25.5 -64t-62.5 -26t-63 26.5z" />
    <glyph glyph-name="zdotaccent.ss03" horiz-adv-x="939" 
d="M107 986h751v-102l-623 -777h617v-107h-777v94l636 785h-604v107zM408 1256.5q-26 26.5 -26 63.5q0 38 25.5 63.5t63.5 25.5q37 0 62.5 -26t25.5 -63q0 -38 -25.5 -64t-62.5 -26t-63 26.5z" />
    <glyph glyph-name="T_h" horiz-adv-x="2047" 
d="M1816 901q88 -100 88 -286v-615h-126v570q0 162 -60.5 241t-184.5 79q-138 0 -208 -98t-70 -291v-501h-126v1277h-477v-1277h-132v1277h-488v117h1223v-578q87 185 307 185q166 0 254 -100z" />
    <glyph glyph-name="ordfeminine" unicode="&#xaa;" horiz-adv-x="897" 
d="M255 719.5q-54 25.5 -84 72.5t-30 110q0 100 72.5 152t195.5 52h228q0 26 -3 47q-5 89 -54 137t-141 48q-73 0 -124 -30t-90 -87l-61 42q57 78 120.5 112t151.5 34q131 0 203 -73t72 -204v-426h-70l-1 138q-97 -150 -261 -150q-70 0 -124 25.5zM625 918q6 39 12 118h-224
q-92 0 -141 -35t-49 -100q0 -62 46.5 -98.5t124.5 -36.5q153 0 231 152z" />
    <glyph glyph-name="ordmasculine" unicode="&#xba;" horiz-adv-x="947" 
d="M301 754.5q-77 46.5 -120 126.5t-43 177t43.5 177t120 127t172.5 47q94 0 170.5 -47t120.5 -127.5t44 -176.5q0 -98 -43.5 -178t-120 -126t-171.5 -46q-96 0 -173 46.5zM605.5 818q56.5 36 87 99t30.5 141q0 79 -30.5 142t-87 99t-131.5 36q-76 0 -133 -36t-87.5 -99
t-30.5 -142q0 -78 30.5 -141t87.5 -99t133 -36q75 0 131.5 36z" />
    <glyph glyph-name="uni0394" unicode="&#x394;" horiz-adv-x="1268" 
d="M1206 0h-1143l516 1394h110zM635 1211l-384 -1090h767z" />
    <glyph glyph-name="uni03A9" unicode="&#x3a9;" horiz-adv-x="1536" 
d="M101 0v124h356l26 26q-397 217 -397 631q0 185 78 329t221 224t330 80t330 -80t222 -224t79 -329q0 -208 -100.5 -364t-296.5 -267l24 -26h357v-124h-494v166q187 105 279.5 252.5t92.5 344.5q0 160 -58.5 278.5t-169.5 183t-265 64.5t-265 -64.5t-169.5 -183.5
t-58.5 -279q0 -200 93.5 -347.5t278.5 -248.5v-166h-493z" />
    <glyph glyph-name="uni03BC" unicode="&#x3bc;" horiz-adv-x="1070" 
d="M140 -345v1331h126v-597q0 -293 250 -293q138 0 205.5 101.5t67.5 275.5v513h126v-986h-126v174q-41 -91 -121 -140t-187 -49q-81 0 -135 34t-80 99v-463h-126z" />
    <glyph glyph-name="pi" unicode="&#x3c0;" horiz-adv-x="1102" 
d="M776 54.5q-58 69.5 -58 219.5v605h-396v-879h-125v879h-126v107h951v-107h-179v-567q0 -113 33.5 -161.5t109.5 -48.5q28 0 62 13l22 -103q-31 -14 -57 -20.5t-56 -6.5q-123 0 -181 69.5z" />
    <glyph glyph-name="zero" unicode="0" horiz-adv-x="1160" 
d="M240.5 190q-96.5 204 -96.5 510q0 304 95 507.5t339 203.5q237 0 338 -201t101 -513t-100 -511.5t-332 -199.5q-248 0 -344.5 204zM815 265q74 158 74 429q0 277 -75.5 436t-235.5 159q-306 0 -306 -593q0 -265 71.5 -427t241.5 -162q156 0 230 158z" />
    <glyph glyph-name="one" unicode="1" horiz-adv-x="1160" 
d="M636 1394h125v-1394h-125v1063h-367v106h255q57 0 84.5 24t27.5 80v121z" />
    <glyph glyph-name="two" unicode="2" horiz-adv-x="1160" 
d="M1041 118v-118h-913v120q227 166 373.5 290t252 274.5t105.5 305.5q0 138 -77 216t-213 78q-148 0 -229.5 -90.5t-84.5 -259.5l-124 9q0 140 54 244.5t154 161.5t233 57q124 0 217.5 -51t144 -144.5t50.5 -217.5q0 -168 -94.5 -319t-228 -270.5t-350.5 -285.5h730z" />
    <glyph glyph-name="three" unicode="3" horiz-adv-x="1160" 
d="M316 39q-110 53 -170 150t-60 225l125 7q0 -96 44.5 -167t127 -109t193.5 -38q107 0 187 36.5t123.5 103.5t43.5 156q0 153 -122 216.5t-319 64.5v101q154 -1 260 57.5t106 197.5q0 72 -36.5 128t-101.5 87.5t-148 31.5q-88 0 -155 -33t-103.5 -94t-36.5 -141l-125 7
q0 112 54 198.5t150.5 135t219.5 48.5q117 0 210 -46t145 -127t52 -183q0 -131 -78 -204t-191 -100q145 -24 245 -109t100 -237q0 -123 -61 -217.5t-171 -146.5t-252 -52q-146 0 -256 53z" />
    <glyph glyph-name="four" unicode="4" horiz-adv-x="1160" 
d="M883 1394v-943h212v-117h-212v-334h-126v334h-689v118l680 942h135zM757 1232l-558 -781h558v781z" />
    <glyph glyph-name="five" unicode="5" horiz-adv-x="1160" 
d="M834.5 869q102.5 -61 160 -166.5t57.5 -232.5q0 -131 -62.5 -242t-172 -177t-244.5 -66q-118 0 -217.5 50.5t-165.5 141t-88 206.5l123 22q16 -86 62.5 -153.5t119.5 -106.5t164 -39q103 0 182.5 49.5t123 133t43.5 181.5q0 96 -40.5 174t-115.5 122.5t-175 44.5
q-98 0 -178 -45t-135 -126l-130 37l126 717h714v-117h-610l-84 -478q69 67 148 99t164 32q128 0 230.5 -61z" />
    <glyph glyph-name="six" unicode="6" horiz-adv-x="1160" 
d="M824.5 837.5q104.5 -60.5 165 -164.5t60.5 -228q0 -128 -63 -233t-171 -166t-235 -61q-128 0 -236.5 60.5t-172 165.5t-63.5 232t73 249l419 702h143l-332 -546q89 50 184 50q124 0 228.5 -60.5zM752.5 150.5q78.5 44.5 124.5 122.5t46 173t-46 172.5t-124.5 122
t-171.5 44.5t-172 -44.5t-125.5 -122t-46.5 -173.5q0 -95 46 -172.5t125 -122t173 -44.5q93 0 171.5 44.5z" />
    <glyph glyph-name="seven" unicode="7" horiz-adv-x="1160" 
d="M79 1277v117h996v-103l-685 -1291h-140l680 1277h-851z" />
    <glyph glyph-name="eight" unicode="8" horiz-adv-x="1160" 
d="M351.5 32q-106.5 47 -172 140t-65.5 224t71 227t196 135q-87 35 -137 112.5t-50 183.5q0 108 55 188.5t144.5 123.5t189.5 43q108 0 196 -45.5t139 -128.5t51 -191q0 -101 -50.5 -176.5t-138.5 -109.5q124 -40 193.5 -136t69.5 -226q0 -131 -64.5 -224t-170.5 -140
t-228 -47t-228.5 47zM718.5 825.5q59.5 30.5 92.5 85.5t33 125q0 74 -32.5 131.5t-91.5 89t-137 31.5q-71 0 -131 -29t-96 -84t-36 -129q0 -75 33 -132t93 -88t138 -31q75 0 134.5 30.5zM750 139.5q77 34.5 122.5 102.5t45.5 165q0 90 -43 157.5t-119.5 104.5t-175.5 37
t-176.5 -37t-120.5 -104.5t-43 -157.5q0 -97 46.5 -165t124 -102.5t169.5 -34.5q93 0 170 34.5z" />
    <glyph glyph-name="nine" unicode="9" horiz-adv-x="1160" 
d="M815.5 1348.5q108.5 -60.5 172 -165.5t63.5 -232t-73 -249l-419 -702h-143l332 546q-89 -50 -184 -50q-124 0 -228.5 60.5t-165 164.5t-60.5 228q0 128 63 233t171 166t235 61q128 0 236.5 -60.5zM751 653.5q79 44.5 125.5 122t46.5 173.5q0 95 -46 172.5t-125 122
t-173 44.5q-93 0 -171.5 -44.5t-124.5 -122.5t-46 -173t46 -172.5t124.5 -122t171.5 -44.5t172 44.5z" />
    <glyph glyph-name="zero.lf" horiz-adv-x="1182" 
d="M270.5 190q-96.5 204 -96.5 510q0 304 95 507.5t339 203.5q237 0 338 -201t101 -513t-100 -511.5t-332 -199.5q-248 0 -344.5 204zM845 265q74 158 74 429q0 277 -75.5 436t-235.5 159q-306 0 -306 -593q0 -265 71.5 -427t241.5 -162q156 0 230 158z" />
    <glyph glyph-name="one.lf" horiz-adv-x="790" 
d="M478 1394h125v-1394h-125v1063h-367v106h255q57 0 84.5 24t27.5 80v121z" />
    <glyph glyph-name="two.lf" horiz-adv-x="1197" 
d="M1079 118v-118h-913v120q227 166 373.5 290t252 274.5t105.5 305.5q0 138 -77 216t-213 78q-148 0 -229.5 -90.5t-84.5 -259.5l-124 9q0 140 54 244.5t154 161.5t233 57q124 0 217.5 -51t144 -144.5t50.5 -217.5q0 -168 -94.5 -319t-228 -270.5t-350.5 -285.5h730z" />
    <glyph glyph-name="three.lf" horiz-adv-x="1210" 
d="M363 39q-110 53 -170 150t-60 225l125 7q0 -96 44.5 -167t127 -109t193.5 -38q107 0 187 36.5t123.5 103.5t43.5 156q0 153 -122 216.5t-319 64.5v101q154 -1 260 57.5t106 197.5q0 72 -36.5 128t-101.5 87.5t-148 31.5q-88 0 -155 -33t-103.5 -94t-36.5 -141l-125 7
q0 112 54 198.5t150.5 135t219.5 48.5q117 0 210 -46t145 -127t52 -183q0 -131 -78 -204t-191 -100q145 -24 245 -109t100 -237q0 -123 -61 -217.5t-171 -146.5t-252 -52q-146 0 -256 53z" />
    <glyph glyph-name="four.lf" horiz-adv-x="1258" 
d="M951 1394v-943h212v-117h-212v-334h-126v334h-689v118l680 942h135zM825 1232l-558 -781h558v781z" />
    <glyph glyph-name="five.lf" horiz-adv-x="1198" 
d="M872.5 869q102.5 -61 160 -166.5t57.5 -232.5q0 -131 -62.5 -242t-172 -177t-244.5 -66q-118 0 -217.5 50.5t-165.5 141t-88 206.5l123 22q16 -86 62.5 -153.5t119.5 -106.5t164 -39q103 0 182.5 49.5t123 133t43.5 181.5q0 96 -40.5 174t-115.5 122.5t-175 44.5
q-98 0 -178 -45t-135 -126l-130 37l126 717h714v-117h-610l-84 -478q69 67 148 99t164 32q128 0 230.5 -61z" />
    <glyph glyph-name="six.lf" horiz-adv-x="1180" 
d="M827.5 837.5q104.5 -60.5 165 -164.5t60.5 -228q0 -128 -63 -233t-171 -166t-235 -61q-128 0 -236.5 60.5t-172 165.5t-63.5 232t73 249l419 702h143l-332 -546q89 50 184 50q124 0 228.5 -60.5zM755.5 150.5q78.5 44.5 124.5 122.5t46 173t-46 172.5t-124.5 122
t-171.5 44.5t-172 -44.5t-125.5 -122t-46.5 -173.5q0 -95 46 -172.5t125 -122t173 -44.5q93 0 171.5 44.5z" />
    <glyph glyph-name="seven.lf" horiz-adv-x="1196" 
d="M117 1277v117h996v-103l-685 -1291h-140l680 1277h-851z" />
    <glyph glyph-name="eight.lf" horiz-adv-x="1186" 
d="M383.5 32q-106.5 47 -172 140t-65.5 224t71 227t196 135q-87 35 -137 112.5t-50 183.5q0 108 55 188.5t144.5 123.5t189.5 43q108 0 196 -45.5t139 -128.5t51 -191q0 -101 -50.5 -176.5t-138.5 -109.5q124 -40 193.5 -136t69.5 -226q0 -131 -64.5 -224t-170.5 -140
t-228 -47t-228.5 47zM750.5 825.5q59.5 30.5 92.5 85.5t33 125q0 74 -32.5 131.5t-91.5 89t-137 31.5q-71 0 -131 -29t-96 -84t-36 -129q0 -75 33 -132t93 -88t138 -31q75 0 134.5 30.5zM782 139.5q77 34.5 122.5 102.5t45.5 165q0 90 -43 157.5t-119.5 104.5t-175.5 37
t-176.5 -37t-120.5 -104.5t-43 -157.5q0 -97 46.5 -165t124 -102.5t169.5 -34.5q93 0 170 34.5z" />
    <glyph glyph-name="nine.lf" horiz-adv-x="1180" 
d="M844.5 1348.5q108.5 -60.5 172 -165.5t63.5 -232t-73 -249l-419 -702h-143l332 546q-89 -50 -184 -50q-124 0 -228.5 60.5t-165 164.5t-60.5 228q0 128 63 233t171 166t235 61q128 0 236.5 -60.5zM780 653.5q79 44.5 125.5 122t46.5 173.5q0 95 -46 172.5t-125 122
t-173 44.5q-93 0 -171.5 -44.5t-124.5 -122.5t-46 -173t46 -172.5t124.5 -122t171.5 -44.5t172 44.5z" />
    <glyph glyph-name="uni00B9" unicode="&#xb9;" horiz-adv-x="948" 
d="M480 1804h69v-828h-72v636h-208v58h142q35 0 52 15t17 47v72z" />
    <glyph glyph-name="uni00B2" unicode="&#xb2;" horiz-adv-x="835" 
d="M121 1043q139 88 236 160.5t169 168t72 199.5q0 81 -45 128t-129 47q-93 0 -142 -60t-50 -159l-71 4q0 81 31 145t90.5 100t141.5 36q74 0 129.5 -29t86.5 -83.5t31 -129.5q0 -267 -441 -526l-16 -1h502v-67h-595v67z" />
    <glyph glyph-name="uni00B3" unicode="&#xb3;" horiz-adv-x="766" 
d="M225.5 994q-65.5 30 -102.5 87t-37 136l69 5q0 -89 60.5 -140t159.5 -51q61 0 110.5 21.5t78 62.5t28.5 98q0 97 -77 134t-182 36v51q96 0 155.5 35.5t59.5 113.5q0 48 -23.5 83.5t-63 54.5t-87.5 19q-80 0 -130 -44.5t-51 -117.5l-69 4q0 68 32.5 119.5t88.5 79
t126 27.5q68 0 124.5 -26.5t89.5 -74.5t33 -110q0 -73 -43.5 -117t-110.5 -64q84 -16 141 -69t57 -140q0 -74 -38 -129.5t-103.5 -84.5t-146.5 -29q-83 0 -148.5 30z" />
    <glyph glyph-name="uni2074" unicode="&#x2074;" horiz-adv-x="681" 
d="M519 1804v-561h137v-75h-137v-200h-81v200h-410v76l406 560h85zM438 1699l-327 -456h327v456z" />
    <glyph glyph-name="fraction" unicode="&#x2044;" horiz-adv-x="281" 
d="M-204 0h-92l781 1394h92z" />
    <glyph glyph-name="onehalf" unicode="&#xbd;" horiz-adv-x="1617" 
d="M289 0l781 1394h77l-781 -1394h-77zM322 560v636h-208v58h142q35 0 52 15t17 47v72h69v-828h-72zM986 67h502v-67h-595v67q139 88 236 160.5t169 168t72 199.5q0 81 -45 128t-129 47q-93 0 -142 -60t-50 -159l-71 4q0 81 31 145t90.5 100t141.5 36q74 0 129.5 -29
t86.5 -83.5t31 -129.5q0 -267 -441 -526z" />
    <glyph glyph-name="onequarter" unicode="&#xbc;" horiz-adv-x="1601" 
d="M289 0l781 1394h77l-781 -1394h-77zM322 560v636h-208v58h142q35 0 52 15t17 47v72h69v-828h-72zM1352 828v-559h135v-67h-135v-202h-72v202h-416v45l422 581h66zM1280 721l-323 -452h323v452z" />
    <glyph glyph-name="threequarters" unicode="&#xbe;" horiz-adv-x="1868" 
d="M667 665.5q-38 -55.5 -103.5 -84.5t-146.5 -29q-83 0 -148.5 30t-102.5 87t-37 136l69 5q0 -89 60.5 -140t159.5 -51q61 0 110.5 21.5t78 62.5t28.5 98q0 97 -77 134t-182 36v51q96 0 155.5 35.5t59.5 113.5q0 48 -23.5 83.5t-63 54.5t-87.5 19q-80 0 -130 -44.5
t-51 -117.5l-69 4q0 68 32.5 119.5t88.5 79t126 27.5q68 0 124.5 -26.5t89.5 -74.5t33 -110q0 -73 -43.5 -117t-110.5 -64q84 -16 141 -69t57 -140q0 -74 -38 -129.5zM557 0l780 1394h77l-780 -1394h-77zM1620 828v-559h135v-67h-135v-202h-72v202h-417v45l422 581h67z
M1548 722l-323 -453h323v453z" />
    <glyph glyph-name="period" unicode="." horiz-adv-x="500" 
d="M344 0h-190v215h190v-215z" />
    <glyph glyph-name="comma" unicode="," horiz-adv-x="500" 
d="M170 -311h-87l213 593h140z" />
    <glyph glyph-name="colon" unicode=":" horiz-adv-x="500" 
d="M346 725h-192v217h192v-217zM346 0h-192v215h192v-215z" />
    <glyph glyph-name="semicolon" unicode=";" horiz-adv-x="500" 
d="M397 725h-192v217h192v-217zM137 -311h-89l214 569h140z" />
    <glyph glyph-name="ellipsis" unicode="&#x2026;" horiz-adv-x="1341" 
d="M373 0h-191v215h191v-215zM766 0h-191v215h191v-215zM1159 0h-191v215h191v-215z" />
    <glyph glyph-name="exclam" unicode="!" horiz-adv-x="391" 
d="M246 392h-100l-12 1002h125zM264 0h-137v215h137v-215z" />
    <glyph glyph-name="exclamdown" unicode="&#xa1;" horiz-adv-x="391" 
d="M127 986h137v-215h-137v215zM145 594h100l12 -1002h-125z" />
    <glyph glyph-name="question" unicode="?" horiz-adv-x="885" 
d="M384 522q0 74 25.5 125.5t62 85t97.5 74.5q57 39 90 68.5t55.5 73.5t22.5 105q0 120 -78 184t-221 64q-140 0 -220 -74.5t-80 -204.5h-112q0 118 52 205.5t145.5 134t216.5 46.5q122 0 213.5 -40t142.5 -120.5t51 -197.5q0 -86 -28 -145t-67.5 -95t-104.5 -79
q-53 -36 -84 -62t-51.5 -64.5t-20.5 -91.5v-126h-107v134zM507 0h-136v215h136v-215z" />
    <glyph glyph-name="questiondown" unicode="&#xbf;" horiz-adv-x="942" 
d="M444 986h136v-215h-136v215zM567 464q0 -74 -25.5 -125.5t-62 -85t-97.5 -74.5q-57 -39 -90 -68.5t-55.5 -73.5t-22.5 -105q0 -120 78 -184t221 -64q140 0 220 74.5t80 204.5h112q0 -118 -52 -205.5t-145.5 -134t-216.5 -46.5q-122 0 -213.5 40t-142.5 120.5t-51 197.5
q0 86 28 145t67.5 95t104.5 79q53 36 84 62t51.5 64.5t20.5 91.5v126h107v-134z" />
    <glyph glyph-name="periodcentered" unicode="&#xb7;" horiz-adv-x="500" 
d="M320 590h-180v215h180v-215z" />
    <glyph glyph-name="bullet" unicode="&#x2022;" horiz-adv-x="673" 
d="M540 290h-407v408h407v-408z" />
    <glyph glyph-name="asterisk" unicode="*" horiz-adv-x="696" 
d="M347 1036l-154 -231l-61 46l173 216l-266 75l24 75l258 -99l-12 276h77l-12 -276l259 99l23 -75l-266 -75l174 -216l-62 -46z" />
    <glyph glyph-name="numbersign" unicode="#" horiz-adv-x="1225" 
d="M285 0h-101l89 424h-247v92h266l80 388h-262v96h282l86 394h102l-85 -398h353l84 398h103l-87 -398h251v-92h-270l-82 -388h268v-92h-287l-89 -424h-102l90 424h-355zM473 904l-79 -388h354l78 388h-353z" />
    <glyph glyph-name="slash" unicode="/" horiz-adv-x="761" 
d="M75 -420h-99l709 1814h100z" />
    <glyph glyph-name="backslash" unicode="\" horiz-adv-x="761" 
d="M33 1394l709 -1814h-99l-710 1814h100z" />
    <glyph glyph-name="uni2023" unicode="&#x2023;" horiz-adv-x="682" 
d="M650 498l-516 -297v592z" />
    <glyph glyph-name="twodotenleader" unicode="&#x2025;" horiz-adv-x="924" 
d="M371 0h-189v215h189v-215zM742 0h-189v215h189v-215z" />
    <glyph glyph-name="period.ss03" horiz-adv-x="500" 
d="M188.5 11q-25.5 26 -25.5 64q0 37 25.5 63t62.5 26q38 0 63.5 -25.5t25.5 -63.5t-26 -64t-63 -26t-62.5 26z" />
    <glyph glyph-name="colon.ss03" horiz-adv-x="500" 
d="M187 761q-26 26 -26 63q0 38 26 63.5t63 25.5q38 0 63.5 -25.5t25.5 -63.5q0 -37 -25.5 -63t-63.5 -26q-37 0 -63 26zM187 11.5q-26 26.5 -26 63.5q0 38 26 63.5t63 25.5q38 0 63.5 -25.5t25.5 -63.5t-26 -64t-63 -26t-63 26.5z" />
    <glyph glyph-name="semicolon.ss03" horiz-adv-x="500" 
d="M252 761q-26 26 -26 63q0 38 26 63.5t63 25.5q38 0 63.5 -25.5t25.5 -63.5q0 -37 -25.5 -63t-63.5 -26q-37 0 -63 26zM136 -311h-88l213 569h141z" />
    <glyph glyph-name="ellipsis.ss03" horiz-adv-x="1264" 
d="M188.5 11q-25.5 26 -25.5 64q0 37 25.5 62.5t62.5 25.5t62.5 -25.5t25.5 -62.5q0 -38 -25.5 -64t-62.5 -26t-62.5 26zM570.5 11q-25.5 26 -25.5 64q0 37 25.5 62.5t62.5 25.5t62.5 -25.5t25.5 -62.5q0 -38 -25.5 -64t-62.5 -26t-62.5 26zM952.5 11q-25.5 26 -25.5 64
q0 37 25.5 62.5t62.5 25.5t63 -25.5t26 -62.5q0 -38 -26 -64t-63 -26t-62.5 26z" />
    <glyph glyph-name="exclam.ss03" horiz-adv-x="385" 
d="M242 392h-100l-12 1002h125zM128.5 11.5q-25.5 26.5 -25.5 64.5t25.5 63.5t62.5 25.5q38 0 63.5 -25.5t25.5 -63.5t-25.5 -64.5t-63.5 -26.5q-37 0 -62.5 26.5z" />
    <glyph glyph-name="exclamdown.ss03" horiz-adv-x="385" 
d="M131 848q-26 26 -26 63q0 38 26 64t63 26t62.5 -26t25.5 -64q0 -37 -25.5 -63t-62.5 -26t-63 26zM255 -408h-125l13 1002h100z" />
    <glyph glyph-name="question.ss03" horiz-adv-x="884" 
d="M384 522q0 74 25.5 125.5t62 85t97.5 74.5q57 39 90 68.5t55.5 73.5t22.5 105q0 120 -78 184t-221 64q-140 0 -220 -74.5t-80 -204.5h-112q0 118 52 205.5t145.5 134t216.5 46.5q122 0 213.5 -40t142.5 -120.5t51 -197.5q0 -86 -28 -145t-67.5 -95t-104.5 -79
q-53 -36 -84 -62t-51.5 -64.5t-20.5 -91.5v-126h-107v134zM377 11.5q-26 26.5 -26 63.5q0 38 26 63.5t63 25.5q38 0 63.5 -25.5t25.5 -63.5t-26 -64t-63 -26t-63 26.5z" />
    <glyph glyph-name="questiondown.ss03" horiz-adv-x="884" 
d="M381 848q-26 26 -26 63q0 38 26 64t63 26t63 -26.5t26 -63.5t-25.5 -63t-63.5 -26q-37 0 -63 26zM230.5 -383q-91.5 40 -142.5 120.5t-51 197.5q0 86 28 145t67.5 95t104.5 79q53 36 84 62t51.5 64.5t20.5 91.5v126h108v-134q0 -74 -25.5 -125.5t-62 -85t-97.5 -74.5
q-57 -39 -90 -68.5t-55.5 -73.5t-22.5 -105q0 -120 77.5 -184t220.5 -64q141 0 220.5 74t79.5 205h113q-1 -118 -53 -205.5t-145.5 -134t-216.5 -46.5q-122 0 -213.5 40z" />
    <glyph glyph-name="periodcentered.ss03" horiz-adv-x="365" 
d="M148.5 640q-25.5 26 -25.5 64q0 37 25.5 63t62.5 26q38 0 63.5 -25.5t25.5 -63.5t-26 -64t-63 -26t-62.5 26z" />
    <glyph glyph-name="bullet.ss03" horiz-adv-x="625" 
d="M195 271.5q-54 31.5 -85.5 85.5t-31.5 117t31.5 117.5t85.5 86.5t117 32t117 -32t86 -86t32 -118q0 -63 -31.5 -116.5t-85.5 -85.5t-118 -32q-63 0 -117 31.5z" />
    <glyph glyph-name="twodotenleader.ss03" horiz-adv-x="884" 
d="M188.5 11q-25.5 26 -25.5 64q0 37 25.5 63t62.5 26q38 0 63.5 -25.5t25.5 -63.5t-25.5 -64t-63.5 -26q-37 0 -62.5 26zM572 11q-26 26 -26 64t25.5 63.5t63.5 25.5t63.5 -25.5t25.5 -63.5t-26 -64t-63 -26t-63 26z" />
    <glyph glyph-name="parenleft" unicode="(" horiz-adv-x="526" 
d="M345 -408q-73 107 -125.5 261t-79.5 321.5t-27 316.5q0 241 58.5 484t174.5 419h118q-123 -178 -186.5 -421.5t-63.5 -480.5q0 -149 29.5 -317t86 -322.5t133.5 -260.5h-118z" />
    <glyph glyph-name="parenright" unicode=")" horiz-adv-x="526" 
d="M63 -408q77 106 133.5 260.5t86 322.5t29.5 317q0 237 -63.5 480.5t-186.5 421.5h118q116 -176 174.5 -419t58.5 -484q0 -149 -27 -316.5t-79.5 -321.5t-125.5 -261h-118z" />
    <glyph glyph-name="braceleft" unicode="{" horiz-adv-x="525" 
d="M383 -492q-106 0 -160 61.5t-54 180.5v537q0 75 -31.5 111t-86.5 44v102q56 9 87 44.5t31 110.5v537q0 119 54 180.5t160 61.5h103v-84h-64q-76 0 -110 -40.5t-34 -120.5v-536q0 -82 -30.5 -128t-92.5 -70v-12q63 -24 93 -69.5t30 -127.5v-537q0 -80 34 -120.5t110 -40.5
h64v-84h-103z" />
    <glyph glyph-name="braceright" unicode="}" horiz-adv-x="525" 
d="M39 -492v84h64q76 0 110 40.5t34 120.5v537q0 82 30 127.5t93 69.5v12q-62 24 -92.5 70t-30.5 128v536q0 80 -34 120.5t-110 40.5h-64v84h103q106 0 160 -61.5t54 -180.5v-537q0 -75 31 -110.5t87 -44.5v-102q-55 -8 -86.5 -44t-31.5 -111v-537q0 -119 -54 -180.5
t-160 -61.5h-103z" />
    <glyph glyph-name="bracketleft" unicode="[" horiz-adv-x="535" 
d="M512 -493h-366v1972h366v-87h-262v-1798h262v-87z" />
    <glyph glyph-name="bracketright" unicode="]" horiz-adv-x="535" 
d="M389 1479v-1972h-366v87h262v1798h-262v87h366z" />
    <glyph glyph-name="hyphen" unicode="-" horiz-adv-x="702" 
d="M617 567h-531v96h531v-96z" />
    <glyph glyph-name="uni00AD" unicode="&#xad;" horiz-adv-x="843" 
d="M757 567h-671v96h671v-96z" />
    <glyph glyph-name="endash" unicode="&#x2013;" horiz-adv-x="703" 
d="M707 567h-711v96h711v-96z" />
    <glyph glyph-name="emdash" unicode="&#x2014;" horiz-adv-x="2012" 
d="M2016 567h-2020v96h2020v-96z" />
    <glyph glyph-name="uni2015" unicode="&#x2015;" horiz-adv-x="1369" 
d="M1283 567h-1197v96h1197v-96z" />
    <glyph glyph-name="underscore" unicode="_" horiz-adv-x="963" 
d="M878 -98h-793v98h793v-98z" />
    <glyph glyph-name="quotesinglbase" unicode="&#x201a;" horiz-adv-x="500" 
d="M171 -311h-87l208 569h145z" />
    <glyph glyph-name="quotedblbase" unicode="&#x201e;" horiz-adv-x="749" 
d="M124 -311h-87l208 569h145zM465 -311h-88l208 569h145z" />
    <glyph glyph-name="quotedblleft" unicode="&#x201c;" horiz-adv-x="742" 
d="M165 824h-145l265 570h88zM495 824h-145l265 570h89z" />
    <glyph glyph-name="quotedblright" unicode="&#x201d;" horiz-adv-x="740" 
d="M124 825h-87l208 569h145zM456 825h-88l208 569h144z" />
    <glyph glyph-name="quoteleft" unicode="&#x2018;" horiz-adv-x="410" 
d="M165 824h-145l265 570h88z" />
    <glyph glyph-name="quoteright" unicode="&#x2019;" horiz-adv-x="410" 
d="M124 825h-87l208 569h145z" />
    <glyph glyph-name="guillemotleft" unicode="&#xab;" horiz-adv-x="894" 
d="M430 274v-136l-427 367l427 365v-136l-277 -229zM837 274v-136l-427 367l427 365v-136l-275 -229z" />
    <glyph glyph-name="guillemotright" unicode="&#xbb;" horiz-adv-x="895" 
d="M471 505l-427 -367v136l275 231l-275 229v136zM878 505l-427 -367v136l277 231l-277 229v136z" />
    <glyph glyph-name="guilsinglleft" unicode="&#x2039;" horiz-adv-x="487" 
d="M430 274v-136l-427 367l427 365v-136l-275 -229z" />
    <glyph glyph-name="guilsinglright" unicode="&#x203a;" horiz-adv-x="488" 
d="M483 505l-427 -367v136l275 231l-275 229v136z" />
    <glyph glyph-name="quotedbl" unicode="&#x22;" horiz-adv-x="650" 
d="M222 830h-108v564h108v-564zM536 830h-108v564h108v-564z" />
    <glyph glyph-name="quotesingle" unicode="'" horiz-adv-x="336" 
d="M222 830h-108v564h108v-564z" />
    <glyph glyph-name="anoteleia" unicode="&#x387;" horiz-adv-x="673" 
d="M540 290h-407v408h407v-408z" />
    <glyph glyph-name="uni037E" unicode="&#x37e;" horiz-adv-x="500" 
d="M397 725h-192v217h192v-217zM137 -311h-89l214 569h140z" />
    <glyph glyph-name="uni037E.ss03" horiz-adv-x="500" 
d="M253 761q-26 26 -26 63q0 38 26 63.5t63 25.5q38 0 63.5 -25.5t25.5 -63.5q0 -37 -25.5 -63t-63.5 -26q-37 0 -63 26zM137 -311h-88l213 569h141z" />
    <glyph glyph-name="uni00A0" unicode="&#xa0;" horiz-adv-x="524" 
 />
    <glyph glyph-name="uni20B3" unicode="&#x20b3;" horiz-adv-x="1160" 
d="M959 422h172v-87h-144l112 -335h-145l-103 335h-540l-104 -335h-144l111 335h-145l3 87h171l74 223h-246v88h275l220 661h109l220 -661h275v-88h-246zM729 733l-147 478l-148 -478h295zM407 645l-69 -223h486l-68 223h-349z" />
    <glyph glyph-name="cent" unicode="&#xa2;" horiz-adv-x="1160" 
d="M788.5 149q70.5 53 103.5 149l112 -44q-44 -120 -134 -188.5t-213 -78.5v-213h-96v214q-120 14 -207.5 83.5t-133.5 179.5t-46 243q0 132 46 242t133.5 179t207.5 83v204h96v-203q124 -10 213.5 -78t133.5 -189l-112 -44q-33 96 -103.5 149t-172.5 53q-103 0 -174.5 -54
t-106.5 -144t-35 -198q0 -109 35 -199.5t106.5 -144.5t174.5 -54q102 0 172.5 53z" />
    <glyph glyph-name="currency" unicode="&#xa4;" horiz-adv-x="1160" 
d="M174 147l-68 72l126 125q-50 60 -75.5 133t-25.5 148q0 77 25.5 150t75.5 132l-125 123l69 73l125 -128q61 52 134 78t150 26q76 0 148 -26t131 -76l126 125l71 -70l-127 -124q50 -60 76 -133t26 -150q0 -76 -26 -148.5t-76 -133.5l127 -124l-70 -72l-127 128
q-59 -50 -131.5 -76t-149.5 -26t-149 26t-134 76zM759.5 318.5q81.5 48.5 130 130.5t48.5 177t-48 176.5t-130 129.5t-177 48q-96 0 -178 -48t-130 -130t-48 -178q0 -97 48.5 -178t130 -128.5t176.5 -47.5q96 0 177.5 48.5z" />
    <glyph glyph-name="dollar" unicode="$" horiz-adv-x="1160" 
d="M993.5 187q-48.5 -86 -136 -139t-200.5 -64v-213h-97v212q-122 8 -216.5 57t-154 133.5t-77.5 196.5l127 31q25 -144 121.5 -223t247.5 -79q86 0 155.5 34.5t109.5 96.5t40 141q0 81 -43 135.5t-110.5 89.5t-186.5 80q-124 48 -205 97t-127.5 119.5t-46.5 169.5
q0 94 44.5 170.5t125.5 124t187 55.5v204h97v-205q109 -10 193.5 -67.5t138.5 -158.5l-103 -64q-102 176 -285 176q-78 0 -139 -30.5t-94.5 -83.5t-33.5 -119q0 -71 38 -120t103.5 -83.5t178.5 -76.5q129 -49 212.5 -98.5t134 -124t50.5 -182.5q0 -106 -48.5 -192z" />
    <glyph glyph-name="dong" unicode="&#x20ab;" horiz-adv-x="1160" 
d="M892 1309h111v-70h-111v-929h-95l-11 181q-32 -89 -105 -141.5t-171 -52.5q-105 0 -186.5 53.5t-126 146.5t-44.5 208q0 118 46.5 210t128 143t182.5 51q89 0 159 -39t113 -113v282h-212v70h212v115h110v-115zM665 439q60 39 94 108.5t34 157.5q0 86 -34 155t-94.5 108
t-136.5 39t-136 -39t-94.5 -107.5t-34.5 -155.5q0 -88 34 -157.5t94.5 -108.5t136.5 -39q77 0 137 39zM1003 0h-835v78h835v-78z" />
    <glyph glyph-name="Euro" unicode="&#x20ac;" horiz-adv-x="1160" 
d="M1146 119q-77 -67 -175.5 -100.5t-223.5 -33.5q-166 0 -288 65.5t-196.5 183.5t-102.5 278h-130v88h118q-5 62 -5 114q0 51 5 109h-116v87h130q30 151 107.5 263t201 174t286.5 62q234 0 378 -115l-71 -102q-117 98 -307 98q-188 0 -304.5 -102t-157.5 -278h630l-2 -87
h-644q-6 -54 -6 -111q0 -52 5 -112h647l-4 -88h-630q37 -192 151.5 -300t304.5 -108q203 0 328 117z" />
    <glyph glyph-name="florin" unicode="&#x192;" horiz-adv-x="938" 
d="M90 -351q105 0 168 29t92 93.5t29 171.5v947h-169v96h169v128q0 90 30 158.5t87 106t135 37.5q65 0 123 -22.5t100 -63.5l-70 -82q-31 29 -67.5 44.5t-73.5 15.5q-74 0 -114.5 -53t-40.5 -148v-121h269v-96h-269v-956q0 -196 -100 -289.5t-298 -93.5v98z" />
    <glyph glyph-name="uni20B4" unicode="&#x20b4;" horiz-adv-x="1160" 
d="M1075 886v-86h-1006v86h688q50 35 75.5 77.5t25.5 99.5q0 66 -34 119.5t-92.5 84t-131.5 30.5q-99 0 -169.5 -42.5t-124.5 -133.5l-104 64q63 116 161 172.5t233 56.5q113 0 202.5 -45.5t139.5 -126.5t50 -182q0 -99 -73 -174h160zM69 544v83h1006v-83h-736
q-62 -73 -62 -167q0 -82 40.5 -145t112.5 -98t162 -35q135 0 227 70.5t121 197.5l122 -50q-27 -103 -92 -178.5t-160.5 -116t-213.5 -40.5q-130 0 -232 51t-159 141.5t-57 205.5q0 94 45 164h-124z" />
    <glyph glyph-name="uni20B1" unicode="&#x20b1;" horiz-adv-x="1160" 
d="M1133 1055v-97h-110q-10 -107 -65.5 -185t-155 -120t-235.5 -42h-261v-611h-129v958h-133v97h133v339h390q209 0 324 -89.5t131 -249.5h111zM566 734q163 0 246 68t83 200q0 131 -84 200t-245 69h-260v-537h260z" />
    <glyph glyph-name="uni20BD" unicode="&#x20bd;" horiz-adv-x="1160" 
d="M249 0v310h-180v107h180v204h-180v113h180v660h385q144 0 248 -47t159.5 -136t55.5 -211q0 -185 -121.5 -282t-341.5 -97h-255v-204h319v-107h-319v-310h-130zM634 734q153 0 243.5 66.5t90.5 201.5q0 134 -92 201.5t-242 67.5h-255v-537h255z" />
    <glyph glyph-name="sterling" unicode="&#xa3;" horiz-adv-x="1160" 
d="M460 265.5q-38 -65.5 -94.5 -104t-118.5 -54.5h789v-107h-915v126q78 21 139.5 65.5t97 105t35.5 125.5q0 43 -12.5 84.5t-37.5 106.5l-23 58h-192v107h168q-39 129 -39 223q0 116 49.5 209t140 146t208.5 53q144 0 247.5 -77.5t144.5 -214.5l-100 -38q-32 107 -110 165
t-180 58q-86 0 -152.5 -38.5t-103.5 -107.5t-37 -157q0 -56 12 -114t31 -107h424v-107h-404q12 -32 19 -48q26 -63 39 -108t13 -94q0 -90 -38 -155.5z" />
    <glyph glyph-name="uni20B8" unicode="&#x20b8;" horiz-adv-x="1160" 
d="M1074 1285h-987v108h987v-108zM646 0h-130v975h-429v109h987v-109h-428v-975z" />
    <glyph glyph-name="yen" unicode="&#xa5;" horiz-adv-x="1160" 
d="M650 0h-131v221h-362v104h362v199h-362v104h307l-434 766h142l410 -737l414 737h141l-433 -766h305v-104h-359v-199h359v-104h-359v-221z" />
    <glyph glyph-name="uni2215" unicode="&#x2215;" horiz-adv-x="703" 
d="M128 0h-99l545 1394h99z" />
    <glyph glyph-name="plus" unicode="+" horiz-adv-x="1160" 
d="M651 101h-97v455h-455v96h455v456h97v-456h455v-96h-455v-455z" />
    <glyph glyph-name="minus" unicode="&#x2212;" horiz-adv-x="1160" 
d="M953 557h-701v96h701v-96z" />
    <glyph glyph-name="multiply" unicode="&#xd7;" horiz-adv-x="1160" 
d="M607 550l-319 -318l-74 73l319 320l-320 321l74 75l320 -322l320 321l75 -75l-320 -320l320 -320l-75 -73z" />
    <glyph glyph-name="divide" unicode="&#xf7;" horiz-adv-x="1160" 
d="M666 862h-135v214h135v-214zM1017 557h-837v96h837v-96zM666 132h-135v216h135v-216z" />
    <glyph glyph-name="equal" unicode="=" horiz-adv-x="1160" 
d="M955 750h-773v96h773v-96zM955 365h-773v96h773v-96z" />
    <glyph glyph-name="notequal" unicode="&#x2260;" horiz-adv-x="1160" 
d="M1034 856v-96h-288l-177 -289h465v-96h-523l-229 -375h-92l229 375h-247v96h305l177 289h-482v96h540l213 349h92l-213 -349h230z" />
    <glyph glyph-name="greater" unicode="&#x3e;" horiz-adv-x="1310" 
d="M1187 614l-973 -554l-46 83l824 471l-824 470l46 84z" />
    <glyph glyph-name="less" unicode="&#x3c;" horiz-adv-x="1310" 
d="M1142 143l-46 -83l-973 554l973 554l46 -84l-824 -470z" />
    <glyph glyph-name="greaterequal" unicode="&#x2265;" horiz-adv-x="1299" 
d="M227 208l-42 84l746 392l-752 399l44 84l904 -480zM147 0v97h991v-97h-991z" />
    <glyph glyph-name="lessequal" unicode="&#x2264;" horiz-adv-x="1245" 
d="M300 684l745 -392l-41 -84l-901 479l904 480l44 -84zM93 0v97h991v-97h-991z" />
    <glyph glyph-name="plusminus" unicode="&#xb1;" horiz-adv-x="1401" 
d="M726 219h-96v419h-471v98h471v415h96v-415h470v-98h-470v-419zM1185 -1h-1026v97h1026v-97z" />
    <glyph glyph-name="approxequal" unicode="&#x2248;" horiz-adv-x="1160" 
d="M696 723q-37 19 -61.5 47t-54.5 72q-25 37 -44 59t-44.5 36.5t-58.5 14.5q-61 0 -95.5 -54.5t-34.5 -147.5h-98q0 87 28 152t80 100.5t120 35.5q55 0 94.5 -20t64.5 -48t56 -73q25 -37 42.5 -57t41 -34t53.5 -14q61 0 98 61.5t37 161.5h98q0 -92 -28.5 -162.5
t-81.5 -109.5t-123 -39q-52 0 -89 19zM696 289q-37 19 -61.5 46.5t-54.5 71.5q-26 37 -44.5 58.5t-44 36t-58.5 14.5q-61 0 -95.5 -53.5t-34.5 -147.5h-98q0 87 28 152.5t79.5 101t120.5 35.5q55 0 94.5 -20t64.5 -48t56 -73q25 -37 42.5 -57t41 -34t53.5 -14q61 0 98 61.5
t37 161.5h98q0 -92 -28.5 -162.5t-81.5 -109.5t-123 -39q-52 0 -89 19z" />
    <glyph glyph-name="asciitilde" unicode="~" horiz-adv-x="1160" 
d="M673.5 389q-37.5 19 -62 46.5t-54.5 71.5q-26 38 -44 59t-43.5 35.5t-58.5 14.5q-61 0 -95.5 -53.5t-34.5 -146.5h-98q0 86 28 151.5t79.5 101.5t120.5 36q55 0 94.5 -20t64.5 -48.5t56 -74.5q25 -37 42.5 -57t41 -34t53.5 -14q40 0 70.5 28t47.5 79t17 116h97
q0 -92 -28.5 -162t-81 -109t-122.5 -39q-52 0 -89.5 19z" />
    <glyph glyph-name="logicalnot" unicode="&#xac;" horiz-adv-x="1160" 
d="M948 172h-97v395h-721v96h818v-491z" />
    <glyph glyph-name="asciicircum" unicode="^" horiz-adv-x="1070" 
d="M219 452h-135l450 990l452 -990h-134l-318 745z" />
    <glyph glyph-name="infinity" unicode="&#x221e;" horiz-adv-x="1892" 
d="M309 400q-86 48 -133.5 132.5t-47.5 188.5t47.5 187.5t133.5 131.5t195 48q119 0 232.5 -75.5t204.5 -204.5q100 131 214.5 205.5t232.5 74.5q109 0 195 -48t134 -132t48 -187q0 -104 -48 -188t-134 -132.5t-195 -48.5q-119 0 -233 75t-214 205q-92 -129 -205 -204.5
t-232 -75.5q-109 0 -195 48zM707 523.5q95 67.5 175 197.5q-80 129 -175.5 196t-188.5 67q-79 0 -142 -34t-99 -94t-36 -135q0 -76 36 -136.5t99 -94.5t142 -34q94 0 189 67.5zM1515.5 490q63.5 34 100 94.5t36.5 136.5q0 75 -36.5 135t-100 94t-142.5 34q-97 0 -193 -70.5
t-182 -192.5q85 -124 181.5 -194.5t193.5 -70.5q79 0 142.5 34z" />
    <glyph glyph-name="emptyset" unicode="&#x2205;" horiz-adv-x="1458" 
d="M331 222q-103 86 -162 209.5t-59 264.5q0 168 83 310t225 225t311 83q94 0 181 -27t163 -78l79 105h86l-110 -146q103 -85 161.5 -208.5t58.5 -263.5q0 -169 -83 -311t-225 -225t-311 -83q-94 0 -181.5 26.5t-161.5 76.5l-79 -103h-88zM1024 1145q-65 43 -140 65.5
t-155 22.5q-146 0 -269.5 -72t-196 -195.5t-72.5 -269.5q0 -122 50.5 -228.5t139.5 -179.5zM999.5 229.5q123.5 72.5 196 196t72.5 270.5q0 121 -50.5 227.5t-139.5 180.5l-642 -859q64 -42 139 -65t154 -23q147 0 270.5 72.5z" />
    <glyph glyph-name="integral" unicode="&#x222b;" horiz-adv-x="953" 
d="M74 -361q115 0 184.5 28t103 92t33.5 173v1185q0 84 37 152.5t101 107.5t141 39q54 0 108.5 -20.5t101.5 -59.5l-68 -82q-70 54 -142 54q-48 0 -87 -24t-61.5 -68.5t-22.5 -102.5v-1184q0 -198 -110 -298t-319 -100v108z" />
    <glyph glyph-name="uni2126" unicode="&#x2126;" horiz-adv-x="1515" 
d="M143 0v124h356l26 26q-397 217 -397 631q0 185 78 329t221 224t330 80t330 -80t222 -224t79 -329q0 -208 -100.5 -364t-296.5 -267l24 -26h357v-124h-494v166q187 105 279.5 252.5t92.5 344.5q0 160 -58.5 278.5t-169.5 183t-265 64.5t-265 -64.5t-169.5 -183.5
t-58.5 -279q0 -200 93.5 -347.5t278.5 -248.5v-166h-493z" />
    <glyph glyph-name="uni2206" unicode="&#x2206;" horiz-adv-x="1287" 
d="M1209 0h-1131l549 1394h35zM645 1175l-410 -1068h819z" />
    <glyph glyph-name="product" unicode="&#x220f;" horiz-adv-x="1180" 
d="M315 0h-108v1287h-106v107h977v-107h-105v-1287h-108v1287h-550v-1287z" />
    <glyph glyph-name="summation" unicode="&#x2211;" horiz-adv-x="1229" 
d="M96 1394h1033v-120h-845l548 -578l-549 -576h846v-120h-1033v89l565 607l-565 610v88z" />
    <glyph glyph-name="radical" unicode="&#x221a;" horiz-adv-x="1196" 
d="M1121 1394l-632 -1521l-263 679h-148v107h224l193 -511l510 1246h116z" />
    <glyph glyph-name="uni00B5" unicode="&#xb5;" horiz-adv-x="1070" 
d="M140 -345v1331h126v-597q0 -293 250 -293q138 0 205.5 101.5t67.5 275.5v513h126v-986h-126v174q-41 -91 -121 -140t-187 -49q-81 0 -135 34t-80 99v-463h-126z" />
    <glyph glyph-name="partialdiff" unicode="&#x2202;" horiz-adv-x="1232" 
d="M307 45q-97 56 -149.5 156.5t-52.5 229.5q0 168 72 299t196.5 204t278.5 73q101 0 172.5 -45.5t113 -117.5t56.5 -155q2 81 -8 144q-24 479 -353 479q-107 0 -190.5 -49.5t-122.5 -148.5l-95 32q49 124 156.5 192.5t254.5 68.5q230 0 350 -172t120 -502
q0 -205 -64.5 -374t-194 -269.5t-315.5 -100.5q-128 0 -225 56zM753 154q90 55 143.5 146t71.5 201q2 28 2 42q0 88 -32.5 170t-101 135.5t-172.5 53.5q-135 0 -235 -62.5t-152.5 -170t-52.5 -238.5q0 -101 40.5 -176t112.5 -115.5t165 -40.5q121 0 211 55z" />
    </font>
</defs>
</svg>
