<svg xmlns="http://www.w3.org/2000/svg" width="164" height="164" viewBox="0 0 164 164" fill="none">
  <path d="M80.4031 158.044H82.5871L82.9231 146.38H80.0671L80.4031 158.044ZM79.9231 163.108H83.0671V159.988H79.9231V163.108Z" fill="currentcolor"/>
  <path d="M145.552 85.7952C145.522 86.3464 145.607 86.9999 145.811 87.6599L148.112 87.7842C148.034 87.4435 148.003 87.1293 148.018 86.8657C148.046 86.3385 148.279 86.0386 148.806 86.0671L162.49 86.8063L162.646 83.9305L148.77 83.1809C146.661 83.067 145.639 84.1895 145.552 85.7952Z" fill="currentcolor"/>
  <path d="M144.384 94.7768C143.632 98.3464 145.933 101.16 149.197 101.847C152.485 102.539 155.68 100.881 156.432 97.3117C157.19 93.7187 154.931 90.938 151.643 90.2462C148.378 89.5594 145.142 91.1838 144.384 94.7768ZM146.85 95.2957C147.301 93.1586 149.17 92.669 151.049 93.0643C152.951 93.4645 154.417 94.6558 153.966 96.7929C153.516 98.9299 151.694 99.4294 149.791 99.0292C147.912 98.6339 146.4 97.4327 146.85 95.2957Z" fill="currentcolor"/>
  <path d="M151.703 112.347C152.204 111.1 151.96 109.581 150.789 108.568L152.66 109.318L153.742 106.623L142.759 102.222L141.686 104.895L147.211 107.109C149.283 107.939 149.964 109.142 149.311 110.768C149.096 111.303 148.793 111.672 148.396 111.953L150.238 114.191C150.97 113.657 151.408 113.082 151.703 112.347Z" fill="currentcolor"/>
  <path d="M138.961 122.94C141.761 124.663 145.003 124.572 146.93 121.447C148.995 118.096 147.219 115.031 144.582 113.409C141.884 111.749 138.484 111.686 136.343 115.159C135.297 116.854 135.072 118.547 135.618 120.405L138.155 119.627C137.786 118.442 138.004 117.449 138.558 116.55C139.54 114.956 140.923 114.68 142.315 115.395L138.058 122.301C138.36 122.543 138.654 122.752 138.961 122.94ZM144.269 116.569C145.183 117.329 145.818 118.677 144.898 120.169C144.105 121.456 142.724 121.958 141.411 121.207L144.269 116.569Z" fill="currentcolor"/>
  <path d="M138.246 135.987L136.091 138.109L137.962 140.005L140.117 137.884L138.246 135.987ZM128.318 126.026L126.265 128.047L134.575 136.47L136.627 134.449L128.318 126.026Z" fill="currentcolor"/>
  <path d="M125.835 144.002C126.867 143.258 127.698 142.156 127.77 140.861L128.459 141.815L130.795 140.13L120.997 126.571L118.661 128.256L122.232 133.197C121.108 132.912 119.714 133.237 118.624 134.023C116.269 135.722 115.91 138.791 118.173 141.923C120.254 144.802 123.226 145.884 125.835 144.002ZM120.684 135.644C122.358 134.437 124.006 135.202 125.215 136.875C126.452 138.587 126.617 140.332 124.924 141.553C123.366 142.676 121.887 142.145 120.523 140.258C119.174 138.39 119.127 136.768 120.684 135.644Z" fill="currentcolor"/>
  <path d="M109.654 139.285C107.639 140.245 106.011 142.349 107.199 144.84C109.06 148.739 114.195 145.123 114.971 146.748C115.208 147.246 114.885 147.905 114.04 148.308C112.869 148.865 111.954 148.451 111.265 147.955L109.777 150.019C111.271 151.088 113.093 151.284 114.935 150.407C116.993 149.427 118.35 147.478 117.368 145.42C115.477 141.456 110.542 145.269 109.684 143.471C109.415 142.908 109.604 141.967 110.818 141.389C112.248 140.708 113.276 141.414 113.93 142.06L115.566 140.138C114.271 138.761 111.908 138.212 109.654 139.285Z" fill="currentcolor"/>
  <path d="M94.0454 157.04C95.5473 156.718 96.769 155.892 97.2878 153.964C98.3748 155.597 99.8887 155.788 101.156 155.516C102.306 155.269 103.417 154.614 103.891 153.162L104.203 154.617L106.925 154.034L104.417 142.471L101.601 143.074L102.548 147.486C103.047 149.809 103.677 152.398 101.307 152.906C99.4768 153.299 98.9512 151.423 98.7546 150.508L97.3534 143.985L94.5374 144.588L95.485 149C95.984 151.323 96.6373 153.907 94.2671 154.415C92.4133 154.813 91.8877 152.937 91.6911 152.022L90.2899 145.499L87.4739 146.103L89.0565 153.471C89.5555 155.794 91.2529 157.639 94.0454 157.04Z" fill="currentcolor"/>
  <path d="M45.8511 134.262C45.3953 133.95 44.7924 133.684 44.1217 133.517L42.8206 135.418C43.1523 135.528 43.437 135.665 43.655 135.814C44.0911 136.111 44.2267 136.466 43.9286 136.901L36.1895 148.211L38.5678 149.835L46.4153 138.367C47.608 136.624 47.179 135.169 45.8511 134.262Z" fill="currentcolor"/>
  <path d="M38.8291 128.621C36.1654 126.129 32.5636 126.637 30.2819 129.071C27.9837 131.522 27.7444 135.111 30.4081 137.603C33.0893 140.112 36.6408 139.622 38.939 137.171C41.2207 134.738 41.5104 131.13 38.8291 128.621ZM37.1055 130.46C38.7003 131.952 38.1492 133.803 36.836 135.204C35.5064 136.622 33.7264 137.257 32.1317 135.765C30.537 134.273 31.0552 132.457 32.3848 131.038C33.698 129.638 35.5108 128.968 37.1055 130.46Z" fill="currentcolor"/>
  <path d="M19.9611 125.71C20.768 126.785 22.1943 127.365 23.6685 126.891L22.0552 128.1L23.7986 130.422L33.2677 123.327L31.5386 121.024L26.7753 124.593C24.989 125.931 23.606 125.888 22.5541 124.487C22.2083 124.026 22.0498 123.575 22.0161 123.091L19.1444 123.503C19.2214 124.405 19.4856 125.077 19.9611 125.71Z" fill="currentcolor"/>
  <path d="M17.52 109.388C14.5947 110.889 12.9939 113.707 14.673 116.973C16.4728 120.473 20.0169 120.543 22.7714 119.129C25.59 117.683 27.4048 114.809 25.5392 111.181C24.6283 109.409 23.2957 108.34 21.422 107.845L20.7741 110.416C21.98 110.714 22.7179 111.415 23.2008 112.354C24.0568 114.019 23.5776 115.344 22.2445 116.162L18.5352 108.948C18.1716 109.081 17.8403 109.224 17.52 109.388ZM20.227 117.225C19.1039 117.612 17.6204 117.456 16.8193 115.898C16.1279 114.554 16.4125 113.113 17.7358 112.38L20.227 117.225Z" fill="currentcolor"/>
  <path d="M6.71942 102.001L6.02809 99.0574L3.43437 99.6653L4.12571 102.609L6.71942 102.001ZM20.3959 98.722L19.7375 95.9182L8.21766 98.6181L8.87608 101.422L20.3959 98.722Z" fill="currentcolor"/>
  <path d="M6.32999 87.2688C6.42812 88.537 6.93674 89.8216 8.0047 90.5576L6.83219 90.6481L7.05437 93.5195L23.7327 92.2316L23.5105 89.3602L17.4326 89.8295C18.2606 89.0194 18.7091 87.6608 18.6054 86.3208C18.3814 83.4255 15.9471 81.5192 12.0946 81.8167C8.55311 82.0902 6.08189 84.0623 6.32999 87.2688ZM16.1485 87.2327C16.3077 89.2905 14.7969 90.2979 12.739 90.4568C10.6333 90.6194 9.05728 89.8504 8.8962 87.7687C8.74808 85.8544 9.97173 84.8692 12.2928 84.69C14.59 84.5126 16.0003 85.3184 16.1485 87.2327Z" fill="currentcolor"/>
  <path d="M18.7668 75.8077C18.9987 73.5878 18.0521 71.0999 15.307 70.8132C11.0104 70.3643 11.4173 76.6325 9.62707 76.4455C9.07806 76.3881 8.68438 75.7678 8.78164 74.8369C8.9163 73.5479 9.74747 72.9832 10.5298 72.6547L9.54438 70.3076C7.85282 71.0238 6.73592 72.4756 6.52395 74.5045C6.28705 76.7722 7.24222 78.9472 9.50988 79.1841C13.8781 79.6405 13.1987 73.4403 15.1799 73.6473C15.8005 73.7121 16.5045 74.3648 16.3648 75.7015C16.2003 77.277 15.0613 77.7854 14.1695 78.0059L14.9565 80.4047C16.8066 80.0188 18.5075 78.2902 18.7668 75.8077Z" fill="currentcolor"/>
  <path d="M61 82H103M103 82L80.9867 62M103 82L80.8335 102" stroke="currentcolor" stroke-width="2"/>
  <path d="M11.7384 53.1548C11.2309 54.6045 11.3 56.0777 12.6753 57.5243C10.7155 57.6023 9.76391 58.7952 9.3357 60.0184C8.94715 61.1283 8.92791 62.4182 9.92029 63.5784L8.51556 63.0876L7.59571 65.7153L18.7736 69.595L19.7251 66.8768L15.4656 65.3886C13.2226 64.605 10.6838 63.7943 11.4847 61.5064C12.1032 59.7396 13.9781 60.2675 14.8617 60.5762L21.1604 62.7767L22.112 60.0585L17.8524 58.5703C15.6094 57.7867 13.0627 56.9987 13.8636 54.7108C14.4901 52.9213 16.365 53.4492 17.2486 53.7579L23.5472 55.9584L24.4988 53.2402L17.3845 50.7547C15.1414 49.971 12.682 50.4592 11.7384 53.1548Z" fill="currentcolor"/>
  <path d="M22.1054 48.056L23.2377 46.1884L13.4328 39.8625L11.952 42.3046L22.1054 48.056ZM26.189 51.0881L27.8191 48.3997L25.1498 46.7844L23.5197 49.4729L26.189 51.0881Z" fill="currentcolor"/>
  <path d="M55.8689 24.1426C56.3716 23.9145 56.912 23.5376 57.4028 23.0514L56.4495 20.9539C56.1832 21.1801 55.9189 21.3527 55.6785 21.4618C55.1977 21.6799 54.8242 21.6122 54.6057 21.1315L48.935 8.65578L46.3122 9.84556L52.0624 22.4961C52.9363 24.4188 54.4045 24.8069 55.8689 24.1426Z" fill="currentcolor"/>
  <path d="M64.2707 21.037C67.7846 20.0571 69.2187 16.7171 68.3209 13.5042C67.4166 10.2681 64.4712 8.19931 60.9573 9.17925C57.4203 10.1656 55.9964 13.4529 56.9007 16.689C57.7984 19.9019 60.7337 22.0234 64.2707 21.037ZM63.5925 18.61C61.4888 19.1967 60.1915 17.7645 59.6748 15.9153C59.1516 14.0431 59.5318 12.193 61.6355 11.6063C63.7392 11.0196 65.0236 12.4055 65.5467 14.2778C66.0635 16.127 65.6962 18.0233 63.5925 18.61Z" fill="currentcolor"/>
  <path d="M76.7677 6.36499C75.4299 6.49422 74.1923 7.40946 73.8317 8.91512L73.6375 6.90849L70.7469 7.18773L71.8869 18.9647L74.7535 18.6878L74.1801 12.7634C73.9651 10.5418 74.721 9.38378 76.4649 9.21532C77.0382 9.15993 77.506 9.25941 77.9375 9.48295L79.078 6.81694C78.2673 6.41302 77.556 6.28884 76.7677 6.36499Z" fill="currentcolor"/>
  <path d="M92.0905 12.7562C92.3315 9.47707 90.7591 6.64244 87.0969 6.37381C83.1714 6.08587 81.2672 9.07458 81.0403 12.1622C80.8081 15.3217 82.3168 18.3683 86.3859 18.6667C88.3726 18.8125 89.9794 18.2325 91.3775 16.8911L89.5192 14.9981C88.6368 15.8719 87.6548 16.1368 86.6016 16.0595C84.7346 15.9226 83.8528 14.8231 83.8475 13.2585L91.9378 13.852C92.0138 13.4725 92.0641 13.1153 92.0905 12.7562ZM83.9907 10.9829C84.2444 9.82238 85.1497 8.63743 86.897 8.7656C88.405 8.87621 89.487 9.87003 89.4241 11.3815L83.9907 10.9829Z" fill="currentcolor"/>
  <path d="M104.252 7.38893L107.125 8.33241L107.957 5.80188L105.084 4.8584L104.252 7.38893ZM99.9242 20.7708L102.66 21.6693L106.359 10.4301L103.622 9.53157L99.9242 20.7708Z" fill="currentcolor"/>
  <path d="M116.943 14.6714C115.809 14.0949 114.447 13.8601 113.262 14.3884L113.796 13.3406L111.229 12.0352L103.635 26.9402L106.202 28.2455L108.969 22.8139C109.229 23.9423 110.155 25.0325 111.353 25.6417C113.942 26.9579 116.838 25.8728 118.592 22.4299C120.205 19.265 119.809 16.1291 116.943 14.6714ZM111.856 23.0699C110.016 22.1344 109.943 20.3206 110.88 18.4815C111.839 16.5997 113.317 15.6549 115.178 16.6013C116.89 17.4716 117.093 19.0288 116.036 21.1031C114.99 23.156 113.567 23.9402 111.856 23.0699Z" fill="currentcolor"/>
  <path d="M120.033 31.0762C121.809 32.4275 124.428 32.9117 126.101 30.7166C128.72 27.2808 123.151 24.3718 124.242 22.9403C124.577 22.5012 125.312 22.4873 126.057 23.054C127.088 23.8386 127.139 24.8418 127.012 25.6805L129.531 26.0584C129.799 24.2419 129.139 22.5339 127.515 21.2988C125.701 19.9184 123.345 19.6041 121.963 21.4174C119.301 24.9104 124.953 27.5513 123.745 29.1356C123.367 29.6319 122.443 29.8939 121.373 29.0802C120.112 28.1212 120.27 26.8845 120.546 26.0085L118.087 25.4343C117.454 27.2146 118.046 29.565 120.033 31.0762Z" fill="currentcolor"/>
  <path d="M143.119 36.8028C142.139 35.6195 140.841 34.9171 138.891 35.3456C139.838 33.6293 139.308 32.199 138.482 31.2006C137.732 30.2946 136.637 29.6115 135.13 29.8605L136.277 28.9129L134.502 26.7681L125.395 34.3216L127.231 36.5403L130.71 33.6669C132.542 32.1538 134.55 30.4018 136.095 32.2692C137.289 33.7114 135.867 35.0418 135.145 35.6379L130.001 39.8869L131.837 42.1056L135.316 39.2322C137.148 37.719 139.141 35.9486 140.686 37.816C141.895 39.2766 140.473 40.607 139.751 41.2031L134.607 45.4521L136.443 47.6708L142.253 42.8716C144.085 41.3585 144.94 39.003 143.119 36.8028Z" fill="currentcolor"/>
  <path d="M142.286 48.5248L143.299 50.4596L153.793 45.3555L152.468 42.8253L142.286 48.5248ZM137.576 50.4448L139.034 53.2301L141.799 51.7852L140.341 48.9999L137.576 50.4448Z" fill="currentcolor"/>
</svg>