<svg width="56" height="56" viewBox="0 0 56 56" fill="none" xmlns="http://www.w3.org/2000/svg" class="icon icon-teamwork">
  <circle cx="27.5" cy="31.5" r="2.5" stroke="currentColor" stroke-width="1.5" stroke-linecap="round" stroke-linejoin="round"/>
  <path fill-rule="evenodd" clip-rule="evenodd" d="M29.5199 22.4827L30.221 24.7394C30.4611 25.5172 31.2742 25.9797 32.0817 25.7977L34.4129 25.2662C35.3202 25.0663 36.2544 25.4692 36.7178 26.2601C37.1811 27.051 37.0656 28.0457 36.4328 28.7141L34.8002 30.4416C34.2374 31.0392 34.2374 31.9608 34.8002 32.5584L36.4328 34.2859C37.0656 34.9543 37.1811 35.949 36.7178 36.7399C36.2544 37.5308 35.3202 37.9337 34.4129 37.7338L32.0817 37.2023C31.2742 37.0203 30.4611 37.4828 30.221 38.2606L29.5199 40.5173C29.2564 41.3963 28.434 42 27.5 42C26.566 42 25.7436 41.3963 25.4801 40.5173L24.779 38.2606C24.5389 37.4828 23.7258 37.0203 22.9183 37.2023L20.5871 37.7338C19.6798 37.9337 18.7456 37.5308 18.2822 36.7399C17.8189 35.949 17.9344 34.9543 18.5672 34.2859L20.1998 32.5584C20.7626 31.9608 20.7626 31.0392 20.1998 30.4416L18.5672 28.7141C17.9344 28.0457 17.8189 27.051 18.2822 26.2601C18.7456 25.4692 19.6798 25.0663 20.5871 25.2662L22.9183 25.7977C23.7258 25.9797 24.5389 25.5172 24.779 24.7394L25.4801 22.4827C25.7436 21.6037 26.566 21 27.5 21C28.434 21 29.2564 21.6037 29.5199 22.4827V22.4827Z" stroke="currentColor" stroke-width="1.5" stroke-linecap="round" stroke-linejoin="round"/>
  <circle cx="28" cy="5" r="4" stroke="currentColor" stroke-width="1.5" stroke-linecap="round" stroke-linejoin="round"/>
  <path d="M36 17C35.0675 13.4702 31.774 11 28 11C24.226 11 20.9325 13.4702 20 17" stroke="currentColor" stroke-width="1.5" stroke-linecap="round" stroke-linejoin="round"/>
  <circle cx="47" cy="43" r="4" stroke="currentColor" stroke-width="1.5" stroke-linecap="round" stroke-linejoin="round"/>
  <path d="M55 55C54.0675 51.4702 50.774 49 47 49C43.226 49 39.9325 51.4702 39 55" stroke="currentColor" stroke-width="1.5" stroke-linecap="round" stroke-linejoin="round"/>
  <circle cx="9" cy="43" r="4" stroke="currentColor" stroke-width="1.5" stroke-linecap="round" stroke-linejoin="round"/>
  <path d="M17 55C16.0675 51.4702 12.774 49 9 49C5.22604 49 1.93251 51.4702 1 55" stroke="currentColor" stroke-width="1.5" stroke-linecap="round" stroke-linejoin="round"/>
  <path d="M35 49.5002C30.4587 50.833 25.5413 50.833 21 49.5002" stroke="currentColor" stroke-width="1.5" stroke-linecap="round" stroke-linejoin="round"/>
  <path d="M38 8C46.4715 12.2733 51.2172 21.5791 49.7292 31" stroke="currentColor" stroke-width="1.5" stroke-linecap="round" stroke-linejoin="round"/>
  <path d="M6.2706 31C4.78322 21.5778 9.52931 12.2713 18 8" stroke="currentColor" stroke-width="1.5" stroke-linecap="round" stroke-linejoin="round"/>
</svg>
