<svg width="66" height="38" viewBox="0 0 66 38" fill="none" xmlns="http://www.w3.org/2000/svg" class="icon icon-respect">
  <path d="M39.6728 9.0345L29.8307 12.1764C28.2029 12.6866 26.445 11.8947 25.7946 10.3581C25.1442 8.82155 25.8202 7.05758 27.3467 6.30813L36.8825 1.6784C38.5263 0.885909 40.4329 0.783189 42.1568 1.39423L56.2328 6.35371V25.1193L39.6563 28.1781" stroke="currentColor" stroke-width="1.5" stroke-linecap="round" stroke-linejoin="round"/>
  <path d="M9.76758 24.7142H16.5115L26.1958 35.6501C27.2048 36.8308 28.8364 37.2543 30.2861 36.712C31.7359 36.1696 32.6975 34.7757 32.697 33.2178V31.5084L33.1798 31.704C34.5867 32.2702 36.1806 32.0966 37.435 31.2408C38.6893 30.3849 39.4407 28.9581 39.4409 27.4319H40.7897C42.3223 27.4319 43.7234 26.5595 44.4089 25.1785C45.0943 23.7974 44.9464 22.1448 44.0268 20.9095L36.0689 10.4963" stroke="currentColor" stroke-width="1.5" stroke-linecap="round" stroke-linejoin="round"/>
  <path d="M29.0553 5.5251L28.0542 4.73698C26.4219 3.57532 24.2799 3.30795 22.3926 4.03029L9.76758 8.8904" stroke="currentColor" stroke-width="1.5" stroke-linecap="round" stroke-linejoin="round"/>
  <path d="M1 3.63013H6.84475C8.45873 3.63013 9.76712 4.85129 9.76712 6.35768V25.4505C9.76712 26.9569 8.45873 28.1781 6.84475 28.1781H1" stroke="currentColor" stroke-width="1.5" stroke-linecap="round" stroke-linejoin="round"/>
  <path d="M64.9995 28.1781H59.1548C57.5408 28.1781 56.2324 26.9569 56.2324 25.4505V6.35768C56.2324 4.85129 57.5408 3.63013 59.1548 3.63013H64.9995" stroke="currentColor" stroke-width="1.5" stroke-linecap="round" stroke-linejoin="round"/>
  <path d="M32.5618 31.6849L29.9316 29.0548" stroke="currentColor" stroke-width="1.5" stroke-linecap="round" stroke-linejoin="round"/>
  <path d="M36.0684 23.7945L39.5752 27.3013" stroke="currentColor" stroke-width="1.5" stroke-linecap="round" stroke-linejoin="round"/>
</svg>
